G04 PROTEUS GERBER X2 FILE*
%TF.GenerationSoftware,Labcenter,Proteus,8.12-SP2-Build31155*%
%TF.CreationDate,2022-12-03T19:28:30+00:00*%
%TF.FileFunction,AssemblyDrawing,Top*%
%TF.FilePolarity,Positive*%
%TF.Part,Single*%
%TF.SameCoordinates,{ab386329-c5d6-4b76-aca3-cb6d5b16447b}*%
%FSLAX45Y45*%
%MOMM*%
G01*
%TA.AperFunction,Profile*%
%ADD20C,0.203200*%
%TA.AperFunction,Material*%
%ADD26C,0.203200*%
%ADD27C,0.508000*%
%ADD47C,0.507080*%
%ADD48C,1.219200*%
%ADD49C,0.314280*%
%ADD50C,0.812800*%
%ADD51C,0.220130*%
%ADD28C,0.152400*%
%ADD52C,0.558800*%
%ADD53C,0.199130*%
%ADD54C,0.084660*%
%ADD55C,0.110060*%
%ADD56C,0.050000*%
%ADD57C,1.074420*%
%ADD58C,0.161150*%
%TD.AperFunction*%
D20*
X+0Y+0D02*
X+1650000Y+0D01*
X+7000000Y+0D02*
X+7000000Y+6000000D01*
X+5000000Y+6000000D01*
X+5000000Y+3700000D01*
X+4800000Y+3500000D01*
X+2200000Y+3500000D01*
X+2000000Y+3700000D02*
X+2000000Y+6000000D01*
X+0Y+6000000D01*
X+0Y+0D01*
X+2000000Y+3700000D02*
X+2200000Y+3500000D01*
X+5160000Y+0D02*
X+7000000Y+0D01*
X+1750000Y-200000D02*
X+5050000Y-200000D01*
X+1650000Y+0D02*
X+1750000Y-200000D01*
X+5160000Y+0D02*
X+5050000Y-200000D01*
X+4550045Y+50000D02*
X+4549508Y+63142D01*
X+4545144Y+89427D01*
X+4536029Y+115712D01*
X+4521182Y+141997D01*
X+4498470Y+168118D01*
X+4472185Y+187898D01*
X+4445900Y+200658D01*
X+4419615Y+208108D01*
X+4393330Y+210987D01*
X+4389000Y+211045D01*
X+4227955Y+50000D02*
X+4228492Y+63142D01*
X+4232856Y+89427D01*
X+4241971Y+115712D01*
X+4256818Y+141997D01*
X+4279530Y+168118D01*
X+4305815Y+187898D01*
X+4332100Y+200658D01*
X+4358385Y+208108D01*
X+4384670Y+210987D01*
X+4389000Y+211045D01*
X+4227955Y+50000D02*
X+4228492Y+36858D01*
X+4232856Y+10573D01*
X+4241971Y-15712D01*
X+4256818Y-41997D01*
X+4279530Y-68118D01*
X+4305815Y-87898D01*
X+4332100Y-100658D01*
X+4358385Y-108108D01*
X+4384670Y-110987D01*
X+4389000Y-111045D01*
X+4550045Y+50000D02*
X+4549508Y+36858D01*
X+4545144Y+10573D01*
X+4536029Y-15712D01*
X+4521182Y-41997D01*
X+4498470Y-68118D01*
X+4472185Y-87898D01*
X+4445900Y-100658D01*
X+4419615Y-108108D01*
X+4393330Y-110987D01*
X+4389000Y-111045D01*
X+6074045Y+5130000D02*
X+6073508Y+5143142D01*
X+6069144Y+5169427D01*
X+6060029Y+5195712D01*
X+6045182Y+5221997D01*
X+6022470Y+5248118D01*
X+5996185Y+5267898D01*
X+5969900Y+5280658D01*
X+5943615Y+5288108D01*
X+5917330Y+5290987D01*
X+5913000Y+5291045D01*
X+5751955Y+5130000D02*
X+5752492Y+5143142D01*
X+5756856Y+5169427D01*
X+5765971Y+5195712D01*
X+5780818Y+5221997D01*
X+5803530Y+5248118D01*
X+5829815Y+5267898D01*
X+5856100Y+5280658D01*
X+5882385Y+5288108D01*
X+5908670Y+5290987D01*
X+5913000Y+5291045D01*
X+5751955Y+5130000D02*
X+5752492Y+5116858D01*
X+5756856Y+5090573D01*
X+5765971Y+5064288D01*
X+5780818Y+5038003D01*
X+5803530Y+5011882D01*
X+5829815Y+4992102D01*
X+5856100Y+4979342D01*
X+5882385Y+4971892D01*
X+5908670Y+4969013D01*
X+5913000Y+4968955D01*
X+6074045Y+5130000D02*
X+6073508Y+5116858D01*
X+6069144Y+5090573D01*
X+6060029Y+5064288D01*
X+6045182Y+5038003D01*
X+6022470Y+5011882D01*
X+5996185Y+4992102D01*
X+5969900Y+4979342D01*
X+5943615Y+4971892D01*
X+5917330Y+4969013D01*
X+5913000Y+4968955D01*
X+1248045Y+5257000D02*
X+1247508Y+5270142D01*
X+1243144Y+5296427D01*
X+1234029Y+5322712D01*
X+1219182Y+5348997D01*
X+1196470Y+5375118D01*
X+1170185Y+5394898D01*
X+1143900Y+5407658D01*
X+1117615Y+5415108D01*
X+1091330Y+5417987D01*
X+1087000Y+5418045D01*
X+925955Y+5257000D02*
X+926492Y+5270142D01*
X+930856Y+5296427D01*
X+939971Y+5322712D01*
X+954818Y+5348997D01*
X+977530Y+5375118D01*
X+1003815Y+5394898D01*
X+1030100Y+5407658D01*
X+1056385Y+5415108D01*
X+1082670Y+5417987D01*
X+1087000Y+5418045D01*
X+925955Y+5257000D02*
X+926492Y+5243858D01*
X+930856Y+5217573D01*
X+939971Y+5191288D01*
X+954818Y+5165003D01*
X+977530Y+5138882D01*
X+1003815Y+5119102D01*
X+1030100Y+5106342D01*
X+1056385Y+5098892D01*
X+1082670Y+5096013D01*
X+1087000Y+5095955D01*
X+1248045Y+5257000D02*
X+1247508Y+5243858D01*
X+1243144Y+5217573D01*
X+1234029Y+5191288D01*
X+1219182Y+5165003D01*
X+1196470Y+5138882D01*
X+1170185Y+5119102D01*
X+1143900Y+5106342D01*
X+1117615Y+5098892D01*
X+1091330Y+5096013D01*
X+1087000Y+5095955D01*
D26*
X+1226500Y+116840D02*
X+2115500Y+116840D01*
X+2115500Y+2677160D01*
X+1226500Y+2677160D01*
X+1226500Y+116840D01*
D27*
X+1290000Y+2540000D02*
X+1290000Y+2540000D01*
D47*
X+1518874Y+859344D02*
X+1772417Y+859344D01*
X+1823125Y+916391D01*
X+1823125Y+1144579D01*
X+1772417Y+1201626D01*
X+1518874Y+1201626D01*
X+1620291Y+1429814D02*
X+1518874Y+1543908D01*
X+1823125Y+1543908D01*
D26*
X+2436500Y+584840D02*
X+3325500Y+584840D01*
X+3325500Y+2637160D01*
X+2436500Y+2637160D01*
X+2436500Y+584840D01*
D27*
X+2500000Y+2500000D02*
X+2500000Y+2500000D01*
D47*
X+2728874Y+1073344D02*
X+2982417Y+1073344D01*
X+3033125Y+1130391D01*
X+3033125Y+1358579D01*
X+2982417Y+1415626D01*
X+2728874Y+1415626D01*
X+2779583Y+1586767D02*
X+2728874Y+1643814D01*
X+2728874Y+1814955D01*
X+2779583Y+1872002D01*
X+2830291Y+1872002D01*
X+2881000Y+1814955D01*
X+2881000Y+1643814D01*
X+2931708Y+1586767D01*
X+3033125Y+1586767D01*
X+3033125Y+1872002D01*
D26*
X+895840Y+4011840D02*
X+1932160Y+4011840D01*
X+1932160Y+5048160D01*
X+895840Y+5048160D01*
X+895840Y+4011840D01*
D48*
X+1668000Y+4530000D02*
X+1668000Y+4530000D01*
D49*
X+1282869Y+4247147D02*
X+1314297Y+4247147D01*
X+1345725Y+4282503D01*
X+1345725Y+4423930D01*
X+1314297Y+4459286D01*
X+1157156Y+4459286D01*
X+1220012Y+4600713D02*
X+1157156Y+4671426D01*
X+1345725Y+4671426D01*
D26*
X+5077840Y+4128840D02*
X+6114160Y+4128840D01*
X+6114160Y+4784160D01*
X+5077840Y+4784160D01*
X+5077840Y+4128840D01*
D50*
X+5850000Y+4520000D02*
X+5850000Y+4520000D01*
D51*
X+5245481Y+4434487D02*
X+5245481Y+4412473D01*
X+5270245Y+4390460D01*
X+5369305Y+4390460D01*
X+5394070Y+4412473D01*
X+5394070Y+4522540D01*
X+5468364Y+4500527D02*
X+5493129Y+4522540D01*
X+5567424Y+4522540D01*
X+5592189Y+4500527D01*
X+5592189Y+4478513D01*
X+5567424Y+4456500D01*
X+5493129Y+4456500D01*
X+5468364Y+4434487D01*
X+5468364Y+4390460D01*
X+5592189Y+4390460D01*
D26*
X+5077840Y+3048840D02*
X+6114160Y+3048840D01*
X+6114160Y+3704160D01*
X+5077840Y+3704160D01*
X+5077840Y+3048840D01*
D50*
X+5850000Y+3440000D02*
X+5850000Y+3440000D01*
D51*
X+5245481Y+3354487D02*
X+5245481Y+3332473D01*
X+5270245Y+3310460D01*
X+5369305Y+3310460D01*
X+5394070Y+3332473D01*
X+5394070Y+3442540D01*
X+5468364Y+3420527D02*
X+5493129Y+3442540D01*
X+5567424Y+3442540D01*
X+5592189Y+3420527D01*
X+5592189Y+3398513D01*
X+5567424Y+3376500D01*
X+5592189Y+3354487D01*
X+5592189Y+3332473D01*
X+5567424Y+3310460D01*
X+5493129Y+3310460D01*
X+5468364Y+3332473D01*
X+5517894Y+3376500D02*
X+5567424Y+3376500D01*
D28*
X+5275220Y+414750D02*
X+5564780Y+414750D01*
X+5564780Y+1205250D01*
X+5275220Y+1205250D01*
X+5275220Y+414750D01*
X+5564780Y+414750D01*
X+5564780Y+1205250D01*
X+5275220Y+1205250D01*
X+5275220Y+414750D01*
D52*
X+5420000Y+1110000D02*
X+5420000Y+1110000D01*
D53*
X+5439914Y+565373D02*
X+5459828Y+565373D01*
X+5479741Y+587775D01*
X+5479741Y+677386D01*
X+5459828Y+699789D01*
X+5360260Y+699789D01*
X+5360260Y+879011D02*
X+5360260Y+766997D01*
X+5400087Y+766997D01*
X+5400087Y+856608D01*
X+5420000Y+879011D01*
X+5459828Y+879011D01*
X+5479741Y+856608D01*
X+5479741Y+789400D01*
X+5459828Y+766997D01*
D28*
X+4595220Y+414750D02*
X+4884780Y+414750D01*
X+4884780Y+1205250D01*
X+4595220Y+1205250D01*
X+4595220Y+414750D01*
X+4884780Y+414750D01*
X+4884780Y+1205250D01*
X+4595220Y+1205250D01*
X+4595220Y+414750D01*
D52*
X+4740000Y+1110000D02*
X+4740000Y+1110000D01*
D53*
X+4759914Y+565373D02*
X+4779828Y+565373D01*
X+4799741Y+587775D01*
X+4799741Y+677386D01*
X+4779828Y+699789D01*
X+4680260Y+699789D01*
X+4680260Y+766997D02*
X+4680260Y+879011D01*
X+4700173Y+879011D01*
X+4799741Y+766997D01*
D28*
X+3875220Y+424750D02*
X+4164780Y+424750D01*
X+4164780Y+1215250D01*
X+3875220Y+1215250D01*
X+3875220Y+424750D01*
X+4164780Y+424750D01*
X+4164780Y+1215250D01*
X+3875220Y+1215250D01*
X+3875220Y+424750D01*
D52*
X+4020000Y+1120000D02*
X+4020000Y+1120000D01*
D53*
X+4039914Y+575373D02*
X+4059828Y+575373D01*
X+4079741Y+597775D01*
X+4079741Y+687386D01*
X+4059828Y+709789D01*
X+3960260Y+709789D01*
X+4020000Y+799400D02*
X+4000087Y+776997D01*
X+3980173Y+776997D01*
X+3960260Y+799400D01*
X+3960260Y+866608D01*
X+3980173Y+889011D01*
X+4000087Y+889011D01*
X+4020000Y+866608D01*
X+4020000Y+799400D01*
X+4039914Y+776997D01*
X+4059828Y+776997D01*
X+4079741Y+799400D01*
X+4079741Y+866608D01*
X+4059828Y+889011D01*
X+4039914Y+889011D01*
X+4020000Y+866608D01*
D26*
X+1432840Y+5332840D02*
X+1707160Y+5332840D01*
X+1707160Y+5607160D01*
X+1432840Y+5607160D01*
X+1432840Y+5332840D01*
D54*
X+1493801Y+5461533D02*
X+1493801Y+5453066D01*
X+1503325Y+5444600D01*
X+1541425Y+5444600D01*
X+1550950Y+5453066D01*
X+1550950Y+5495399D01*
X+1627149Y+5478466D02*
X+1617624Y+5470000D01*
X+1589049Y+5470000D01*
X+1579524Y+5478466D01*
X+1579524Y+5486933D01*
X+1589049Y+5495399D01*
X+1617624Y+5495399D01*
X+1627149Y+5486933D01*
X+1627149Y+5453066D01*
X+1617624Y+5444600D01*
X+1589049Y+5444600D01*
D26*
X+4402840Y+2792840D02*
X+4677160Y+2792840D01*
X+4677160Y+3321160D01*
X+4402840Y+3321160D01*
X+4402840Y+2792840D01*
D50*
X+4540000Y+2930000D02*
X+4540000Y+2930000D01*
D55*
X+4551007Y+3046841D02*
X+4562014Y+3046841D01*
X+4573020Y+3059223D01*
X+4573020Y+3108752D01*
X+4562014Y+3121135D01*
X+4506981Y+3121135D01*
X+4517987Y+3220194D02*
X+4506981Y+3207811D01*
X+4506981Y+3170664D01*
X+4517987Y+3158282D01*
X+4562014Y+3158282D01*
X+4573020Y+3170664D01*
X+4573020Y+3207811D01*
X+4562014Y+3220194D01*
X+4551007Y+3220194D01*
X+4540000Y+3207811D01*
X+4540000Y+3158282D01*
D28*
X+4455220Y+1714750D02*
X+4744780Y+1714750D01*
X+4744780Y+2505250D01*
X+4455220Y+2505250D01*
X+4455220Y+1714750D01*
X+4744780Y+1714750D01*
X+4744780Y+2505250D01*
X+4455220Y+2505250D01*
X+4455220Y+1714750D01*
D52*
X+4600000Y+2410000D02*
X+4600000Y+2410000D01*
D53*
X+4619914Y+1865373D02*
X+4639828Y+1865373D01*
X+4659741Y+1887775D01*
X+4659741Y+1977386D01*
X+4639828Y+1999789D01*
X+4540260Y+1999789D01*
X+4619914Y+2179011D02*
X+4619914Y+2044595D01*
X+4540260Y+2134206D01*
X+4659741Y+2134206D01*
D56*
X+5725000Y+2780000D02*
X+5085000Y+2780000D01*
X+5085000Y+2460000D01*
X+5725000Y+2460000D01*
X+5725000Y+2780000D01*
X+5405000Y+2570000D02*
X+5405000Y+2670000D01*
X+5355000Y+2620000D02*
X+5455000Y+2620000D01*
D57*
X+5640000Y+2620000D02*
X+5640000Y+2620000D01*
D58*
X+5189353Y+2571654D02*
X+5189353Y+2668346D01*
X+5280001Y+2668346D01*
X+5298130Y+2652231D01*
X+5298130Y+2636115D01*
X+5280001Y+2620000D01*
X+5189353Y+2620000D01*
X+5280001Y+2620000D02*
X+5298130Y+2603885D01*
X+5298130Y+2571654D01*
X+5370649Y+2636115D02*
X+5406908Y+2668346D01*
X+5406908Y+2571654D01*
D56*
X+5725000Y+2310000D02*
X+5085000Y+2310000D01*
X+5085000Y+1990000D01*
X+5725000Y+1990000D01*
X+5725000Y+2310000D01*
X+5405000Y+2100000D02*
X+5405000Y+2200000D01*
X+5355000Y+2150000D02*
X+5455000Y+2150000D01*
D57*
X+5640000Y+2150000D02*
X+5640000Y+2150000D01*
D58*
X+5189353Y+2101654D02*
X+5189353Y+2198346D01*
X+5280001Y+2198346D01*
X+5298130Y+2182231D01*
X+5298130Y+2166115D01*
X+5280001Y+2150000D01*
X+5189353Y+2150000D01*
X+5280001Y+2150000D02*
X+5298130Y+2133885D01*
X+5298130Y+2101654D01*
X+5352519Y+2182231D02*
X+5370649Y+2198346D01*
X+5425038Y+2198346D01*
X+5443167Y+2182231D01*
X+5443167Y+2166115D01*
X+5425038Y+2150000D01*
X+5370649Y+2150000D01*
X+5352519Y+2133885D01*
X+5352519Y+2101654D01*
X+5443167Y+2101654D01*
D56*
X+5725000Y+1860000D02*
X+5085000Y+1860000D01*
X+5085000Y+1540000D01*
X+5725000Y+1540000D01*
X+5725000Y+1860000D01*
X+5405000Y+1650000D02*
X+5405000Y+1750000D01*
X+5355000Y+1700000D02*
X+5455000Y+1700000D01*
D57*
X+5640000Y+1700000D02*
X+5640000Y+1700000D01*
D58*
X+5189353Y+1651654D02*
X+5189353Y+1748346D01*
X+5280001Y+1748346D01*
X+5298130Y+1732231D01*
X+5298130Y+1716115D01*
X+5280001Y+1700000D01*
X+5189353Y+1700000D01*
X+5280001Y+1700000D02*
X+5298130Y+1683885D01*
X+5298130Y+1651654D01*
X+5352519Y+1732231D02*
X+5370649Y+1748346D01*
X+5425038Y+1748346D01*
X+5443167Y+1732231D01*
X+5443167Y+1716115D01*
X+5425038Y+1700000D01*
X+5443167Y+1683885D01*
X+5443167Y+1667769D01*
X+5425038Y+1651654D01*
X+5370649Y+1651654D01*
X+5352519Y+1667769D01*
X+5388778Y+1700000D02*
X+5425038Y+1700000D01*
D26*
X+2162840Y+3172840D02*
X+2437160Y+3172840D01*
X+2437160Y+3447160D01*
X+2162840Y+3447160D01*
X+2162840Y+3172840D01*
D54*
X+2185702Y+3301533D02*
X+2185702Y+3293066D01*
X+2195226Y+3284600D01*
X+2233326Y+3284600D01*
X+2242851Y+3293066D01*
X+2242851Y+3335399D01*
X+2280950Y+3318466D02*
X+2300000Y+3335399D01*
X+2300000Y+3284600D01*
X+2338100Y+3293066D02*
X+2338100Y+3326933D01*
X+2347624Y+3335399D01*
X+2385724Y+3335399D01*
X+2395249Y+3326933D01*
X+2395249Y+3293066D01*
X+2385724Y+3284600D01*
X+2347624Y+3284600D01*
X+2338100Y+3293066D01*
X+2338100Y+3284600D02*
X+2395249Y+3335399D01*
D26*
X+2592840Y+3162840D02*
X+2867160Y+3162840D01*
X+2867160Y+3437160D01*
X+2592840Y+3437160D01*
X+2592840Y+3162840D01*
D54*
X+2615702Y+3291533D02*
X+2615702Y+3283066D01*
X+2625226Y+3274600D01*
X+2663326Y+3274600D01*
X+2672851Y+3283066D01*
X+2672851Y+3325399D01*
X+2710950Y+3308466D02*
X+2730000Y+3325399D01*
X+2730000Y+3274600D01*
X+2787149Y+3308466D02*
X+2806199Y+3325399D01*
X+2806199Y+3274600D01*
D26*
X+3002840Y+3172840D02*
X+3277160Y+3172840D01*
X+3277160Y+3447160D01*
X+3002840Y+3447160D01*
X+3002840Y+3172840D01*
D54*
X+3025702Y+3301533D02*
X+3025702Y+3293066D01*
X+3035226Y+3284600D01*
X+3073326Y+3284600D01*
X+3082851Y+3293066D01*
X+3082851Y+3335399D01*
X+3120950Y+3318466D02*
X+3140000Y+3335399D01*
X+3140000Y+3284600D01*
X+3187624Y+3326933D02*
X+3197149Y+3335399D01*
X+3225724Y+3335399D01*
X+3235249Y+3326933D01*
X+3235249Y+3318466D01*
X+3225724Y+3310000D01*
X+3197149Y+3310000D01*
X+3187624Y+3301533D01*
X+3187624Y+3284600D01*
X+3235249Y+3284600D01*
D26*
X+3422840Y+3172840D02*
X+3697160Y+3172840D01*
X+3697160Y+3447160D01*
X+3422840Y+3447160D01*
X+3422840Y+3172840D01*
D54*
X+3445702Y+3301533D02*
X+3445702Y+3293066D01*
X+3455226Y+3284600D01*
X+3493326Y+3284600D01*
X+3502851Y+3293066D01*
X+3502851Y+3335399D01*
X+3540950Y+3318466D02*
X+3560000Y+3335399D01*
X+3560000Y+3284600D01*
X+3607624Y+3326933D02*
X+3617149Y+3335399D01*
X+3645724Y+3335399D01*
X+3655249Y+3326933D01*
X+3655249Y+3318466D01*
X+3645724Y+3310000D01*
X+3655249Y+3301533D01*
X+3655249Y+3293066D01*
X+3645724Y+3284600D01*
X+3617149Y+3284600D01*
X+3607624Y+3293066D01*
X+3626674Y+3310000D02*
X+3645724Y+3310000D01*
D26*
X+3842840Y+3162840D02*
X+4117160Y+3162840D01*
X+4117160Y+3437160D01*
X+3842840Y+3437160D01*
X+3842840Y+3162840D01*
D54*
X+3865702Y+3291533D02*
X+3865702Y+3283066D01*
X+3875226Y+3274600D01*
X+3913326Y+3274600D01*
X+3922851Y+3283066D01*
X+3922851Y+3325399D01*
X+3960950Y+3308466D02*
X+3980000Y+3325399D01*
X+3980000Y+3274600D01*
X+4075249Y+3291533D02*
X+4018100Y+3291533D01*
X+4056199Y+3325399D01*
X+4056199Y+3274600D01*
D26*
X+3422840Y+2722840D02*
X+3697160Y+2722840D01*
X+3697160Y+2997160D01*
X+3422840Y+2997160D01*
X+3422840Y+2722840D01*
D54*
X+3445702Y+2851533D02*
X+3445702Y+2843066D01*
X+3455226Y+2834600D01*
X+3493326Y+2834600D01*
X+3502851Y+2843066D01*
X+3502851Y+2885399D01*
X+3540950Y+2868466D02*
X+3560000Y+2885399D01*
X+3560000Y+2834600D01*
X+3655249Y+2885399D02*
X+3607624Y+2885399D01*
X+3607624Y+2868466D01*
X+3645724Y+2868466D01*
X+3655249Y+2860000D01*
X+3655249Y+2843066D01*
X+3645724Y+2834600D01*
X+3617149Y+2834600D01*
X+3607624Y+2843066D01*
D26*
X+3832840Y+2722840D02*
X+4107160Y+2722840D01*
X+4107160Y+2997160D01*
X+3832840Y+2997160D01*
X+3832840Y+2722840D01*
D54*
X+3855702Y+2851533D02*
X+3855702Y+2843066D01*
X+3865226Y+2834600D01*
X+3903326Y+2834600D01*
X+3912851Y+2843066D01*
X+3912851Y+2885399D01*
X+3950950Y+2868466D02*
X+3970000Y+2885399D01*
X+3970000Y+2834600D01*
X+4065249Y+2876933D02*
X+4055724Y+2885399D01*
X+4027149Y+2885399D01*
X+4017624Y+2876933D01*
X+4017624Y+2843066D01*
X+4027149Y+2834600D01*
X+4055724Y+2834600D01*
X+4065249Y+2843066D01*
X+4065249Y+2851533D01*
X+4055724Y+2860000D01*
X+4017624Y+2860000D01*
D26*
X+3432840Y+2272840D02*
X+3707160Y+2272840D01*
X+3707160Y+2547160D01*
X+3432840Y+2547160D01*
X+3432840Y+2272840D01*
D54*
X+3455702Y+2401533D02*
X+3455702Y+2393066D01*
X+3465226Y+2384600D01*
X+3503326Y+2384600D01*
X+3512851Y+2393066D01*
X+3512851Y+2435399D01*
X+3550950Y+2418466D02*
X+3570000Y+2435399D01*
X+3570000Y+2384600D01*
X+3617624Y+2435399D02*
X+3665249Y+2435399D01*
X+3665249Y+2426933D01*
X+3617624Y+2384600D01*
D26*
X+3862840Y+2282840D02*
X+4137160Y+2282840D01*
X+4137160Y+2557160D01*
X+3862840Y+2557160D01*
X+3862840Y+2282840D01*
D54*
X+3885702Y+2411533D02*
X+3885702Y+2403066D01*
X+3895226Y+2394600D01*
X+3933326Y+2394600D01*
X+3942851Y+2403066D01*
X+3942851Y+2445399D01*
X+3980950Y+2428466D02*
X+4000000Y+2445399D01*
X+4000000Y+2394600D01*
X+4057149Y+2420000D02*
X+4047624Y+2428466D01*
X+4047624Y+2436933D01*
X+4057149Y+2445399D01*
X+4085724Y+2445399D01*
X+4095249Y+2436933D01*
X+4095249Y+2428466D01*
X+4085724Y+2420000D01*
X+4057149Y+2420000D01*
X+4047624Y+2411533D01*
X+4047624Y+2403066D01*
X+4057149Y+2394600D01*
X+4085724Y+2394600D01*
X+4095249Y+2403066D01*
X+4095249Y+2411533D01*
X+4085724Y+2420000D01*
D26*
X+3442840Y+1832840D02*
X+3717160Y+1832840D01*
X+3717160Y+2107160D01*
X+3442840Y+2107160D01*
X+3442840Y+1832840D01*
D54*
X+3465702Y+1961533D02*
X+3465702Y+1953066D01*
X+3475226Y+1944600D01*
X+3513326Y+1944600D01*
X+3522851Y+1953066D01*
X+3522851Y+1995399D01*
X+3560950Y+1978466D02*
X+3580000Y+1995399D01*
X+3580000Y+1944600D01*
X+3675249Y+1978466D02*
X+3665724Y+1970000D01*
X+3637149Y+1970000D01*
X+3627624Y+1978466D01*
X+3627624Y+1986933D01*
X+3637149Y+1995399D01*
X+3665724Y+1995399D01*
X+3675249Y+1986933D01*
X+3675249Y+1953066D01*
X+3665724Y+1944600D01*
X+3637149Y+1944600D01*
D26*
X+3862840Y+1852840D02*
X+4137160Y+1852840D01*
X+4137160Y+2127160D01*
X+3862840Y+2127160D01*
X+3862840Y+1852840D01*
D54*
X+3885702Y+1981533D02*
X+3885702Y+1973066D01*
X+3895226Y+1964600D01*
X+3933326Y+1964600D01*
X+3942851Y+1973066D01*
X+3942851Y+2015399D01*
X+3971425Y+2006933D02*
X+3980950Y+2015399D01*
X+4009525Y+2015399D01*
X+4019050Y+2006933D01*
X+4019050Y+1998466D01*
X+4009525Y+1990000D01*
X+3980950Y+1990000D01*
X+3971425Y+1981533D01*
X+3971425Y+1964600D01*
X+4019050Y+1964600D01*
X+4038100Y+1973066D02*
X+4038100Y+2006933D01*
X+4047624Y+2015399D01*
X+4085724Y+2015399D01*
X+4095249Y+2006933D01*
X+4095249Y+1973066D01*
X+4085724Y+1964600D01*
X+4047624Y+1964600D01*
X+4038100Y+1973066D01*
X+4038100Y+1964600D02*
X+4095249Y+2015399D01*
D26*
X+3872840Y+1402840D02*
X+4147160Y+1402840D01*
X+4147160Y+1677160D01*
X+3872840Y+1677160D01*
X+3872840Y+1402840D01*
D54*
X+3895702Y+1531533D02*
X+3895702Y+1523066D01*
X+3905226Y+1514600D01*
X+3943326Y+1514600D01*
X+3952851Y+1523066D01*
X+3952851Y+1565399D01*
X+3981425Y+1556933D02*
X+3990950Y+1565399D01*
X+4019525Y+1565399D01*
X+4029050Y+1556933D01*
X+4029050Y+1548466D01*
X+4019525Y+1540000D01*
X+3990950Y+1540000D01*
X+3981425Y+1531533D01*
X+3981425Y+1514600D01*
X+4029050Y+1514600D01*
X+4067149Y+1548466D02*
X+4086199Y+1565399D01*
X+4086199Y+1514600D01*
M02*
