G04 PROTEUS GERBER X2 FILE*
%TF.GenerationSoftware,Labcenter,Proteus,8.12-SP2-Build31155*%
%TF.CreationDate,2022-12-03T19:28:30+00:00*%
%TF.FileFunction,Soldermask,Bot*%
%TF.FilePolarity,Negative*%
%TF.Part,Single*%
%TF.SameCoordinates,{ab386329-c5d6-4b76-aca3-cb6d5b16447b}*%
%FSLAX45Y45*%
%MOMM*%
G01*
%TA.AperFunction,Material*%
%ADD72C,1.270000*%
%ADD73C,0.812800*%
%TA.AperFunction,Material*%
%ADD31C,1.778000*%
%AMPPAD026*
4,1,36,
0.762000,0.635000,
0.762000,-0.635000,
0.759470,-0.660970,
0.752200,-0.684980,
0.740650,-0.706580,
0.725290,-0.725290,
0.706570,-0.740650,
0.684980,-0.752200,
0.660970,-0.759470,
0.635000,-0.762000,
-0.635000,-0.762000,
-0.660970,-0.759470,
-0.684980,-0.752200,
-0.706570,-0.740650,
-0.725290,-0.725290,
-0.740650,-0.706580,
-0.752200,-0.684980,
-0.759470,-0.660970,
-0.762000,-0.635000,
-0.762000,0.635000,
-0.759470,0.660970,
-0.752200,0.684980,
-0.740650,0.706580,
-0.725290,0.725290,
-0.706570,0.740650,
-0.684980,0.752200,
-0.660970,0.759470,
-0.635000,0.762000,
0.635000,0.762000,
0.660970,0.759470,
0.684980,0.752200,
0.706570,0.740650,
0.725290,0.725290,
0.740650,0.706580,
0.752200,0.684980,
0.759470,0.660970,
0.762000,0.635000,
0*%
%TA.AperFunction,Material*%
%ADD32PPAD026*%
%ADD33C,1.524000*%
%AMPPAD033*
4,1,4,
0.304800,0.304800,
-0.304800,0.304800,
-0.304800,-0.304800,
0.304800,-0.304800,
0.304800,0.304800,
0*%
%TA.AperFunction,Material*%
%ADD39PPAD033*%
%ADD34C,3.302000*%
%TA.AperFunction,Material*%
%ADD35C,2.286000*%
%TA.AperFunction,Material*%
%ADD36C,1.651000*%
%AMPPAD034*
4,1,4,
-0.647700,-1.803400,
0.647700,-1.803400,
0.647700,1.803400,
-0.647700,1.803400,
-0.647700,-1.803400,
0*%
%TA.AperFunction,Material*%
%ADD40PPAD034*%
%AMPPAD031*
4,1,36,
-1.143000,-1.016000,
-1.143000,1.016000,
-1.140470,1.041970,
-1.133200,1.065980,
-1.121650,1.087580,
-1.106290,1.106290,
-1.087570,1.121650,
-1.065980,1.133200,
-1.041970,1.140470,
-1.016000,1.143000,
1.016000,1.143000,
1.041970,1.140470,
1.065980,1.133200,
1.087570,1.121650,
1.106290,1.106290,
1.121650,1.087580,
1.133200,1.065980,
1.140470,1.041970,
1.143000,1.016000,
1.143000,-1.016000,
1.140470,-1.041970,
1.133200,-1.065980,
1.121650,-1.087580,
1.106290,-1.106290,
1.087570,-1.121650,
1.065980,-1.133200,
1.041970,-1.140470,
1.016000,-1.143000,
-1.016000,-1.143000,
-1.041970,-1.140470,
-1.065980,-1.133200,
-1.087570,-1.121650,
-1.106290,-1.106290,
-1.121650,-1.087580,
-1.133200,-1.065980,
-1.140470,-1.041970,
-1.143000,-1.016000,
0*%
%ADD37PPAD031*%
%AMPPAD035*
4,1,4,
1.803400,-0.647700,
1.803400,0.647700,
-1.803400,0.647700,
-1.803400,-0.647700,
1.803400,-0.647700,
0*%
%ADD41PPAD035*%
%TA.AperFunction,Profile*%
%ADD20C,0.203200*%
%TD.AperFunction*%
D72*
X+2706019Y+1117192D03*
X+4325500Y+2555500D03*
X+5468500Y+3000000D03*
X+5943958Y+1039212D03*
X+4514186Y+986528D03*
D73*
X+3119000Y+2365000D03*
X+5860000Y+2510000D03*
X+3373000Y+2873000D03*
X+4812685Y+2879469D03*
X+5923934Y+2785649D03*
X+6560000Y+2350000D03*
X+5151000Y+4206500D03*
X+5849500Y+3952500D03*
X+4444540Y+1388734D03*
X+4733907Y+1316392D03*
D31*
X+641000Y+4876000D03*
X+260000Y+4622000D03*
X+641000Y+4622000D03*
X+260000Y+4368000D03*
X+641000Y+4368000D03*
X+260000Y+4114000D03*
X+641000Y+4114000D03*
X+260000Y+3860000D03*
X+641000Y+3860000D03*
X+260000Y+3606000D03*
X+641000Y+3606000D03*
X+260000Y+3352000D03*
X+641000Y+3352000D03*
X+260000Y+3098000D03*
X+641000Y+3098000D03*
X+260000Y+2844000D03*
X+641000Y+2844000D03*
X+260000Y+2590000D03*
X+641000Y+2590000D03*
X+260000Y+2336000D03*
X+641000Y+2336000D03*
X+260000Y+2082000D03*
X+641000Y+2082000D03*
X+260000Y+1828000D03*
X+641000Y+1828000D03*
X+260000Y+1574000D03*
X+641000Y+1574000D03*
X+260000Y+1320000D03*
X+641000Y+1320000D03*
X+260000Y+1066000D03*
X+641000Y+1066000D03*
X+260000Y+812000D03*
X+641000Y+812000D03*
X+260000Y+558000D03*
X+641000Y+558000D03*
X+260000Y+304000D03*
X+641000Y+304000D03*
X+6737000Y+4880000D03*
X+6356000Y+4626000D03*
X+6737000Y+4626000D03*
X+6356000Y+4372000D03*
X+6737000Y+4372000D03*
X+6356000Y+4118000D03*
X+6737000Y+4118000D03*
X+6356000Y+3864000D03*
X+6737000Y+3864000D03*
X+6356000Y+3610000D03*
X+6737000Y+3610000D03*
X+6356000Y+3356000D03*
X+6737000Y+3356000D03*
X+6356000Y+3102000D03*
X+6737000Y+3102000D03*
X+6356000Y+2848000D03*
X+6737000Y+2848000D03*
X+6356000Y+2594000D03*
X+6737000Y+2594000D03*
X+6356000Y+2340000D03*
X+6737000Y+2340000D03*
X+6356000Y+2086000D03*
X+6737000Y+2086000D03*
X+6356000Y+1832000D03*
X+6737000Y+1832000D03*
X+6356000Y+1578000D03*
X+6737000Y+1578000D03*
X+6356000Y+1324000D03*
X+6737000Y+1324000D03*
X+6356000Y+1070000D03*
X+6737000Y+1070000D03*
X+6356000Y+816000D03*
X+6737000Y+816000D03*
X+6356000Y+562000D03*
X+6737000Y+562000D03*
X+6356000Y+308000D03*
X+6737000Y+308000D03*
D32*
X+1290000Y+2540000D03*
D33*
X+1290000Y+2286000D03*
X+1290000Y+2032000D03*
X+1290000Y+1778000D03*
X+1290000Y+1524000D03*
X+1290000Y+1270000D03*
X+1290000Y+1016000D03*
X+1290000Y+762000D03*
X+1290000Y+508000D03*
X+1290000Y+254000D03*
X+2052000Y+254000D03*
X+2052000Y+508000D03*
X+2052000Y+762000D03*
X+2052000Y+1016000D03*
X+2052000Y+1270000D03*
X+2052000Y+1524000D03*
X+2052000Y+1778000D03*
X+2052000Y+2032000D03*
X+2052000Y+2286000D03*
X+2052000Y+2540000D03*
D32*
X+2500000Y+2500000D03*
D33*
X+2500000Y+2246000D03*
X+2500000Y+1992000D03*
X+2500000Y+1738000D03*
X+2500000Y+1484000D03*
X+2500000Y+1230000D03*
X+2500000Y+976000D03*
X+2500000Y+722000D03*
X+3262000Y+722000D03*
X+3262000Y+976000D03*
X+3262000Y+1230000D03*
X+3262000Y+1484000D03*
X+3262000Y+1738000D03*
X+3262000Y+1992000D03*
X+3262000Y+2246000D03*
X+3262000Y+2500000D03*
D39*
X+3000000Y+1750000D03*
X+3000000Y+1660000D03*
D34*
X+1668000Y+4530000D03*
X+1160000Y+4530000D03*
D35*
X+5850000Y+4520000D03*
X+5596000Y+4520000D03*
X+5342000Y+4520000D03*
X+5850000Y+3440000D03*
X+5596000Y+3440000D03*
X+5342000Y+3440000D03*
D36*
X+5420000Y+1110000D03*
X+5420000Y+910000D03*
X+5420000Y+710000D03*
X+5420000Y+510000D03*
D40*
X+1190000Y+4070000D03*
X+1620000Y+4070000D03*
X+5150000Y+5140000D03*
X+5580000Y+5140000D03*
X+5230000Y+2940000D03*
X+5660000Y+2940000D03*
D39*
X+5700000Y+970000D03*
X+5700000Y+1060000D03*
D36*
X+4740000Y+1110000D03*
X+4740000Y+910000D03*
X+4740000Y+710000D03*
X+4740000Y+510000D03*
X+4020000Y+1120000D03*
X+4020000Y+920000D03*
X+4020000Y+720000D03*
X+4020000Y+520000D03*
D39*
X+4230000Y+980000D03*
X+4230000Y+1070000D03*
D35*
X+1570000Y+5470000D03*
D37*
X+4540000Y+2930000D03*
X+4540000Y+3184000D03*
D36*
X+4600000Y+2410000D03*
X+4600000Y+2210000D03*
X+4600000Y+2010000D03*
X+4600000Y+1810000D03*
D35*
X+2300000Y+3310000D03*
X+2730000Y+3300000D03*
X+3140000Y+3310000D03*
X+3560000Y+3310000D03*
X+3980000Y+3300000D03*
X+3560000Y+2860000D03*
X+3970000Y+2860000D03*
X+3570000Y+2410000D03*
X+4000000Y+2420000D03*
X+3580000Y+1970000D03*
X+4000000Y+1990000D03*
X+4010000Y+1540000D03*
D40*
X+1040000Y+3530000D03*
X+1470000Y+3530000D03*
D41*
X+1810000Y+3030000D03*
X+1810000Y+3460000D03*
D40*
X+1390000Y+2840000D03*
X+960000Y+2840000D03*
D39*
X+1620000Y+2440000D03*
X+1710000Y+2440000D03*
D20*
X+0Y+0D02*
X+1650000Y+0D01*
X+7000000Y+0D02*
X+7000000Y+6000000D01*
X+5000000Y+6000000D01*
X+5000000Y+3700000D01*
X+4800000Y+3500000D01*
X+2200000Y+3500000D01*
X+2000000Y+3700000D02*
X+2000000Y+6000000D01*
X+0Y+6000000D01*
X+0Y+0D01*
X+2000000Y+3700000D02*
X+2200000Y+3500000D01*
X+5160000Y+0D02*
X+7000000Y+0D01*
X+1750000Y-200000D02*
X+5050000Y-200000D01*
X+1650000Y+0D02*
X+1750000Y-200000D01*
X+5160000Y+0D02*
X+5050000Y-200000D01*
X+4550045Y+50000D02*
X+4549508Y+63142D01*
X+4545144Y+89427D01*
X+4536029Y+115712D01*
X+4521182Y+141997D01*
X+4498470Y+168118D01*
X+4472185Y+187898D01*
X+4445900Y+200658D01*
X+4419615Y+208108D01*
X+4393330Y+210987D01*
X+4389000Y+211045D01*
X+4227955Y+50000D02*
X+4228492Y+63142D01*
X+4232856Y+89427D01*
X+4241971Y+115712D01*
X+4256818Y+141997D01*
X+4279530Y+168118D01*
X+4305815Y+187898D01*
X+4332100Y+200658D01*
X+4358385Y+208108D01*
X+4384670Y+210987D01*
X+4389000Y+211045D01*
X+4227955Y+50000D02*
X+4228492Y+36858D01*
X+4232856Y+10573D01*
X+4241971Y-15712D01*
X+4256818Y-41997D01*
X+4279530Y-68118D01*
X+4305815Y-87898D01*
X+4332100Y-100658D01*
X+4358385Y-108108D01*
X+4384670Y-110987D01*
X+4389000Y-111045D01*
X+4550045Y+50000D02*
X+4549508Y+36858D01*
X+4545144Y+10573D01*
X+4536029Y-15712D01*
X+4521182Y-41997D01*
X+4498470Y-68118D01*
X+4472185Y-87898D01*
X+4445900Y-100658D01*
X+4419615Y-108108D01*
X+4393330Y-110987D01*
X+4389000Y-111045D01*
X+6074045Y+5130000D02*
X+6073508Y+5143142D01*
X+6069144Y+5169427D01*
X+6060029Y+5195712D01*
X+6045182Y+5221997D01*
X+6022470Y+5248118D01*
X+5996185Y+5267898D01*
X+5969900Y+5280658D01*
X+5943615Y+5288108D01*
X+5917330Y+5290987D01*
X+5913000Y+5291045D01*
X+5751955Y+5130000D02*
X+5752492Y+5143142D01*
X+5756856Y+5169427D01*
X+5765971Y+5195712D01*
X+5780818Y+5221997D01*
X+5803530Y+5248118D01*
X+5829815Y+5267898D01*
X+5856100Y+5280658D01*
X+5882385Y+5288108D01*
X+5908670Y+5290987D01*
X+5913000Y+5291045D01*
X+5751955Y+5130000D02*
X+5752492Y+5116858D01*
X+5756856Y+5090573D01*
X+5765971Y+5064288D01*
X+5780818Y+5038003D01*
X+5803530Y+5011882D01*
X+5829815Y+4992102D01*
X+5856100Y+4979342D01*
X+5882385Y+4971892D01*
X+5908670Y+4969013D01*
X+5913000Y+4968955D01*
X+6074045Y+5130000D02*
X+6073508Y+5116858D01*
X+6069144Y+5090573D01*
X+6060029Y+5064288D01*
X+6045182Y+5038003D01*
X+6022470Y+5011882D01*
X+5996185Y+4992102D01*
X+5969900Y+4979342D01*
X+5943615Y+4971892D01*
X+5917330Y+4969013D01*
X+5913000Y+4968955D01*
X+1248045Y+5257000D02*
X+1247508Y+5270142D01*
X+1243144Y+5296427D01*
X+1234029Y+5322712D01*
X+1219182Y+5348997D01*
X+1196470Y+5375118D01*
X+1170185Y+5394898D01*
X+1143900Y+5407658D01*
X+1117615Y+5415108D01*
X+1091330Y+5417987D01*
X+1087000Y+5418045D01*
X+925955Y+5257000D02*
X+926492Y+5270142D01*
X+930856Y+5296427D01*
X+939971Y+5322712D01*
X+954818Y+5348997D01*
X+977530Y+5375118D01*
X+1003815Y+5394898D01*
X+1030100Y+5407658D01*
X+1056385Y+5415108D01*
X+1082670Y+5417987D01*
X+1087000Y+5418045D01*
X+925955Y+5257000D02*
X+926492Y+5243858D01*
X+930856Y+5217573D01*
X+939971Y+5191288D01*
X+954818Y+5165003D01*
X+977530Y+5138882D01*
X+1003815Y+5119102D01*
X+1030100Y+5106342D01*
X+1056385Y+5098892D01*
X+1082670Y+5096013D01*
X+1087000Y+5095955D01*
X+1248045Y+5257000D02*
X+1247508Y+5243858D01*
X+1243144Y+5217573D01*
X+1234029Y+5191288D01*
X+1219182Y+5165003D01*
X+1196470Y+5138882D01*
X+1170185Y+5119102D01*
X+1143900Y+5106342D01*
X+1117615Y+5098892D01*
X+1091330Y+5096013D01*
X+1087000Y+5095955D01*
M02*
