G04 PROTEUS GERBER X2 FILE*
%TF.GenerationSoftware,Labcenter,Proteus,8.12-SP2-Build31155*%
%TF.CreationDate,2022-12-03T19:28:30+00:00*%
%TF.FileFunction,Copper,L2,Bot*%
%TF.FilePolarity,Positive*%
%TF.Part,Single*%
%TF.SameCoordinates,{ab386329-c5d6-4b76-aca3-cb6d5b16447b}*%
%FSLAX45Y45*%
%MOMM*%
G01*
%TA.AperFunction,Conductor*%
%ADD10C,0.381000*%
%ADD21C,0.508000*%
%ADD11C,0.203200*%
%TA.AperFunction,ViaPad*%
%ADD12C,1.016000*%
%ADD13C,0.508000*%
%TA.AperFunction,Conductor*%
%ADD22C,0.254000*%
%TA.AperFunction,ComponentPad*%
%ADD15C,1.524000*%
%TA.AperFunction,ComponentPad*%
%ADD14R,1.270000X1.270000*%
%ADD16C,1.270000*%
%TA.AperFunction,SMDPad,CuDef*%
%ADD23R,0.609600X0.609600*%
%TA.AperFunction,ComponentPad*%
%ADD17C,3.048000*%
%TA.AperFunction,ComponentPad*%
%ADD18C,2.032000*%
%TA.AperFunction,WasherPad*%
%ADD19C,1.397000*%
%TA.AperFunction,SMDPad,CuDef*%
%ADD24R,1.295400X3.606800*%
%TA.AperFunction,ComponentPad*%
%ADD70R,2.032000X2.032000*%
%TA.AperFunction,SMDPad,CuDef*%
%ADD25R,3.606800X1.295400*%
%TA.AperFunction,Profile*%
%ADD20C,0.203200*%
%TD.AperFunction*%
G36*
X+1939040Y+3707857D02*
X+1715249Y+3931648D01*
X+1715249Y+4118740D01*
X+1720069Y+4123560D01*
X+1720069Y+4347121D01*
X+1743751Y+4347121D01*
X+1850879Y+4454249D01*
X+1850879Y+4605751D01*
X+1743751Y+4712879D01*
X+1592249Y+4712879D01*
X+1485121Y+4605751D01*
X+1485121Y+4454249D01*
X+1592249Y+4347121D01*
X+1615931Y+4347121D01*
X+1615931Y+4280819D01*
X+1524751Y+4280819D01*
X+1524751Y+3859181D01*
X+1640444Y+3859181D01*
X+1944376Y+3555249D01*
X+1599181Y+3555249D01*
X+1599181Y+3434627D01*
X+1565249Y+3400695D01*
X+1565249Y+3740819D01*
X+1374751Y+3740819D01*
X+1374751Y+3319181D01*
X+1483735Y+3319181D01*
X+1314623Y+3150069D01*
X+895205Y+3150069D01*
X+947067Y+3201931D01*
X+1061567Y+3201931D01*
X+1092069Y+3232433D01*
X+1092069Y+3319181D01*
X+1135249Y+3319181D01*
X+1135249Y+3740819D01*
X+944751Y+3740819D01*
X+944751Y+3582069D01*
X+747932Y+3582069D01*
X+747931Y+3582068D01*
X+747679Y+3582068D01*
X+747679Y+3650188D01*
X+685188Y+3712679D01*
X+596812Y+3712679D01*
X+534321Y+3650188D01*
X+534321Y+3561812D01*
X+596812Y+3499321D01*
X+674043Y+3499321D01*
X+695432Y+3477932D01*
X+747931Y+3477932D01*
X+747932Y+3477931D01*
X+944751Y+3477931D01*
X+944751Y+3319181D01*
X+987931Y+3319181D01*
X+987931Y+3306069D01*
X+903933Y+3306069D01*
X+747933Y+3150069D01*
X+739798Y+3150069D01*
X+685188Y+3204679D01*
X+596812Y+3204679D01*
X+534321Y+3142188D01*
X+534321Y+3053812D01*
X+596812Y+2991321D01*
X+685188Y+2991321D01*
X+739798Y+3045931D01*
X+864751Y+3045931D01*
X+864751Y+2896069D01*
X+739798Y+2896069D01*
X+685188Y+2950679D01*
X+596812Y+2950679D01*
X+534321Y+2888188D01*
X+534321Y+2799812D01*
X+596812Y+2737321D01*
X+685188Y+2737321D01*
X+739798Y+2791931D01*
X+864751Y+2791931D01*
X+864751Y+2629181D01*
X+1055249Y+2629181D01*
X+1055249Y+3045931D01*
X+1294751Y+3045931D01*
X+1294751Y+2633979D01*
X+1196021Y+2633979D01*
X+1196021Y+2446021D01*
X+1383979Y+2446021D01*
X+1383979Y+2629181D01*
X+1485249Y+2629181D01*
X+1485249Y+3050819D01*
X+1362645Y+3050819D01*
X+1676577Y+3364751D01*
X+2019280Y+3364751D01*
X+2019280Y+3125249D01*
X+1599181Y+3125249D01*
X+1599181Y+2934751D01*
X+2019280Y+2934751D01*
X+2019280Y+2633979D01*
X+2013073Y+2633979D01*
X+1958021Y+2578927D01*
X+1958021Y+2514352D01*
X+1956181Y+2512279D01*
X+1935971Y+2492069D01*
X+1770959Y+2492069D01*
X+1770959Y+2500959D01*
X+1559041Y+2500959D01*
X+1559041Y+2379041D01*
X+1770959Y+2379041D01*
X+1770959Y+2387931D01*
X+1979105Y+2387931D01*
X+2031702Y+2440528D01*
X+2036805Y+2446021D01*
X+2090927Y+2446021D01*
X+2145979Y+2501073D01*
X+2145979Y+2578927D01*
X+2123418Y+2601488D01*
X+2123418Y+3490372D01*
X+2174750Y+3439040D01*
X+2242252Y+3439040D01*
X+2167921Y+3364709D01*
X+2167921Y+3255291D01*
X+2245291Y+3177921D01*
X+2256821Y+3177921D01*
X+2256821Y+2297885D01*
X+2084915Y+2125979D01*
X+2013073Y+2125979D01*
X+1962273Y+2075179D01*
X+1561885Y+2075179D01*
X+1383979Y+2253085D01*
X+1383979Y+2324927D01*
X+1328927Y+2379979D01*
X+1251073Y+2379979D01*
X+1196021Y+2324927D01*
X+1196021Y+2253085D01*
X+749071Y+1806135D01*
X+749071Y+1703135D01*
X+705902Y+1659966D01*
X+685188Y+1680679D01*
X+596812Y+1680679D01*
X+534321Y+1618188D01*
X+534321Y+1529812D01*
X+596812Y+1467321D01*
X+685188Y+1467321D01*
X+747679Y+1529812D01*
X+747679Y+1579615D01*
X+835429Y+1667365D01*
X+835429Y+1770365D01*
X+1257085Y+2192021D01*
X+1322915Y+2192021D01*
X+1526115Y+1988821D01*
X+1962273Y+1988821D01*
X+2013073Y+1938021D01*
X+2090927Y+1938021D01*
X+2145979Y+1993073D01*
X+2145979Y+2064915D01*
X+2313821Y+2232757D01*
X+2313821Y+2100885D01*
X+2084915Y+1871979D01*
X+2013073Y+1871979D01*
X+1962273Y+1821179D01*
X+1561885Y+1821179D01*
X+1383979Y+1999085D01*
X+1383979Y+2070927D01*
X+1328927Y+2125979D01*
X+1251073Y+2125979D01*
X+1196021Y+2070927D01*
X+1196021Y+1999085D01*
X+795393Y+1598457D01*
X+795393Y+1495457D01*
X+705902Y+1405966D01*
X+685188Y+1426679D01*
X+596812Y+1426679D01*
X+534321Y+1364188D01*
X+534321Y+1275812D01*
X+535034Y+1275098D01*
X+472321Y+1212385D01*
X+472321Y+188115D01*
X+561115Y+99321D01*
X+3327385Y+99321D01*
X+3454385Y+226321D01*
X+4256620Y+226321D01*
X+4230059Y+205912D01*
X+4189444Y+149825D01*
X+4165228Y+50000D01*
X+4189444Y-49825D01*
X+4230059Y-105912D01*
X+4273174Y-139040D01*
X+1787675Y-139040D01*
X+1696780Y+42750D01*
X+1667316Y+60960D01*
X+60960Y+60960D01*
X+60960Y+5939040D01*
X+1939040Y+5939040D01*
X+1939040Y+3707857D01*
G37*
%LPC*%
G36*
X+1094718Y+5478514D02*
X+1143024Y+5472348D01*
X+1150368Y+5469369D01*
X+1197185Y+5450374D01*
X+1203745Y+5445334D01*
X+1245941Y+5412912D01*
X+1286556Y+5356825D01*
X+1310772Y+5257000D01*
X+1307286Y+5242629D01*
X+1286556Y+5157175D01*
X+1279517Y+5147454D01*
X+1245941Y+5101088D01*
X+1233182Y+5091284D01*
X+1197185Y+5063626D01*
X+1143024Y+5041652D01*
X+1135168Y+5040649D01*
X+1087000Y+5034501D01*
X+1030976Y+5041652D01*
X+1023632Y+5044631D01*
X+976815Y+5063626D01*
X+970255Y+5068666D01*
X+928059Y+5101088D01*
X+887444Y+5157175D01*
X+863228Y+5257000D01*
X+866714Y+5271371D01*
X+887444Y+5356825D01*
X+894483Y+5366546D01*
X+928059Y+5412912D01*
X+940818Y+5422716D01*
X+976815Y+5450374D01*
X+1030976Y+5472348D01*
X+1038832Y+5473351D01*
X+1087000Y+5479499D01*
X+1094718Y+5478514D01*
G37*
G36*
X+231594Y+4944579D02*
X+288406Y+4944579D01*
X+328579Y+4904406D01*
X+328579Y+4847594D01*
X+288406Y+4807421D01*
X+231594Y+4807421D01*
X+191421Y+4847594D01*
X+191421Y+4904406D01*
X+231594Y+4944579D01*
G37*
G36*
X+596812Y+4982679D02*
X+685188Y+4982679D01*
X+747679Y+4920188D01*
X+747679Y+4831812D01*
X+685188Y+4769321D01*
X+596812Y+4769321D01*
X+534321Y+4831812D01*
X+534321Y+4920188D01*
X+596812Y+4982679D01*
G37*
G36*
X+215812Y+4728679D02*
X+304188Y+4728679D01*
X+366679Y+4666188D01*
X+366679Y+4577812D01*
X+304188Y+4515321D01*
X+215812Y+4515321D01*
X+153321Y+4577812D01*
X+153321Y+4666188D01*
X+215812Y+4728679D01*
G37*
G36*
X+596812Y+4728679D02*
X+685188Y+4728679D01*
X+747679Y+4666188D01*
X+747679Y+4577812D01*
X+685188Y+4515321D01*
X+596812Y+4515321D01*
X+534321Y+4577812D01*
X+534321Y+4666188D01*
X+596812Y+4728679D01*
G37*
G36*
X+215812Y+4474679D02*
X+304188Y+4474679D01*
X+366679Y+4412188D01*
X+366679Y+4323812D01*
X+304188Y+4261321D01*
X+215812Y+4261321D01*
X+153321Y+4323812D01*
X+153321Y+4412188D01*
X+215812Y+4474679D01*
G37*
G36*
X+596812Y+4474679D02*
X+685188Y+4474679D01*
X+747679Y+4412188D01*
X+747679Y+4323812D01*
X+685188Y+4261321D01*
X+596812Y+4261321D01*
X+534321Y+4323812D01*
X+534321Y+4412188D01*
X+596812Y+4474679D01*
G37*
G36*
X+215812Y+4220679D02*
X+304188Y+4220679D01*
X+366679Y+4158188D01*
X+366679Y+4069812D01*
X+304188Y+4007321D01*
X+215812Y+4007321D01*
X+153321Y+4069812D01*
X+153321Y+4158188D01*
X+215812Y+4220679D01*
G37*
G36*
X+596812Y+4220679D02*
X+685188Y+4220679D01*
X+747679Y+4158188D01*
X+747679Y+4069812D01*
X+685188Y+4007321D01*
X+596812Y+4007321D01*
X+534321Y+4069812D01*
X+534321Y+4158188D01*
X+596812Y+4220679D01*
G37*
G36*
X+215812Y+3966679D02*
X+304188Y+3966679D01*
X+366679Y+3904188D01*
X+366679Y+3815812D01*
X+304188Y+3753321D01*
X+215812Y+3753321D01*
X+153321Y+3815812D01*
X+153321Y+3904188D01*
X+215812Y+3966679D01*
G37*
G36*
X+596812Y+3966679D02*
X+685188Y+3966679D01*
X+747679Y+3904188D01*
X+747679Y+3815812D01*
X+685188Y+3753321D01*
X+596812Y+3753321D01*
X+534321Y+3815812D01*
X+534321Y+3904188D01*
X+596812Y+3966679D01*
G37*
G36*
X+215812Y+3712679D02*
X+304188Y+3712679D01*
X+366679Y+3650188D01*
X+366679Y+3561812D01*
X+304188Y+3499321D01*
X+215812Y+3499321D01*
X+153321Y+3561812D01*
X+153321Y+3650188D01*
X+215812Y+3712679D01*
G37*
G36*
X+215812Y+3458679D02*
X+304188Y+3458679D01*
X+366679Y+3396188D01*
X+366679Y+3307812D01*
X+304188Y+3245321D01*
X+215812Y+3245321D01*
X+153321Y+3307812D01*
X+153321Y+3396188D01*
X+215812Y+3458679D01*
G37*
G36*
X+596812Y+3458679D02*
X+685188Y+3458679D01*
X+747679Y+3396188D01*
X+747679Y+3307812D01*
X+685188Y+3245321D01*
X+596812Y+3245321D01*
X+534321Y+3307812D01*
X+534321Y+3396188D01*
X+596812Y+3458679D01*
G37*
G36*
X+215812Y+3204679D02*
X+304188Y+3204679D01*
X+366679Y+3142188D01*
X+366679Y+3053812D01*
X+304188Y+2991321D01*
X+215812Y+2991321D01*
X+153321Y+3053812D01*
X+153321Y+3142188D01*
X+215812Y+3204679D01*
G37*
G36*
X+215812Y+2950679D02*
X+304188Y+2950679D01*
X+366679Y+2888188D01*
X+366679Y+2799812D01*
X+304188Y+2737321D01*
X+215812Y+2737321D01*
X+153321Y+2799812D01*
X+153321Y+2888188D01*
X+215812Y+2950679D01*
G37*
G36*
X+215812Y+2696679D02*
X+304188Y+2696679D01*
X+366679Y+2634188D01*
X+366679Y+2545812D01*
X+304188Y+2483321D01*
X+215812Y+2483321D01*
X+153321Y+2545812D01*
X+153321Y+2634188D01*
X+215812Y+2696679D01*
G37*
G36*
X+596812Y+2696679D02*
X+685188Y+2696679D01*
X+747679Y+2634188D01*
X+747679Y+2545812D01*
X+685188Y+2483321D01*
X+596812Y+2483321D01*
X+534321Y+2545812D01*
X+534321Y+2634188D01*
X+596812Y+2696679D01*
G37*
G36*
X+215812Y+2442679D02*
X+304188Y+2442679D01*
X+366679Y+2380188D01*
X+366679Y+2291812D01*
X+304188Y+2229321D01*
X+215812Y+2229321D01*
X+153321Y+2291812D01*
X+153321Y+2380188D01*
X+215812Y+2442679D01*
G37*
G36*
X+596812Y+2442679D02*
X+685188Y+2442679D01*
X+747679Y+2380188D01*
X+747679Y+2291812D01*
X+685188Y+2229321D01*
X+596812Y+2229321D01*
X+534321Y+2291812D01*
X+534321Y+2380188D01*
X+596812Y+2442679D01*
G37*
G36*
X+215812Y+2188679D02*
X+304188Y+2188679D01*
X+366679Y+2126188D01*
X+366679Y+2037812D01*
X+304188Y+1975321D01*
X+215812Y+1975321D01*
X+153321Y+2037812D01*
X+153321Y+2126188D01*
X+215812Y+2188679D01*
G37*
G36*
X+596812Y+2188679D02*
X+685188Y+2188679D01*
X+747679Y+2126188D01*
X+747679Y+2037812D01*
X+685188Y+1975321D01*
X+596812Y+1975321D01*
X+534321Y+2037812D01*
X+534321Y+2126188D01*
X+596812Y+2188679D01*
G37*
G36*
X+215812Y+1934679D02*
X+304188Y+1934679D01*
X+366679Y+1872188D01*
X+366679Y+1783812D01*
X+304188Y+1721321D01*
X+215812Y+1721321D01*
X+153321Y+1783812D01*
X+153321Y+1872188D01*
X+215812Y+1934679D01*
G37*
G36*
X+596812Y+1934679D02*
X+685188Y+1934679D01*
X+747679Y+1872188D01*
X+747679Y+1783812D01*
X+685188Y+1721321D01*
X+596812Y+1721321D01*
X+534321Y+1783812D01*
X+534321Y+1872188D01*
X+596812Y+1934679D01*
G37*
G36*
X+215812Y+1680679D02*
X+304188Y+1680679D01*
X+366679Y+1618188D01*
X+366679Y+1529812D01*
X+304188Y+1467321D01*
X+215812Y+1467321D01*
X+153321Y+1529812D01*
X+153321Y+1618188D01*
X+215812Y+1680679D01*
G37*
G36*
X+215812Y+1426679D02*
X+304188Y+1426679D01*
X+366679Y+1364188D01*
X+366679Y+1275812D01*
X+304188Y+1213321D01*
X+215812Y+1213321D01*
X+153321Y+1275812D01*
X+153321Y+1364188D01*
X+215812Y+1426679D01*
G37*
G36*
X+215812Y+1172679D02*
X+304188Y+1172679D01*
X+366679Y+1110188D01*
X+366679Y+1021812D01*
X+304188Y+959321D01*
X+215812Y+959321D01*
X+153321Y+1021812D01*
X+153321Y+1110188D01*
X+215812Y+1172679D01*
G37*
G36*
X+215812Y+918679D02*
X+304188Y+918679D01*
X+366679Y+856188D01*
X+366679Y+767812D01*
X+304188Y+705321D01*
X+215812Y+705321D01*
X+153321Y+767812D01*
X+153321Y+856188D01*
X+215812Y+918679D01*
G37*
G36*
X+215812Y+664679D02*
X+304188Y+664679D01*
X+366679Y+602188D01*
X+366679Y+513812D01*
X+304188Y+451321D01*
X+215812Y+451321D01*
X+153321Y+513812D01*
X+153321Y+602188D01*
X+215812Y+664679D01*
G37*
G36*
X+215812Y+410679D02*
X+304188Y+410679D01*
X+366679Y+348188D01*
X+366679Y+259812D01*
X+304188Y+197321D01*
X+215812Y+197321D01*
X+153321Y+259812D01*
X+153321Y+348188D01*
X+215812Y+410679D01*
G37*
G36*
X+2013073Y+2379979D02*
X+2090927Y+2379979D01*
X+2145979Y+2324927D01*
X+2145979Y+2247073D01*
X+2090927Y+2192021D01*
X+2013073Y+2192021D01*
X+1958021Y+2247073D01*
X+1958021Y+2324927D01*
X+2013073Y+2379979D01*
G37*
G36*
X+1342879Y+4605751D02*
X+1342879Y+4454249D01*
X+1235751Y+4347121D01*
X+1084249Y+4347121D01*
X+977121Y+4454249D01*
X+977121Y+4605751D01*
X+1084249Y+4712879D01*
X+1235751Y+4712879D01*
X+1342879Y+4605751D01*
G37*
G36*
X+1285249Y+3859181D02*
X+1094751Y+3859181D01*
X+1094751Y+4280819D01*
X+1285249Y+4280819D01*
X+1285249Y+3859181D01*
G37*
G36*
X+1437921Y+5415291D02*
X+1437921Y+5524709D01*
X+1515291Y+5602079D01*
X+1624709Y+5602079D01*
X+1702079Y+5524709D01*
X+1702079Y+5415291D01*
X+1624709Y+5337921D01*
X+1515291Y+5337921D01*
X+1437921Y+5415291D01*
G37*
%LPD*%
G36*
X+6939040Y+60960D02*
X+5143328Y+60960D01*
X+5114621Y+43986D01*
X+5013957Y-139040D01*
X+4504826Y-139040D01*
X+4547941Y-105912D01*
X+4588556Y-49825D01*
X+4612772Y+50000D01*
X+4588556Y+149825D01*
X+4547941Y+205912D01*
X+4521379Y+226321D01*
X+5387115Y+226321D01*
X+5514115Y+99321D01*
X+6819885Y+99321D01*
X+6908679Y+188115D01*
X+6908679Y+5049885D01*
X+6819885Y+5138679D01*
X+6212615Y+5138679D01*
X+6123821Y+5049885D01*
X+6123821Y+3774885D01*
X+5912862Y+3563926D01*
X+5904709Y+3572079D01*
X+5795291Y+3572079D01*
X+5723000Y+3499788D01*
X+5654419Y+3568369D01*
X+5654419Y+4391631D01*
X+5723000Y+4460212D01*
X+5795291Y+4387921D01*
X+5806821Y+4387921D01*
X+5806821Y+3988846D01*
X+5793621Y+3975646D01*
X+5793621Y+3929354D01*
X+5826354Y+3896621D01*
X+5872646Y+3896621D01*
X+5905379Y+3929354D01*
X+5905379Y+3975646D01*
X+5893179Y+3987846D01*
X+5893179Y+4387921D01*
X+5904709Y+4387921D01*
X+5982079Y+4465291D01*
X+5982079Y+4574709D01*
X+5904709Y+4652079D01*
X+5795291Y+4652079D01*
X+5723000Y+4579788D01*
X+5650709Y+4652079D01*
X+5632069Y+4652079D01*
X+5632069Y+4929181D01*
X+5675249Y+4929181D01*
X+5675249Y+5350819D01*
X+5484751Y+5350819D01*
X+5484751Y+4929181D01*
X+5527931Y+4929181D01*
X+5527931Y+4638719D01*
X+5469000Y+4579788D01*
X+5396709Y+4652079D01*
X+5287291Y+4652079D01*
X+5209921Y+4574709D01*
X+5209921Y+4465291D01*
X+5287291Y+4387921D01*
X+5396709Y+4387921D01*
X+5469000Y+4460212D01*
X+5537581Y+4391631D01*
X+5537581Y+3568369D01*
X+5469000Y+3499788D01*
X+5396709Y+3572079D01*
X+5287291Y+3572079D01*
X+5209921Y+3494709D01*
X+5209921Y+3385291D01*
X+5287291Y+3307921D01*
X+5396709Y+3307921D01*
X+5469000Y+3380212D01*
X+5541291Y+3307921D01*
X+5601581Y+3307921D01*
X+5601581Y+3150819D01*
X+5564751Y+3150819D01*
X+5564751Y+3052069D01*
X+5531377Y+3052069D01*
X+5502167Y+3081279D01*
X+5434833Y+3081279D01*
X+5387221Y+3033667D01*
X+5387221Y+2966333D01*
X+5434833Y+2918721D01*
X+5502167Y+2918721D01*
X+5531377Y+2947931D01*
X+5564751Y+2947931D01*
X+5564751Y+2729181D01*
X+5755249Y+2729181D01*
X+5755249Y+3150819D01*
X+5718419Y+3150819D01*
X+5718419Y+3375631D01*
X+5723000Y+3380212D01*
X+5795291Y+3307921D01*
X+5904709Y+3307921D01*
X+5982079Y+3385291D01*
X+5982079Y+3494709D01*
X+5973926Y+3502862D01*
X+6210179Y+3739115D01*
X+6210179Y+5014115D01*
X+6248385Y+5052321D01*
X+6784115Y+5052321D01*
X+6822321Y+5014115D01*
X+6822321Y+4945546D01*
X+6781188Y+4986679D01*
X+6692812Y+4986679D01*
X+6630321Y+4924188D01*
X+6630321Y+4835812D01*
X+6692812Y+4773321D01*
X+6781188Y+4773321D01*
X+6822321Y+4814454D01*
X+6822321Y+4691546D01*
X+6781188Y+4732679D01*
X+6692812Y+4732679D01*
X+6630321Y+4670188D01*
X+6630321Y+4581812D01*
X+6684457Y+4527676D01*
X+6586379Y+4429598D01*
X+6586379Y+2402646D01*
X+6583146Y+2405879D01*
X+6565185Y+2405879D01*
X+6447886Y+2523178D01*
X+6436045Y+2523178D01*
X+6462679Y+2549812D01*
X+6462679Y+2638188D01*
X+6400188Y+2700679D01*
X+6311812Y+2700679D01*
X+6249321Y+2638188D01*
X+6249321Y+2549812D01*
X+6275955Y+2523178D01*
X+6247469Y+2523178D01*
X+5979813Y+2790834D01*
X+5979813Y+2808795D01*
X+5947080Y+2841528D01*
X+5900788Y+2841528D01*
X+5868055Y+2808795D01*
X+5868055Y+2762503D01*
X+5900788Y+2729770D01*
X+5918749Y+2729770D01*
X+6211697Y+2436822D01*
X+6301955Y+2436822D01*
X+6249321Y+2384188D01*
X+6249321Y+2295812D01*
X+6311812Y+2233321D01*
X+6400188Y+2233321D01*
X+6462679Y+2295812D01*
X+6462679Y+2384188D01*
X+6410045Y+2436822D01*
X+6412114Y+2436822D01*
X+6504121Y+2344815D01*
X+6504121Y+2326854D01*
X+6536854Y+2294121D01*
X+6565695Y+2294121D01*
X+6432220Y+2160646D01*
X+6400188Y+2192679D01*
X+6311812Y+2192679D01*
X+6275098Y+2155966D01*
X+5915879Y+2515185D01*
X+5915879Y+2533146D01*
X+5883146Y+2565879D01*
X+5836854Y+2565879D01*
X+5804121Y+2533146D01*
X+5804121Y+2486854D01*
X+5836854Y+2454121D01*
X+5854815Y+2454121D01*
X+6249321Y+2059615D01*
X+6249321Y+2041812D01*
X+6311812Y+1979321D01*
X+6400188Y+1979321D01*
X+6421821Y+2000954D01*
X+6421821Y+1917046D01*
X+6400188Y+1938679D01*
X+6311812Y+1938679D01*
X+6249321Y+1876188D01*
X+6249321Y+1787812D01*
X+6311812Y+1725321D01*
X+6400188Y+1725321D01*
X+6421821Y+1746954D01*
X+6421821Y+1663046D01*
X+6400188Y+1684679D01*
X+6311812Y+1684679D01*
X+6249321Y+1622188D01*
X+6249321Y+1533812D01*
X+6298005Y+1485128D01*
X+6268429Y+1455552D01*
X+6209814Y+1455552D01*
X+6047092Y+1292830D01*
X+4789370Y+1292830D01*
X+4789786Y+1293246D01*
X+4789786Y+1339538D01*
X+4757053Y+1372271D01*
X+4751150Y+1372271D01*
X+4691508Y+1431913D01*
X+4480386Y+1431913D01*
X+4467686Y+1444613D01*
X+4421394Y+1444613D01*
X+4388661Y+1411880D01*
X+4388661Y+1365588D01*
X+4421394Y+1332855D01*
X+4467686Y+1332855D01*
X+4480386Y+1345555D01*
X+4655738Y+1345555D01*
X+4678028Y+1323265D01*
X+4678028Y+1293246D01*
X+4678444Y+1292830D01*
X+4417621Y+1292830D01*
X+4392327Y+1267536D01*
X+4392327Y+946786D01*
X+4374277Y+928736D01*
X+4290959Y+928736D01*
X+4290959Y+1130959D01*
X+4282069Y+1130959D01*
X+4282069Y+2311433D01*
X+4377569Y+2406933D01*
X+4377569Y+2492623D01*
X+4406779Y+2521833D01*
X+4406779Y+2589167D01*
X+4359167Y+2636779D01*
X+4307843Y+2636779D01*
X+4468985Y+2797921D01*
X+4672079Y+2797921D01*
X+4672079Y+2821845D01*
X+4816125Y+2821845D01*
X+4817870Y+2823590D01*
X+4835831Y+2823590D01*
X+4868564Y+2856323D01*
X+4868564Y+2902615D01*
X+4835831Y+2935348D01*
X+4789539Y+2935348D01*
X+4762394Y+2908203D01*
X+4672079Y+2908203D01*
X+4672079Y+3316079D01*
X+4407921Y+3316079D01*
X+4407921Y+2858985D01*
X+4142603Y+2593667D01*
X+3692603Y+2593667D01*
X+3632862Y+2533926D01*
X+3624709Y+2542079D01*
X+3515291Y+2542079D01*
X+3437921Y+2464709D01*
X+3437921Y+2355291D01*
X+3446074Y+2347138D01*
X+3355979Y+2257043D01*
X+3355979Y+2284927D01*
X+3300927Y+2339979D01*
X+3223073Y+2339979D01*
X+3168021Y+2284927D01*
X+3168021Y+2244639D01*
X+3152730Y+2244639D01*
X+2781270Y+1873179D01*
X+2340115Y+1873179D01*
X+2084915Y+1617979D01*
X+2013073Y+1617979D01*
X+1962273Y+1567179D01*
X+1561885Y+1567179D01*
X+1383979Y+1745085D01*
X+1383979Y+1816927D01*
X+1328927Y+1871979D01*
X+1251073Y+1871979D01*
X+1196021Y+1816927D01*
X+1196021Y+1739073D01*
X+1251073Y+1684021D01*
X+1322915Y+1684021D01*
X+1526115Y+1480821D01*
X+1962273Y+1480821D01*
X+2013073Y+1430021D01*
X+2090927Y+1430021D01*
X+2145979Y+1485073D01*
X+2145979Y+1556915D01*
X+2375885Y+1786821D01*
X+2415915Y+1786821D01*
X+2406021Y+1776927D01*
X+2406021Y+1699073D01*
X+2461073Y+1644021D01*
X+2538927Y+1644021D01*
X+2593979Y+1699073D01*
X+2593979Y+1776927D01*
X+2584085Y+1786821D01*
X+2817040Y+1786821D01*
X+3170615Y+2140396D01*
X+3204189Y+2106822D01*
X+3327886Y+2106822D01*
X+3507138Y+2286074D01*
X+3515291Y+2277921D01*
X+3624709Y+2277921D01*
X+3702079Y+2355291D01*
X+3702079Y+2464709D01*
X+3693926Y+2472862D01*
X+3728373Y+2507309D01*
X+3900521Y+2507309D01*
X+3867921Y+2474709D01*
X+3867921Y+2365291D01*
X+3945291Y+2287921D01*
X+3956821Y+2287921D01*
X+3956821Y+2122079D01*
X+3945291Y+2122079D01*
X+3867921Y+2044709D01*
X+3867921Y+1935291D01*
X+3945291Y+1857921D01*
X+4054709Y+1857921D01*
X+4132079Y+1935291D01*
X+4132079Y+2044709D01*
X+4054709Y+2122079D01*
X+4043179Y+2122079D01*
X+4043179Y+2287921D01*
X+4054709Y+2287921D01*
X+4132079Y+2365291D01*
X+4132079Y+2474709D01*
X+4099479Y+2507309D01*
X+4178373Y+2507309D01*
X+4244221Y+2573157D01*
X+4244221Y+2521833D01*
X+4273431Y+2492623D01*
X+4273431Y+2450067D01*
X+4177931Y+2354567D01*
X+4177931Y+1130959D01*
X+4169041Y+1130959D01*
X+4169041Y+1122069D01*
X+4120329Y+1122069D01*
X+4120329Y+1161558D01*
X+4061558Y+1220329D01*
X+3978442Y+1220329D01*
X+3963179Y+1205066D01*
X+3963179Y+1407921D01*
X+4064709Y+1407921D01*
X+4142079Y+1485291D01*
X+4142079Y+1594709D01*
X+4064709Y+1672079D01*
X+3955291Y+1672079D01*
X+3877921Y+1594709D01*
X+3877921Y+1583179D01*
X+3708385Y+1583179D01*
X+3623179Y+1668385D01*
X+3623179Y+1837921D01*
X+3634709Y+1837921D01*
X+3712079Y+1915291D01*
X+3712079Y+2024709D01*
X+3634709Y+2102079D01*
X+3525291Y+2102079D01*
X+3447921Y+2024709D01*
X+3447921Y+1915291D01*
X+3525291Y+1837921D01*
X+3536821Y+1837921D01*
X+3536821Y+1632615D01*
X+3672615Y+1496821D01*
X+3877921Y+1496821D01*
X+3877921Y+1485291D01*
X+3896066Y+1467146D01*
X+3896013Y+1467077D01*
X+3876821Y+1447885D01*
X+3876821Y+802115D01*
X+3919671Y+759265D01*
X+3919671Y+678442D01*
X+3978113Y+620000D01*
X+3919671Y+561558D01*
X+3919671Y+478442D01*
X+3978442Y+419671D01*
X+4061558Y+419671D01*
X+4120329Y+478442D01*
X+4120329Y+561558D01*
X+4061887Y+620000D01*
X+4120329Y+678442D01*
X+4120329Y+761558D01*
X+4061887Y+820000D01*
X+4084265Y+842378D01*
X+4410047Y+842378D01*
X+4478685Y+911016D01*
X+4478685Y+1206472D01*
X+4694585Y+1206472D01*
X+4639671Y+1151558D01*
X+4639671Y+1068442D01*
X+4698113Y+1010000D01*
X+4639671Y+951558D01*
X+4639671Y+868442D01*
X+4698113Y+810000D01*
X+4639671Y+751558D01*
X+4639671Y+668442D01*
X+4698113Y+610000D01*
X+4639671Y+551558D01*
X+4639671Y+468442D01*
X+4698442Y+409671D01*
X+4781558Y+409671D01*
X+4840329Y+468442D01*
X+4840329Y+551558D01*
X+4781887Y+610000D01*
X+4840329Y+668442D01*
X+4840329Y+751558D01*
X+4781887Y+810000D01*
X+4792444Y+820556D01*
X+4847939Y+765061D01*
X+5333174Y+765061D01*
X+5319671Y+751558D01*
X+5319671Y+668442D01*
X+5378113Y+610000D01*
X+5319671Y+551558D01*
X+5319671Y+468442D01*
X+5378442Y+409671D01*
X+5461558Y+409671D01*
X+5520329Y+468442D01*
X+5520329Y+551558D01*
X+5461887Y+610000D01*
X+5518708Y+666821D01*
X+6309954Y+666821D01*
X+6249321Y+606188D01*
X+6249321Y+517812D01*
X+6311812Y+455321D01*
X+6400188Y+455321D01*
X+6462679Y+517812D01*
X+6462679Y+606188D01*
X+6402046Y+666821D01*
X+6648885Y+666821D01*
X+6692098Y+710034D01*
X+6692812Y+709321D01*
X+6781188Y+709321D01*
X+6822321Y+750454D01*
X+6822321Y+627546D01*
X+6781188Y+668679D01*
X+6692812Y+668679D01*
X+6630321Y+606188D01*
X+6630321Y+517812D01*
X+6692812Y+455321D01*
X+6781188Y+455321D01*
X+6822321Y+496454D01*
X+6822321Y+373546D01*
X+6781188Y+414679D01*
X+6692812Y+414679D01*
X+6630321Y+352188D01*
X+6630321Y+263812D01*
X+6692812Y+201321D01*
X+6781188Y+201321D01*
X+6822321Y+242454D01*
X+6822321Y+223885D01*
X+6784115Y+185679D01*
X+5549885Y+185679D01*
X+5422885Y+312679D01*
X+3418615Y+312679D01*
X+3291615Y+185679D01*
X+2116585Y+185679D01*
X+2145979Y+215073D01*
X+2145979Y+292927D01*
X+2090927Y+347979D01*
X+2013073Y+347979D01*
X+1958021Y+292927D01*
X+1958021Y+215073D01*
X+1987415Y+185679D01*
X+1354585Y+185679D01*
X+1383979Y+215073D01*
X+1383979Y+292927D01*
X+1328927Y+347979D01*
X+1251073Y+347979D01*
X+1196021Y+292927D01*
X+1196021Y+215073D01*
X+1225415Y+185679D01*
X+596885Y+185679D01*
X+558679Y+223885D01*
X+558679Y+235454D01*
X+596812Y+197321D01*
X+685188Y+197321D01*
X+747679Y+259812D01*
X+747679Y+348188D01*
X+685188Y+410679D01*
X+596812Y+410679D01*
X+558679Y+372546D01*
X+558679Y+489454D01*
X+596812Y+451321D01*
X+685188Y+451321D01*
X+747679Y+513812D01*
X+747679Y+602188D01*
X+685188Y+664679D01*
X+596812Y+664679D01*
X+558679Y+626546D01*
X+558679Y+743454D01*
X+596812Y+705321D01*
X+685188Y+705321D01*
X+747679Y+767812D01*
X+747679Y+856188D01*
X+685188Y+918679D01*
X+596812Y+918679D01*
X+558679Y+880546D01*
X+558679Y+997454D01*
X+596812Y+959321D01*
X+685188Y+959321D01*
X+747679Y+1021812D01*
X+747679Y+1110188D01*
X+685188Y+1172679D01*
X+596812Y+1172679D01*
X+558679Y+1134546D01*
X+558679Y+1176615D01*
X+596098Y+1214034D01*
X+596812Y+1213321D01*
X+685188Y+1213321D01*
X+747679Y+1275812D01*
X+747679Y+1325615D01*
X+881751Y+1459687D01*
X+881751Y+1562687D01*
X+1257085Y+1938021D01*
X+1322915Y+1938021D01*
X+1526115Y+1734821D01*
X+1962273Y+1734821D01*
X+2013073Y+1684021D01*
X+2090927Y+1684021D01*
X+2145979Y+1739073D01*
X+2145979Y+1810915D01*
X+2400179Y+2065115D01*
X+2400179Y+2283615D01*
X+2438385Y+2321821D01*
X+2442915Y+2321821D01*
X+2406021Y+2284927D01*
X+2406021Y+2207073D01*
X+2456821Y+2156273D01*
X+2456821Y+2081727D01*
X+2406021Y+2030927D01*
X+2406021Y+1953073D01*
X+2461073Y+1898021D01*
X+2538927Y+1898021D01*
X+2593979Y+1953073D01*
X+2593979Y+2030927D01*
X+2543179Y+2081727D01*
X+2543179Y+2156273D01*
X+2593979Y+2207073D01*
X+2593979Y+2284927D01*
X+2557085Y+2321821D01*
X+2628885Y+2321821D01*
X+2773179Y+2466115D01*
X+2773179Y+3167921D01*
X+2784709Y+3167921D01*
X+2862079Y+3245291D01*
X+2862079Y+3354709D01*
X+2784709Y+3432079D01*
X+2675291Y+3432079D01*
X+2597921Y+3354709D01*
X+2597921Y+3245291D01*
X+2675291Y+3167921D01*
X+2686821Y+3167921D01*
X+2686821Y+2501885D01*
X+2593979Y+2409043D01*
X+2593979Y+2593979D01*
X+2406021Y+2593979D01*
X+2406021Y+2408179D01*
X+2402615Y+2408179D01*
X+2343179Y+2348743D01*
X+2343179Y+3177921D01*
X+2354709Y+3177921D01*
X+2432079Y+3255291D01*
X+2432079Y+3364709D01*
X+2357748Y+3439040D01*
X+3082252Y+3439040D01*
X+3007921Y+3364709D01*
X+3007921Y+3255291D01*
X+3085291Y+3177921D01*
X+3096821Y+3177921D01*
X+3096821Y+2420879D01*
X+3095854Y+2420879D01*
X+3063121Y+2388146D01*
X+3063121Y+2341854D01*
X+3095854Y+2309121D01*
X+3142146Y+2309121D01*
X+3174879Y+2341854D01*
X+3174879Y+2359815D01*
X+3183179Y+2368115D01*
X+3183179Y+2445915D01*
X+3223073Y+2406021D01*
X+3300927Y+2406021D01*
X+3355979Y+2461073D01*
X+3355979Y+2538927D01*
X+3300927Y+2593979D01*
X+3223073Y+2593979D01*
X+3183179Y+2554085D01*
X+3183179Y+3177921D01*
X+3194709Y+3177921D01*
X+3272079Y+3255291D01*
X+3272079Y+3364709D01*
X+3197748Y+3439040D01*
X+3502252Y+3439040D01*
X+3427921Y+3364709D01*
X+3427921Y+3255291D01*
X+3505291Y+3177921D01*
X+3614709Y+3177921D01*
X+3692079Y+3255291D01*
X+3692079Y+3364709D01*
X+3617748Y+3439040D01*
X+4825250Y+3439040D01*
X+5060960Y+3674750D01*
X+5060960Y+4929181D01*
X+5245249Y+4929181D01*
X+5245249Y+5350819D01*
X+5060960Y+5350819D01*
X+5060960Y+5939040D01*
X+6939040Y+5939040D01*
X+6939040Y+60960D01*
G37*
%LPC*%
G36*
X+5920718Y+5351514D02*
X+5969024Y+5345348D01*
X+5976368Y+5342369D01*
X+6023185Y+5323374D01*
X+6029745Y+5318334D01*
X+6071941Y+5285912D01*
X+6112556Y+5229825D01*
X+6136772Y+5130000D01*
X+6133286Y+5115629D01*
X+6112556Y+5030175D01*
X+6105517Y+5020454D01*
X+6071941Y+4974088D01*
X+6059182Y+4964284D01*
X+6023185Y+4936626D01*
X+5969024Y+4914652D01*
X+5961168Y+4913649D01*
X+5913000Y+4907501D01*
X+5856976Y+4914652D01*
X+5849632Y+4917631D01*
X+5802815Y+4936626D01*
X+5796255Y+4941666D01*
X+5754059Y+4974088D01*
X+5713444Y+5030175D01*
X+5689228Y+5130000D01*
X+5692714Y+5144371D01*
X+5713444Y+5229825D01*
X+5720483Y+5239546D01*
X+5754059Y+5285912D01*
X+5766818Y+5295716D01*
X+5802815Y+5323374D01*
X+5856976Y+5345348D01*
X+5864832Y+5346351D01*
X+5913000Y+5352499D01*
X+5920718Y+5351514D01*
G37*
G36*
X+6327594Y+4948579D02*
X+6384406Y+4948579D01*
X+6424579Y+4908406D01*
X+6424579Y+4851594D01*
X+6384406Y+4811421D01*
X+6327594Y+4811421D01*
X+6287421Y+4851594D01*
X+6287421Y+4908406D01*
X+6327594Y+4948579D01*
G37*
G36*
X+6311812Y+4732679D02*
X+6400188Y+4732679D01*
X+6462679Y+4670188D01*
X+6462679Y+4581812D01*
X+6400188Y+4519321D01*
X+6311812Y+4519321D01*
X+6249321Y+4581812D01*
X+6249321Y+4670188D01*
X+6311812Y+4732679D01*
G37*
G36*
X+6311812Y+4478679D02*
X+6400188Y+4478679D01*
X+6462679Y+4416188D01*
X+6462679Y+4327812D01*
X+6400188Y+4265321D01*
X+6311812Y+4265321D01*
X+6249321Y+4327812D01*
X+6249321Y+4416188D01*
X+6311812Y+4478679D01*
G37*
G36*
X+6311812Y+4224679D02*
X+6400188Y+4224679D01*
X+6462679Y+4162188D01*
X+6462679Y+4073812D01*
X+6400188Y+4011321D01*
X+6311812Y+4011321D01*
X+6249321Y+4073812D01*
X+6249321Y+4162188D01*
X+6311812Y+4224679D01*
G37*
G36*
X+6311812Y+3970679D02*
X+6400188Y+3970679D01*
X+6462679Y+3908188D01*
X+6462679Y+3819812D01*
X+6400188Y+3757321D01*
X+6311812Y+3757321D01*
X+6249321Y+3819812D01*
X+6249321Y+3908188D01*
X+6311812Y+3970679D01*
G37*
G36*
X+6311812Y+3716679D02*
X+6400188Y+3716679D01*
X+6462679Y+3654188D01*
X+6462679Y+3565812D01*
X+6400188Y+3503321D01*
X+6311812Y+3503321D01*
X+6249321Y+3565812D01*
X+6249321Y+3654188D01*
X+6311812Y+3716679D01*
G37*
G36*
X+6311812Y+3462679D02*
X+6400188Y+3462679D01*
X+6462679Y+3400188D01*
X+6462679Y+3311812D01*
X+6400188Y+3249321D01*
X+6311812Y+3249321D01*
X+6249321Y+3311812D01*
X+6249321Y+3400188D01*
X+6311812Y+3462679D01*
G37*
G36*
X+6311812Y+3208679D02*
X+6400188Y+3208679D01*
X+6462679Y+3146188D01*
X+6462679Y+3057812D01*
X+6400188Y+2995321D01*
X+6311812Y+2995321D01*
X+6249321Y+3057812D01*
X+6249321Y+3146188D01*
X+6311812Y+3208679D01*
G37*
G36*
X+6311812Y+2954679D02*
X+6400188Y+2954679D01*
X+6462679Y+2892188D01*
X+6462679Y+2803812D01*
X+6400188Y+2741321D01*
X+6311812Y+2741321D01*
X+6249321Y+2803812D01*
X+6249321Y+2892188D01*
X+6311812Y+2954679D01*
G37*
G36*
X+6311812Y+414679D02*
X+6400188Y+414679D01*
X+6462679Y+352188D01*
X+6462679Y+263812D01*
X+6400188Y+201321D01*
X+6311812Y+201321D01*
X+6249321Y+263812D01*
X+6249321Y+352188D01*
X+6311812Y+414679D01*
G37*
G36*
X+1251073Y+1617979D02*
X+1328927Y+1617979D01*
X+1383979Y+1562927D01*
X+1383979Y+1485073D01*
X+1328927Y+1430021D01*
X+1251073Y+1430021D01*
X+1196021Y+1485073D01*
X+1196021Y+1562927D01*
X+1251073Y+1617979D01*
G37*
G36*
X+1251073Y+1363979D02*
X+1328927Y+1363979D01*
X+1383979Y+1308927D01*
X+1383979Y+1231073D01*
X+1328927Y+1176021D01*
X+1251073Y+1176021D01*
X+1196021Y+1231073D01*
X+1196021Y+1308927D01*
X+1251073Y+1363979D01*
G37*
G36*
X+1251073Y+1109979D02*
X+1328927Y+1109979D01*
X+1383979Y+1054927D01*
X+1383979Y+977073D01*
X+1328927Y+922021D01*
X+1251073Y+922021D01*
X+1196021Y+977073D01*
X+1196021Y+1054927D01*
X+1251073Y+1109979D01*
G37*
G36*
X+1251073Y+855979D02*
X+1328927Y+855979D01*
X+1383979Y+800927D01*
X+1383979Y+723073D01*
X+1328927Y+668021D01*
X+1251073Y+668021D01*
X+1196021Y+723073D01*
X+1196021Y+800927D01*
X+1251073Y+855979D01*
G37*
G36*
X+1251073Y+601979D02*
X+1328927Y+601979D01*
X+1383979Y+546927D01*
X+1383979Y+469073D01*
X+1328927Y+414021D01*
X+1251073Y+414021D01*
X+1196021Y+469073D01*
X+1196021Y+546927D01*
X+1251073Y+601979D01*
G37*
G36*
X+2013073Y+601979D02*
X+2090927Y+601979D01*
X+2145979Y+546927D01*
X+2145979Y+469073D01*
X+2090927Y+414021D01*
X+2013073Y+414021D01*
X+1958021Y+469073D01*
X+1958021Y+546927D01*
X+2013073Y+601979D01*
G37*
G36*
X+2013073Y+855979D02*
X+2090927Y+855979D01*
X+2145979Y+800927D01*
X+2145979Y+723073D01*
X+2090927Y+668021D01*
X+2013073Y+668021D01*
X+1958021Y+723073D01*
X+1958021Y+800927D01*
X+2013073Y+855979D01*
G37*
G36*
X+2013073Y+1109979D02*
X+2090927Y+1109979D01*
X+2145979Y+1054927D01*
X+2145979Y+977073D01*
X+2090927Y+922021D01*
X+2013073Y+922021D01*
X+1958021Y+977073D01*
X+1958021Y+1054927D01*
X+2013073Y+1109979D01*
G37*
G36*
X+2013073Y+1363979D02*
X+2090927Y+1363979D01*
X+2145979Y+1308927D01*
X+2145979Y+1231073D01*
X+2090927Y+1176021D01*
X+2013073Y+1176021D01*
X+1958021Y+1231073D01*
X+1958021Y+1308927D01*
X+2013073Y+1363979D01*
G37*
G36*
X+2461073Y+1577979D02*
X+2538927Y+1577979D01*
X+2593979Y+1522927D01*
X+2593979Y+1445073D01*
X+2538927Y+1390021D01*
X+2461073Y+1390021D01*
X+2406021Y+1445073D01*
X+2406021Y+1522927D01*
X+2461073Y+1577979D01*
G37*
G36*
X+2461073Y+1323979D02*
X+2538927Y+1323979D01*
X+2593979Y+1268927D01*
X+2593979Y+1191073D01*
X+2538927Y+1136021D01*
X+2461073Y+1136021D01*
X+2406021Y+1191073D01*
X+2406021Y+1268927D01*
X+2461073Y+1323979D01*
G37*
G36*
X+2461073Y+1069979D02*
X+2538927Y+1069979D01*
X+2593979Y+1014927D01*
X+2593979Y+937073D01*
X+2538927Y+882021D01*
X+2461073Y+882021D01*
X+2406021Y+937073D01*
X+2406021Y+1014927D01*
X+2461073Y+1069979D01*
G37*
G36*
X+2461073Y+815979D02*
X+2538927Y+815979D01*
X+2593979Y+760927D01*
X+2593979Y+683073D01*
X+2538927Y+628021D01*
X+2461073Y+628021D01*
X+2406021Y+683073D01*
X+2406021Y+760927D01*
X+2461073Y+815979D01*
G37*
G36*
X+3223073Y+815979D02*
X+3300927Y+815979D01*
X+3355979Y+760927D01*
X+3355979Y+683073D01*
X+3300927Y+628021D01*
X+3223073Y+628021D01*
X+3168021Y+683073D01*
X+3168021Y+760927D01*
X+3223073Y+815979D01*
G37*
G36*
X+3223073Y+1069979D02*
X+3300927Y+1069979D01*
X+3355979Y+1014927D01*
X+3355979Y+937073D01*
X+3300927Y+882021D01*
X+3223073Y+882021D01*
X+3168021Y+937073D01*
X+3168021Y+1014927D01*
X+3223073Y+1069979D01*
G37*
G36*
X+3223073Y+1323979D02*
X+3300927Y+1323979D01*
X+3355979Y+1268927D01*
X+3355979Y+1191073D01*
X+3300927Y+1136021D01*
X+3223073Y+1136021D01*
X+3168021Y+1191073D01*
X+3168021Y+1268927D01*
X+3223073Y+1323979D01*
G37*
G36*
X+3223073Y+1577979D02*
X+3300927Y+1577979D01*
X+3355979Y+1522927D01*
X+3355979Y+1445073D01*
X+3300927Y+1390021D01*
X+3223073Y+1390021D01*
X+3168021Y+1445073D01*
X+3168021Y+1522927D01*
X+3223073Y+1577979D01*
G37*
G36*
X+3223073Y+1831979D02*
X+3300927Y+1831979D01*
X+3355979Y+1776927D01*
X+3355979Y+1699073D01*
X+3300927Y+1644021D01*
X+3223073Y+1644021D01*
X+3168021Y+1699073D01*
X+3168021Y+1776927D01*
X+3223073Y+1831979D01*
G37*
G36*
X+3223073Y+2085979D02*
X+3300927Y+2085979D01*
X+3355979Y+2030927D01*
X+3355979Y+1953073D01*
X+3300927Y+1898021D01*
X+3223073Y+1898021D01*
X+3168021Y+1953073D01*
X+3168021Y+2030927D01*
X+3223073Y+2085979D01*
G37*
G36*
X+3060959Y+1689041D02*
X+3060959Y+1599041D01*
X+3012677Y+1599041D01*
X+2899199Y+1485563D01*
X+2899199Y+1330810D01*
X+2758088Y+1189699D01*
X+2758088Y+1180069D01*
X+2787298Y+1150859D01*
X+2787298Y+1083525D01*
X+2739686Y+1035913D01*
X+2672352Y+1035913D01*
X+2624740Y+1083525D01*
X+2624740Y+1150859D01*
X+2653950Y+1180069D01*
X+2653950Y+1232833D01*
X+2795061Y+1373944D01*
X+2795061Y+1528697D01*
X+2939041Y+1672677D01*
X+2939041Y+1810959D01*
X+3060959Y+1810959D01*
X+3060959Y+1689041D01*
G37*
G36*
X+5325249Y+2729181D02*
X+5134751Y+2729181D01*
X+5134751Y+3150819D01*
X+5325249Y+3150819D01*
X+5325249Y+2729181D01*
G37*
G36*
X+4700329Y+2451558D02*
X+4700329Y+2368442D01*
X+4641887Y+2310000D01*
X+4700329Y+2251558D01*
X+4700329Y+2168442D01*
X+4641887Y+2110000D01*
X+4700329Y+2051558D01*
X+4700329Y+1968442D01*
X+4641887Y+1910000D01*
X+4700329Y+1851558D01*
X+4700329Y+1768442D01*
X+4641558Y+1709671D01*
X+4558442Y+1709671D01*
X+4499671Y+1768442D01*
X+4499671Y+1851558D01*
X+4558113Y+1910000D01*
X+4499671Y+1968442D01*
X+4499671Y+2051558D01*
X+4558113Y+2110000D01*
X+4499671Y+2168442D01*
X+4499671Y+2251558D01*
X+4558113Y+2310000D01*
X+4499671Y+2368442D01*
X+4499671Y+2451558D01*
X+4558442Y+2510329D01*
X+4641558Y+2510329D01*
X+4700329Y+2451558D01*
G37*
G36*
X+5206879Y+4229646D02*
X+5206879Y+4183354D01*
X+5194179Y+4170654D01*
X+5194179Y+3426615D01*
X+5105385Y+3337821D01*
X+4216385Y+3337821D01*
X+4178179Y+3299615D01*
X+4178179Y+3007115D01*
X+4093926Y+2922862D01*
X+4102079Y+2914709D01*
X+4102079Y+2805291D01*
X+4024709Y+2727921D01*
X+3915291Y+2727921D01*
X+3837921Y+2805291D01*
X+3837921Y+2914709D01*
X+3915291Y+2992079D01*
X+4024709Y+2992079D01*
X+4032862Y+2983926D01*
X+4091821Y+3042885D01*
X+4091821Y+3225033D01*
X+4034709Y+3167921D01*
X+3925291Y+3167921D01*
X+3847921Y+3245291D01*
X+3847921Y+3354709D01*
X+3925291Y+3432079D01*
X+4034709Y+3432079D01*
X+4111612Y+3355176D01*
X+4180615Y+3424179D01*
X+5069615Y+3424179D01*
X+5107821Y+3462385D01*
X+5107821Y+4170654D01*
X+5095121Y+4183354D01*
X+5095121Y+4229646D01*
X+5127854Y+4262379D01*
X+5174146Y+4262379D01*
X+5206879Y+4229646D01*
G37*
G36*
X+3692079Y+2914709D02*
X+3692079Y+2805291D01*
X+3614709Y+2727921D01*
X+3505291Y+2727921D01*
X+3427921Y+2805291D01*
X+3427921Y+2816822D01*
X+3368114Y+2816822D01*
X+3367815Y+2817121D01*
X+3349854Y+2817121D01*
X+3317121Y+2849854D01*
X+3317121Y+2896146D01*
X+3349854Y+2928879D01*
X+3396146Y+2928879D01*
X+3421847Y+2903178D01*
X+3427921Y+2903178D01*
X+3427921Y+2914709D01*
X+3505291Y+2992079D01*
X+3614709Y+2992079D01*
X+3692079Y+2914709D01*
G37*
G36*
X+4482436Y+973377D02*
X+4482436Y+999679D01*
X+4501035Y+1018278D01*
X+4527337Y+1018278D01*
X+4545936Y+999679D01*
X+4545936Y+973377D01*
X+4527337Y+954778D01*
X+4501035Y+954778D01*
X+4482436Y+973377D01*
G37*
%LPD*%
G36*
X+6249321Y+1368188D02*
X+6249321Y+1279812D01*
X+6302161Y+1226972D01*
X+6246945Y+1226972D01*
X+5973152Y+953179D01*
X+5760959Y+953179D01*
X+5760959Y+1120959D01*
X+5639041Y+1120959D01*
X+5639041Y+1112069D01*
X+5520329Y+1112069D01*
X+5520329Y+1151558D01*
X+5465415Y+1206472D01*
X+6082862Y+1206472D01*
X+6245584Y+1369194D01*
X+6250327Y+1369194D01*
X+6249321Y+1368188D01*
G37*
%LPC*%
G36*
X+5912208Y+1026061D02*
X+5912208Y+1052363D01*
X+5930807Y+1070962D01*
X+5957109Y+1070962D01*
X+5975708Y+1052363D01*
X+5975708Y+1026061D01*
X+5957109Y+1007462D01*
X+5930807Y+1007462D01*
X+5912208Y+1026061D01*
G37*
%LPD*%
G36*
X+5639041Y+999041D02*
X+5639041Y+953179D01*
X+5518708Y+953179D01*
X+5463956Y+1007931D01*
X+5639041Y+1007931D01*
X+5639041Y+999041D01*
G37*
G36*
X+4169041Y+1009041D02*
X+4169041Y+928736D01*
X+4120329Y+928736D01*
X+4120329Y+961558D01*
X+4063956Y+1017931D01*
X+4169041Y+1017931D01*
X+4169041Y+1009041D01*
G37*
D10*
X+769500Y+3098000D02*
X+925500Y+3254000D01*
X+960000Y+3254000D01*
X+1040000Y+3530000D02*
X+1040000Y+3254000D01*
X+960000Y+3254000D01*
X+2847130Y+1476000D02*
X+2847130Y+1507130D01*
X+3000000Y+1660000D01*
X+1040000Y+3530000D02*
X+769500Y+3530000D01*
X+769500Y+3098000D02*
X+1336190Y+3098000D01*
X+1698190Y+3460000D01*
X+1810000Y+3460000D01*
X+5420000Y+1110000D02*
X+5406590Y+1115665D01*
X+5462255Y+1060000D01*
X+5700000Y+1060000D01*
X+641000Y+3098000D02*
X+769500Y+3098000D01*
X+769500Y+3530000D02*
X+717000Y+3530000D01*
X+641000Y+3606000D01*
X+2706019Y+1117192D02*
X+2706019Y+1211266D01*
X+2847130Y+1352377D01*
X+2847130Y+1476000D01*
X+641000Y+2844000D02*
X+942455Y+2844000D01*
X+943885Y+2842570D01*
X+960000Y+2840000D01*
X+4230000Y+1070000D02*
X+4230000Y+2333000D01*
X+4325500Y+2428500D01*
X+4325500Y+2555500D01*
D21*
X+5596000Y+3440000D02*
X+5596000Y+4429131D01*
X+5650353Y+4483484D01*
X+5596000Y+4520000D01*
D10*
X+4230000Y+1070000D02*
X+4070000Y+1070000D01*
X+4020000Y+1120000D01*
X+1620000Y+4070000D02*
X+1623153Y+4100280D01*
X+1668000Y+4145127D01*
X+1668000Y+4530000D01*
X+2052000Y+2540000D02*
X+2071349Y+2603500D01*
X+2071349Y+3501912D01*
X+1620000Y+3953261D01*
X+1620000Y+4070000D01*
X+2052000Y+2540000D02*
X+1994038Y+2476500D01*
X+1957538Y+2440000D01*
X+1710000Y+2440000D01*
X+5596000Y+4520000D02*
X+5614671Y+4513230D01*
X+5580000Y+4547901D01*
X+5580000Y+5140000D01*
D21*
X+5596000Y+3440000D02*
X+5608806Y+3443189D01*
X+5660000Y+3391995D01*
X+5660000Y+3000000D01*
X+5660000Y+2940000D01*
D10*
X+5660000Y+3000000D02*
X+5468500Y+3000000D01*
X+1531500Y+2440000D02*
X+1531500Y+3030000D01*
X+1810000Y+3030000D01*
X+641000Y+4114000D02*
X+515500Y+3988500D01*
X+515500Y+2590000D01*
X+1620000Y+2440000D02*
X+1531500Y+2440000D01*
X+610000Y+2590000D02*
X+515500Y+2590000D01*
X+5943958Y+1039212D02*
X+5874746Y+970000D01*
X+5700000Y+970000D01*
X+4514186Y+986528D02*
X+4514186Y+935814D01*
X+4734564Y+715436D01*
X+4740000Y+710000D02*
X+4734564Y+722774D01*
X+4734564Y+715436D01*
X+4734564Y+670303D01*
X+4904867Y+500000D01*
X+5410000Y+500000D01*
X+4740000Y+710000D02*
X+4734564Y+715436D01*
X+4020000Y+520000D02*
X+4089850Y+463816D01*
X+4151550Y+402116D01*
X+5312116Y+402116D01*
X+5410000Y+500000D01*
X+5420000Y+510000D02*
X+5410000Y+500000D01*
X+4600000Y+2010000D02*
X+4533274Y+1940150D01*
X+4376496Y+1783372D01*
X+4376496Y+974298D01*
X+4370794Y+980000D01*
X+4230000Y+980000D01*
D21*
X+5230000Y+2940000D02*
X+5253539Y+2759660D01*
X+5253539Y+2663539D01*
X+4600000Y+2010000D01*
D10*
X+5230000Y+2940000D02*
X+4827021Y+2940000D01*
X+4583021Y+3184000D01*
X+4540000Y+3184000D01*
D21*
X+5342000Y+3440000D02*
X+5323233Y+3502122D01*
X+5342000Y+3520889D01*
X+5342000Y+4520000D01*
D10*
X+3262000Y+722000D02*
X+3464000Y+520000D01*
X+4020000Y+520000D01*
X+1290000Y+2540000D02*
X+1390000Y+2440000D01*
X+1531500Y+2440000D01*
X+1620000Y+2440000D02*
X+1620000Y+2413929D01*
X+1747929Y+2286000D01*
X+2052000Y+2286000D01*
X+1190000Y+4070000D02*
X+1190000Y+3790000D01*
X+1405230Y+3574770D01*
X+1470000Y+3530000D01*
X+641000Y+4114000D02*
X+1146000Y+4114000D01*
X+1160000Y+4100000D01*
X+1190000Y+4070000D02*
X+1160000Y+4100000D01*
X+1160000Y+4530000D02*
X+1160000Y+4100000D01*
X+1160000Y+4530000D02*
X+1282400Y+4682400D01*
X+1314095Y+4714095D01*
X+1314095Y+5214095D01*
X+1570000Y+5470000D01*
X+641000Y+2590000D02*
X+610000Y+2590000D01*
X+515500Y+2590000D02*
X+260000Y+2590000D01*
X+641000Y+2336000D02*
X+641000Y+2559000D01*
X+641000Y+2590000D02*
X+641000Y+2559000D01*
X+1290000Y+2540000D02*
X+660000Y+2540000D01*
X+641000Y+2559000D01*
X+610000Y+2590000D02*
X+641000Y+2559000D01*
X+1290000Y+2540000D02*
X+1390000Y+2640000D01*
X+1390000Y+2840000D01*
X+1290000Y+508000D02*
X+1390806Y+608806D01*
X+2392316Y+608806D01*
X+2399755Y+616245D01*
X+2399755Y+1076245D01*
X+5342000Y+4520000D02*
X+5240400Y+4594826D01*
X+5150000Y+4685226D01*
X+5150000Y+5140000D01*
D21*
X+5342000Y+3440000D02*
X+5240400Y+3354392D01*
X+5230000Y+3343992D01*
X+5230000Y+2940000D01*
D10*
X+2399755Y+1076245D02*
X+2399755Y+1383755D01*
X+2500000Y+1484000D01*
X+2500000Y+976000D02*
X+2399755Y+1076245D01*
X+3262000Y+1992000D02*
X+3020000Y+1750000D01*
X+3000000Y+1750000D01*
X+3262000Y+1230000D02*
X+3262000Y+1336682D01*
X+3365592Y+1440274D01*
X+3365592Y+1888408D01*
X+3262000Y+1992000D01*
X+3262000Y+722000D02*
X+3262000Y+834199D01*
X+3365592Y+937791D01*
X+3365592Y+1126408D01*
X+3262000Y+1230000D01*
X+2500000Y+976000D02*
X+2754000Y+722000D01*
X+3262000Y+722000D01*
X+1290000Y+508000D02*
X+1290000Y+254000D01*
X+1290000Y+762000D02*
X+1290000Y+508000D01*
X+1290000Y+1016000D02*
X+1290000Y+762000D01*
X+1290000Y+1270000D02*
X+1290000Y+1016000D01*
X+1290000Y+1524000D02*
X+1290000Y+1270000D01*
D11*
X+4010000Y+1540000D02*
X+3690500Y+1540000D01*
X+3580000Y+1650500D01*
X+3580000Y+1970000D01*
X+2500000Y+1992000D02*
X+2500000Y+2246000D01*
X+4020000Y+720000D02*
X+3920000Y+820000D01*
X+3920000Y+1430000D01*
X+3928400Y+1438400D01*
X+4010000Y+1540000D01*
X+6356000Y+816000D02*
X+5819633Y+816000D01*
X+5811873Y+808240D01*
X+4865824Y+808240D01*
X+4809850Y+864214D01*
X+4740000Y+910000D01*
X+3119000Y+2365000D02*
X+3140000Y+2386000D01*
X+3140000Y+3310000D01*
X+5860000Y+2510000D02*
X+6284122Y+2085878D01*
X+6321487Y+2085878D01*
X+6356000Y+2086000D01*
X+4000000Y+1990000D02*
X+4000000Y+2420000D01*
X+4020000Y+920000D02*
X+4054443Y+885557D01*
X+4392162Y+885557D01*
X+4435506Y+928901D01*
X+4435506Y+1249651D01*
X+6064977Y+1249651D01*
X+6227699Y+1412373D01*
X+6286314Y+1412373D01*
X+6343941Y+1470000D01*
X+6400000Y+1470000D01*
X+6465000Y+1535000D01*
X+6465000Y+2132362D01*
X+6629558Y+2296920D01*
X+6629558Y+4411713D01*
X+6735699Y+4517854D01*
X+6735699Y+4549800D01*
X+6737000Y+4626000D01*
X+3373000Y+2873000D02*
X+3386000Y+2860000D01*
X+3560000Y+2860000D01*
X+5420000Y+910000D02*
X+5991037Y+910000D01*
X+6264830Y+1183793D01*
X+6368037Y+1183793D01*
X+6626049Y+1441805D01*
X+6626049Y+1992234D01*
X+6660800Y+2026985D01*
X+6737000Y+2086000D01*
X+4540000Y+2930000D02*
X+4641600Y+2865024D01*
X+4798240Y+2865024D01*
X+4812685Y+2879469D01*
X+6560000Y+2350000D02*
X+6430000Y+2480000D01*
X+6229583Y+2480000D01*
X+5923934Y+2785649D01*
X+2052000Y+1524000D02*
X+2358000Y+1830000D01*
X+2799155Y+1830000D01*
X+3170615Y+2201460D01*
X+3222075Y+2150000D01*
X+3310000Y+2150000D01*
X+3570000Y+2410000D01*
X+4540000Y+2930000D02*
X+4160488Y+2550488D01*
X+3710488Y+2550488D01*
X+3570000Y+2410000D01*
X+2052000Y+1524000D02*
X+1544000Y+1524000D01*
X+1290000Y+1778000D01*
X+5151000Y+4206500D02*
X+5151000Y+3444500D01*
X+5087500Y+3381000D01*
X+4198500Y+3381000D01*
X+4135000Y+3317500D01*
X+4135000Y+3025000D01*
X+3970000Y+2860000D01*
X+5595500Y+710000D02*
X+5532000Y+710000D01*
X+6737000Y+816000D02*
X+6631000Y+710000D01*
X+5595500Y+710000D01*
X+5532000Y+710000D02*
X+5420000Y+710000D01*
X+641000Y+1320000D02*
X+515500Y+1194500D01*
X+515500Y+206000D01*
X+579000Y+142500D01*
X+3309500Y+142500D01*
X+3436500Y+269500D01*
X+5405000Y+269500D01*
X+5532000Y+142500D01*
X+6802000Y+142500D01*
X+6865500Y+206000D01*
X+6865500Y+5032000D01*
X+6802000Y+5095500D01*
X+6230500Y+5095500D01*
X+6167000Y+5032000D01*
X+6167000Y+3757000D01*
X+5850000Y+3440000D01*
X+2052000Y+1778000D02*
X+2357000Y+2083000D01*
X+2357000Y+2301500D01*
X+2420500Y+2365000D01*
X+2611000Y+2365000D01*
X+2730000Y+2484000D01*
X+2730000Y+3300000D01*
X+641000Y+1320000D02*
X+681000Y+1320000D01*
X+838572Y+1477572D01*
X+838572Y+1580572D01*
X+1290000Y+2032000D01*
X+1544000Y+1778000D01*
X+2052000Y+1778000D01*
X+5849500Y+3952500D02*
X+5850000Y+3953000D01*
X+5850000Y+4520000D01*
X+2052000Y+2032000D02*
X+2300000Y+2280000D01*
X+2300000Y+3310000D01*
X+1290000Y+2286000D02*
X+792250Y+1788250D01*
X+792250Y+1685250D01*
X+681000Y+1574000D01*
X+641000Y+1574000D01*
X+1290000Y+2286000D02*
X+1544000Y+2032000D01*
X+2052000Y+2032000D01*
X+4444540Y+1388734D02*
X+4673623Y+1388734D01*
X+4679651Y+1382706D01*
X+4733907Y+1328450D01*
X+4733907Y+1316392D01*
D12*
X+2706019Y+1117192D03*
X+4325500Y+2555500D03*
X+5468500Y+3000000D03*
X+5943958Y+1039212D03*
X+4514186Y+986528D03*
D13*
X+3119000Y+2365000D03*
X+5860000Y+2510000D03*
X+3373000Y+2873000D03*
X+4812685Y+2879469D03*
X+5923934Y+2785649D03*
X+6560000Y+2350000D03*
X+5151000Y+4206500D03*
X+5849500Y+3952500D03*
X+4444540Y+1388734D03*
X+4733907Y+1316392D03*
D22*
X+1939040Y+3707857D02*
X+1715249Y+3931648D01*
X+1715249Y+4118740D01*
X+1720069Y+4123560D01*
X+1720069Y+4347121D01*
X+1743751Y+4347121D01*
X+1850879Y+4454249D01*
X+1850879Y+4605751D01*
X+1743751Y+4712879D01*
X+1592249Y+4712879D01*
X+1485121Y+4605751D01*
X+1485121Y+4454249D01*
X+1592249Y+4347121D01*
X+1615931Y+4347121D01*
X+1615931Y+4280819D01*
X+1524751Y+4280819D01*
X+1524751Y+3859181D01*
X+1640444Y+3859181D01*
X+1944376Y+3555249D01*
X+1599181Y+3555249D01*
X+1599181Y+3434627D01*
X+1565249Y+3400695D01*
X+1565249Y+3740819D01*
X+1374751Y+3740819D01*
X+1374751Y+3319181D01*
X+1483735Y+3319181D01*
X+1314623Y+3150069D01*
X+895205Y+3150069D01*
X+947067Y+3201931D01*
X+1061567Y+3201931D01*
X+1092069Y+3232433D01*
X+1092069Y+3319181D01*
X+1135249Y+3319181D01*
X+1135249Y+3740819D01*
X+944751Y+3740819D01*
X+944751Y+3582069D01*
X+747932Y+3582069D01*
X+747931Y+3582068D01*
X+747679Y+3582068D01*
X+747679Y+3650188D01*
X+685188Y+3712679D01*
X+596812Y+3712679D01*
X+534321Y+3650188D01*
X+534321Y+3561812D01*
X+596812Y+3499321D01*
X+674043Y+3499321D01*
X+695432Y+3477932D01*
X+747931Y+3477932D01*
X+747932Y+3477931D01*
X+944751Y+3477931D01*
X+944751Y+3319181D01*
X+987931Y+3319181D01*
X+987931Y+3306069D01*
X+903933Y+3306069D01*
X+747933Y+3150069D01*
X+739798Y+3150069D01*
X+685188Y+3204679D01*
X+596812Y+3204679D01*
X+534321Y+3142188D01*
X+534321Y+3053812D01*
X+596812Y+2991321D01*
X+685188Y+2991321D01*
X+739798Y+3045931D01*
X+864751Y+3045931D01*
X+864751Y+2896069D01*
X+739798Y+2896069D01*
X+685188Y+2950679D01*
X+596812Y+2950679D01*
X+534321Y+2888188D01*
X+534321Y+2799812D01*
X+596812Y+2737321D01*
X+685188Y+2737321D01*
X+739798Y+2791931D01*
X+864751Y+2791931D01*
X+864751Y+2629181D01*
X+1055249Y+2629181D01*
X+1055249Y+3045931D01*
X+1294751Y+3045931D01*
X+1294751Y+2633979D01*
X+1196021Y+2633979D01*
X+1196021Y+2446021D01*
X+1383979Y+2446021D01*
X+1383979Y+2629181D01*
X+1485249Y+2629181D01*
X+1485249Y+3050819D01*
X+1362645Y+3050819D01*
X+1676577Y+3364751D01*
X+2019280Y+3364751D01*
X+2019280Y+3125249D01*
X+1599181Y+3125249D01*
X+1599181Y+2934751D01*
X+2019280Y+2934751D01*
X+2019280Y+2633979D01*
X+2013073Y+2633979D01*
X+1958021Y+2578927D01*
X+1958021Y+2514352D01*
X+1956181Y+2512279D01*
X+1935971Y+2492069D01*
X+1770959Y+2492069D01*
X+1770959Y+2500959D01*
X+1559041Y+2500959D01*
X+1559041Y+2379041D01*
X+1770959Y+2379041D01*
X+1770959Y+2387931D01*
X+1979105Y+2387931D01*
X+2031702Y+2440528D01*
X+2036805Y+2446021D01*
X+2090927Y+2446021D01*
X+2145979Y+2501073D01*
X+2145979Y+2578927D01*
X+2123418Y+2601488D01*
X+2123418Y+3490372D01*
X+2174750Y+3439040D01*
X+2242252Y+3439040D01*
X+2167921Y+3364709D01*
X+2167921Y+3255291D01*
X+2245291Y+3177921D01*
X+2256821Y+3177921D01*
X+2256821Y+2297885D01*
X+2084915Y+2125979D01*
X+2013073Y+2125979D01*
X+1962273Y+2075179D01*
X+1561885Y+2075179D01*
X+1383979Y+2253085D01*
X+1383979Y+2324927D01*
X+1328927Y+2379979D01*
X+1251073Y+2379979D01*
X+1196021Y+2324927D01*
X+1196021Y+2253085D01*
X+749071Y+1806135D01*
X+749071Y+1703135D01*
X+705902Y+1659966D01*
X+685188Y+1680679D01*
X+596812Y+1680679D01*
X+534321Y+1618188D01*
X+534321Y+1529812D01*
X+596812Y+1467321D01*
X+685188Y+1467321D01*
X+747679Y+1529812D01*
X+747679Y+1579615D01*
X+835429Y+1667365D01*
X+835429Y+1770365D01*
X+1257085Y+2192021D01*
X+1322915Y+2192021D01*
X+1526115Y+1988821D01*
X+1962273Y+1988821D01*
X+2013073Y+1938021D01*
X+2090927Y+1938021D01*
X+2145979Y+1993073D01*
X+2145979Y+2064915D01*
X+2313821Y+2232757D01*
X+2313821Y+2100885D01*
X+2084915Y+1871979D01*
X+2013073Y+1871979D01*
X+1962273Y+1821179D01*
X+1561885Y+1821179D01*
X+1383979Y+1999085D01*
X+1383979Y+2070927D01*
X+1328927Y+2125979D01*
X+1251073Y+2125979D01*
X+1196021Y+2070927D01*
X+1196021Y+1999085D01*
X+795393Y+1598457D01*
X+795393Y+1495457D01*
X+705902Y+1405966D01*
X+685188Y+1426679D01*
X+596812Y+1426679D01*
X+534321Y+1364188D01*
X+534321Y+1275812D01*
X+535034Y+1275098D01*
X+472321Y+1212385D01*
X+472321Y+188115D01*
X+561115Y+99321D01*
X+3327385Y+99321D01*
X+3454385Y+226321D01*
X+4256620Y+226321D01*
X+4230059Y+205912D01*
X+4189444Y+149825D01*
X+4165228Y+50000D01*
X+4189444Y-49825D01*
X+4230059Y-105912D01*
X+4273174Y-139040D01*
X+1787675Y-139040D01*
X+1696780Y+42750D01*
X+1667316Y+60960D01*
X+60960Y+60960D01*
X+60960Y+5939040D01*
X+1939040Y+5939040D01*
X+1939040Y+3707857D01*
X+1094718Y+5478514D02*
X+1143024Y+5472348D01*
X+1150368Y+5469369D01*
X+1197185Y+5450374D01*
X+1203745Y+5445334D01*
X+1245941Y+5412912D01*
X+1286556Y+5356825D01*
X+1310772Y+5257000D01*
X+1307286Y+5242629D01*
X+1286556Y+5157175D01*
X+1279517Y+5147454D01*
X+1245941Y+5101088D01*
X+1233182Y+5091284D01*
X+1197185Y+5063626D01*
X+1143024Y+5041652D01*
X+1135168Y+5040649D01*
X+1087000Y+5034501D01*
X+1030976Y+5041652D01*
X+1023632Y+5044631D01*
X+976815Y+5063626D01*
X+970255Y+5068666D01*
X+928059Y+5101088D01*
X+887444Y+5157175D01*
X+863228Y+5257000D01*
X+866714Y+5271371D01*
X+887444Y+5356825D01*
X+894483Y+5366546D01*
X+928059Y+5412912D01*
X+940818Y+5422716D01*
X+976815Y+5450374D01*
X+1030976Y+5472348D01*
X+1038832Y+5473351D01*
X+1087000Y+5479499D01*
X+1094718Y+5478514D01*
X+231594Y+4944579D02*
X+288406Y+4944579D01*
X+328579Y+4904406D01*
X+328579Y+4847594D01*
X+288406Y+4807421D01*
X+231594Y+4807421D01*
X+191421Y+4847594D01*
X+191421Y+4904406D01*
X+231594Y+4944579D01*
X+596812Y+4982679D02*
X+685188Y+4982679D01*
X+747679Y+4920188D01*
X+747679Y+4831812D01*
X+685188Y+4769321D01*
X+596812Y+4769321D01*
X+534321Y+4831812D01*
X+534321Y+4920188D01*
X+596812Y+4982679D01*
X+215812Y+4728679D02*
X+304188Y+4728679D01*
X+366679Y+4666188D01*
X+366679Y+4577812D01*
X+304188Y+4515321D01*
X+215812Y+4515321D01*
X+153321Y+4577812D01*
X+153321Y+4666188D01*
X+215812Y+4728679D01*
X+596812Y+4728679D02*
X+685188Y+4728679D01*
X+747679Y+4666188D01*
X+747679Y+4577812D01*
X+685188Y+4515321D01*
X+596812Y+4515321D01*
X+534321Y+4577812D01*
X+534321Y+4666188D01*
X+596812Y+4728679D01*
X+215812Y+4474679D02*
X+304188Y+4474679D01*
X+366679Y+4412188D01*
X+366679Y+4323812D01*
X+304188Y+4261321D01*
X+215812Y+4261321D01*
X+153321Y+4323812D01*
X+153321Y+4412188D01*
X+215812Y+4474679D01*
X+596812Y+4474679D02*
X+685188Y+4474679D01*
X+747679Y+4412188D01*
X+747679Y+4323812D01*
X+685188Y+4261321D01*
X+596812Y+4261321D01*
X+534321Y+4323812D01*
X+534321Y+4412188D01*
X+596812Y+4474679D01*
X+215812Y+4220679D02*
X+304188Y+4220679D01*
X+366679Y+4158188D01*
X+366679Y+4069812D01*
X+304188Y+4007321D01*
X+215812Y+4007321D01*
X+153321Y+4069812D01*
X+153321Y+4158188D01*
X+215812Y+4220679D01*
X+596812Y+4220679D02*
X+685188Y+4220679D01*
X+747679Y+4158188D01*
X+747679Y+4069812D01*
X+685188Y+4007321D01*
X+596812Y+4007321D01*
X+534321Y+4069812D01*
X+534321Y+4158188D01*
X+596812Y+4220679D01*
X+215812Y+3966679D02*
X+304188Y+3966679D01*
X+366679Y+3904188D01*
X+366679Y+3815812D01*
X+304188Y+3753321D01*
X+215812Y+3753321D01*
X+153321Y+3815812D01*
X+153321Y+3904188D01*
X+215812Y+3966679D01*
X+596812Y+3966679D02*
X+685188Y+3966679D01*
X+747679Y+3904188D01*
X+747679Y+3815812D01*
X+685188Y+3753321D01*
X+596812Y+3753321D01*
X+534321Y+3815812D01*
X+534321Y+3904188D01*
X+596812Y+3966679D01*
X+215812Y+3712679D02*
X+304188Y+3712679D01*
X+366679Y+3650188D01*
X+366679Y+3561812D01*
X+304188Y+3499321D01*
X+215812Y+3499321D01*
X+153321Y+3561812D01*
X+153321Y+3650188D01*
X+215812Y+3712679D01*
X+215812Y+3458679D02*
X+304188Y+3458679D01*
X+366679Y+3396188D01*
X+366679Y+3307812D01*
X+304188Y+3245321D01*
X+215812Y+3245321D01*
X+153321Y+3307812D01*
X+153321Y+3396188D01*
X+215812Y+3458679D01*
X+596812Y+3458679D02*
X+685188Y+3458679D01*
X+747679Y+3396188D01*
X+747679Y+3307812D01*
X+685188Y+3245321D01*
X+596812Y+3245321D01*
X+534321Y+3307812D01*
X+534321Y+3396188D01*
X+596812Y+3458679D01*
X+215812Y+3204679D02*
X+304188Y+3204679D01*
X+366679Y+3142188D01*
X+366679Y+3053812D01*
X+304188Y+2991321D01*
X+215812Y+2991321D01*
X+153321Y+3053812D01*
X+153321Y+3142188D01*
X+215812Y+3204679D01*
X+215812Y+2950679D02*
X+304188Y+2950679D01*
X+366679Y+2888188D01*
X+366679Y+2799812D01*
X+304188Y+2737321D01*
X+215812Y+2737321D01*
X+153321Y+2799812D01*
X+153321Y+2888188D01*
X+215812Y+2950679D01*
X+215812Y+2696679D02*
X+304188Y+2696679D01*
X+366679Y+2634188D01*
X+366679Y+2545812D01*
X+304188Y+2483321D01*
X+215812Y+2483321D01*
X+153321Y+2545812D01*
X+153321Y+2634188D01*
X+215812Y+2696679D01*
X+596812Y+2696679D02*
X+685188Y+2696679D01*
X+747679Y+2634188D01*
X+747679Y+2545812D01*
X+685188Y+2483321D01*
X+596812Y+2483321D01*
X+534321Y+2545812D01*
X+534321Y+2634188D01*
X+596812Y+2696679D01*
X+215812Y+2442679D02*
X+304188Y+2442679D01*
X+366679Y+2380188D01*
X+366679Y+2291812D01*
X+304188Y+2229321D01*
X+215812Y+2229321D01*
X+153321Y+2291812D01*
X+153321Y+2380188D01*
X+215812Y+2442679D01*
X+596812Y+2442679D02*
X+685188Y+2442679D01*
X+747679Y+2380188D01*
X+747679Y+2291812D01*
X+685188Y+2229321D01*
X+596812Y+2229321D01*
X+534321Y+2291812D01*
X+534321Y+2380188D01*
X+596812Y+2442679D01*
X+215812Y+2188679D02*
X+304188Y+2188679D01*
X+366679Y+2126188D01*
X+366679Y+2037812D01*
X+304188Y+1975321D01*
X+215812Y+1975321D01*
X+153321Y+2037812D01*
X+153321Y+2126188D01*
X+215812Y+2188679D01*
X+596812Y+2188679D02*
X+685188Y+2188679D01*
X+747679Y+2126188D01*
X+747679Y+2037812D01*
X+685188Y+1975321D01*
X+596812Y+1975321D01*
X+534321Y+2037812D01*
X+534321Y+2126188D01*
X+596812Y+2188679D01*
X+215812Y+1934679D02*
X+304188Y+1934679D01*
X+366679Y+1872188D01*
X+366679Y+1783812D01*
X+304188Y+1721321D01*
X+215812Y+1721321D01*
X+153321Y+1783812D01*
X+153321Y+1872188D01*
X+215812Y+1934679D01*
X+596812Y+1934679D02*
X+685188Y+1934679D01*
X+747679Y+1872188D01*
X+747679Y+1783812D01*
X+685188Y+1721321D01*
X+596812Y+1721321D01*
X+534321Y+1783812D01*
X+534321Y+1872188D01*
X+596812Y+1934679D01*
X+215812Y+1680679D02*
X+304188Y+1680679D01*
X+366679Y+1618188D01*
X+366679Y+1529812D01*
X+304188Y+1467321D01*
X+215812Y+1467321D01*
X+153321Y+1529812D01*
X+153321Y+1618188D01*
X+215812Y+1680679D01*
X+215812Y+1426679D02*
X+304188Y+1426679D01*
X+366679Y+1364188D01*
X+366679Y+1275812D01*
X+304188Y+1213321D01*
X+215812Y+1213321D01*
X+153321Y+1275812D01*
X+153321Y+1364188D01*
X+215812Y+1426679D01*
X+215812Y+1172679D02*
X+304188Y+1172679D01*
X+366679Y+1110188D01*
X+366679Y+1021812D01*
X+304188Y+959321D01*
X+215812Y+959321D01*
X+153321Y+1021812D01*
X+153321Y+1110188D01*
X+215812Y+1172679D01*
X+215812Y+918679D02*
X+304188Y+918679D01*
X+366679Y+856188D01*
X+366679Y+767812D01*
X+304188Y+705321D01*
X+215812Y+705321D01*
X+153321Y+767812D01*
X+153321Y+856188D01*
X+215812Y+918679D01*
X+215812Y+664679D02*
X+304188Y+664679D01*
X+366679Y+602188D01*
X+366679Y+513812D01*
X+304188Y+451321D01*
X+215812Y+451321D01*
X+153321Y+513812D01*
X+153321Y+602188D01*
X+215812Y+664679D01*
X+215812Y+410679D02*
X+304188Y+410679D01*
X+366679Y+348188D01*
X+366679Y+259812D01*
X+304188Y+197321D01*
X+215812Y+197321D01*
X+153321Y+259812D01*
X+153321Y+348188D01*
X+215812Y+410679D01*
X+2013073Y+2379979D02*
X+2090927Y+2379979D01*
X+2145979Y+2324927D01*
X+2145979Y+2247073D01*
X+2090927Y+2192021D01*
X+2013073Y+2192021D01*
X+1958021Y+2247073D01*
X+1958021Y+2324927D01*
X+2013073Y+2379979D01*
X+1342879Y+4605751D02*
X+1342879Y+4454249D01*
X+1235751Y+4347121D01*
X+1084249Y+4347121D01*
X+977121Y+4454249D01*
X+977121Y+4605751D01*
X+1084249Y+4712879D01*
X+1235751Y+4712879D01*
X+1342879Y+4605751D01*
X+1285249Y+3859181D02*
X+1094751Y+3859181D01*
X+1094751Y+4280819D01*
X+1285249Y+4280819D01*
X+1285249Y+3859181D01*
X+1437921Y+5415291D02*
X+1437921Y+5524709D01*
X+1515291Y+5602079D01*
X+1624709Y+5602079D01*
X+1702079Y+5524709D01*
X+1702079Y+5415291D01*
X+1624709Y+5337921D01*
X+1515291Y+5337921D01*
X+1437921Y+5415291D01*
X+6939040Y+60960D02*
X+5143328Y+60960D01*
X+5114621Y+43986D01*
X+5013957Y-139040D01*
X+4504826Y-139040D01*
X+4547941Y-105912D01*
X+4588556Y-49825D01*
X+4612772Y+50000D01*
X+4588556Y+149825D01*
X+4547941Y+205912D01*
X+4521379Y+226321D01*
X+5387115Y+226321D01*
X+5514115Y+99321D01*
X+6819885Y+99321D01*
X+6908679Y+188115D01*
X+6908679Y+5049885D01*
X+6819885Y+5138679D01*
X+6212615Y+5138679D01*
X+6123821Y+5049885D01*
X+6123821Y+3774885D01*
X+5912862Y+3563926D01*
X+5904709Y+3572079D01*
X+5795291Y+3572079D01*
X+5723000Y+3499788D01*
X+5654419Y+3568369D01*
X+5654419Y+4391631D01*
X+5723000Y+4460212D01*
X+5795291Y+4387921D01*
X+5806821Y+4387921D01*
X+5806821Y+3988846D01*
X+5793621Y+3975646D01*
X+5793621Y+3929354D01*
X+5826354Y+3896621D01*
X+5872646Y+3896621D01*
X+5905379Y+3929354D01*
X+5905379Y+3975646D01*
X+5893179Y+3987846D01*
X+5893179Y+4387921D01*
X+5904709Y+4387921D01*
X+5982079Y+4465291D01*
X+5982079Y+4574709D01*
X+5904709Y+4652079D01*
X+5795291Y+4652079D01*
X+5723000Y+4579788D01*
X+5650709Y+4652079D01*
X+5632069Y+4652079D01*
X+5632069Y+4929181D01*
X+5675249Y+4929181D01*
X+5675249Y+5350819D01*
X+5484751Y+5350819D01*
X+5484751Y+4929181D01*
X+5527931Y+4929181D01*
X+5527931Y+4638719D01*
X+5469000Y+4579788D01*
X+5396709Y+4652079D01*
X+5287291Y+4652079D01*
X+5209921Y+4574709D01*
X+5209921Y+4465291D01*
X+5287291Y+4387921D01*
X+5396709Y+4387921D01*
X+5469000Y+4460212D01*
X+5537581Y+4391631D01*
X+5537581Y+3568369D01*
X+5469000Y+3499788D01*
X+5396709Y+3572079D01*
X+5287291Y+3572079D01*
X+5209921Y+3494709D01*
X+5209921Y+3385291D01*
X+5287291Y+3307921D01*
X+5396709Y+3307921D01*
X+5469000Y+3380212D01*
X+5541291Y+3307921D01*
X+5601581Y+3307921D01*
X+5601581Y+3150819D01*
X+5564751Y+3150819D01*
X+5564751Y+3052069D01*
X+5531377Y+3052069D01*
X+5502167Y+3081279D01*
X+5434833Y+3081279D01*
X+5387221Y+3033667D01*
X+5387221Y+2966333D01*
X+5434833Y+2918721D01*
X+5502167Y+2918721D01*
X+5531377Y+2947931D01*
X+5564751Y+2947931D01*
X+5564751Y+2729181D01*
X+5755249Y+2729181D01*
X+5755249Y+3150819D01*
X+5718419Y+3150819D01*
X+5718419Y+3375631D01*
X+5723000Y+3380212D01*
X+5795291Y+3307921D01*
X+5904709Y+3307921D01*
X+5982079Y+3385291D01*
X+5982079Y+3494709D01*
X+5973926Y+3502862D01*
X+6210179Y+3739115D01*
X+6210179Y+5014115D01*
X+6248385Y+5052321D01*
X+6784115Y+5052321D01*
X+6822321Y+5014115D01*
X+6822321Y+4945546D01*
X+6781188Y+4986679D01*
X+6692812Y+4986679D01*
X+6630321Y+4924188D01*
X+6630321Y+4835812D01*
X+6692812Y+4773321D01*
X+6781188Y+4773321D01*
X+6822321Y+4814454D01*
X+6822321Y+4691546D01*
X+6781188Y+4732679D01*
X+6692812Y+4732679D01*
X+6630321Y+4670188D01*
X+6630321Y+4581812D01*
X+6684457Y+4527676D01*
X+6586379Y+4429598D01*
X+6586379Y+2402646D01*
X+6583146Y+2405879D01*
X+6565185Y+2405879D01*
X+6447886Y+2523178D01*
X+6436045Y+2523178D01*
X+6462679Y+2549812D01*
X+6462679Y+2638188D01*
X+6400188Y+2700679D01*
X+6311812Y+2700679D01*
X+6249321Y+2638188D01*
X+6249321Y+2549812D01*
X+6275955Y+2523178D01*
X+6247469Y+2523178D01*
X+5979813Y+2790834D01*
X+5979813Y+2808795D01*
X+5947080Y+2841528D01*
X+5900788Y+2841528D01*
X+5868055Y+2808795D01*
X+5868055Y+2762503D01*
X+5900788Y+2729770D01*
X+5918749Y+2729770D01*
X+6211697Y+2436822D01*
X+6301955Y+2436822D01*
X+6249321Y+2384188D01*
X+6249321Y+2295812D01*
X+6311812Y+2233321D01*
X+6400188Y+2233321D01*
X+6462679Y+2295812D01*
X+6462679Y+2384188D01*
X+6410045Y+2436822D01*
X+6412114Y+2436822D01*
X+6504121Y+2344815D01*
X+6504121Y+2326854D01*
X+6536854Y+2294121D01*
X+6565695Y+2294121D01*
X+6432220Y+2160646D01*
X+6400188Y+2192679D01*
X+6311812Y+2192679D01*
X+6275098Y+2155966D01*
X+5915879Y+2515185D01*
X+5915879Y+2533146D01*
X+5883146Y+2565879D01*
X+5836854Y+2565879D01*
X+5804121Y+2533146D01*
X+5804121Y+2486854D01*
X+5836854Y+2454121D01*
X+5854815Y+2454121D01*
X+6249321Y+2059615D01*
X+6249321Y+2041812D01*
X+6311812Y+1979321D01*
X+6400188Y+1979321D01*
X+6421821Y+2000954D01*
X+6421821Y+1917046D01*
X+6400188Y+1938679D01*
X+6311812Y+1938679D01*
X+6249321Y+1876188D01*
X+6249321Y+1787812D01*
X+6311812Y+1725321D01*
X+6400188Y+1725321D01*
X+6421821Y+1746954D01*
X+6421821Y+1663046D01*
X+6400188Y+1684679D01*
X+6311812Y+1684679D01*
X+6249321Y+1622188D01*
X+6249321Y+1533812D01*
X+6298005Y+1485128D01*
X+6268429Y+1455552D01*
X+6209814Y+1455552D01*
X+6047092Y+1292830D01*
X+4789370Y+1292830D01*
X+4789786Y+1293246D01*
X+4789786Y+1339538D01*
X+4757053Y+1372271D01*
X+4751150Y+1372271D01*
X+4691508Y+1431913D01*
X+4480386Y+1431913D01*
X+4467686Y+1444613D01*
X+4421394Y+1444613D01*
X+4388661Y+1411880D01*
X+4388661Y+1365588D01*
X+4421394Y+1332855D01*
X+4467686Y+1332855D01*
X+4480386Y+1345555D01*
X+4655738Y+1345555D01*
X+4678028Y+1323265D01*
X+4678028Y+1293246D01*
X+4678444Y+1292830D01*
X+4417621Y+1292830D01*
X+4392327Y+1267536D01*
X+4392327Y+946786D01*
X+4374277Y+928736D01*
X+4290959Y+928736D01*
X+4290959Y+1130959D01*
X+4282069Y+1130959D01*
X+4282069Y+2311433D01*
X+4377569Y+2406933D01*
X+4377569Y+2492623D01*
X+4406779Y+2521833D01*
X+4406779Y+2589167D01*
X+4359167Y+2636779D01*
X+4307843Y+2636779D01*
X+4468985Y+2797921D01*
X+4672079Y+2797921D01*
X+4672079Y+2821845D01*
X+4816125Y+2821845D01*
X+4817870Y+2823590D01*
X+4835831Y+2823590D01*
X+4868564Y+2856323D01*
X+4868564Y+2902615D01*
X+4835831Y+2935348D01*
X+4789539Y+2935348D01*
X+4762394Y+2908203D01*
X+4672079Y+2908203D01*
X+4672079Y+3316079D01*
X+4407921Y+3316079D01*
X+4407921Y+2858985D01*
X+4142603Y+2593667D01*
X+3692603Y+2593667D01*
X+3632862Y+2533926D01*
X+3624709Y+2542079D01*
X+3515291Y+2542079D01*
X+3437921Y+2464709D01*
X+3437921Y+2355291D01*
X+3446074Y+2347138D01*
X+3355979Y+2257043D01*
X+3355979Y+2284927D01*
X+3300927Y+2339979D01*
X+3223073Y+2339979D01*
X+3168021Y+2284927D01*
X+3168021Y+2244639D01*
X+3152730Y+2244639D01*
X+2781270Y+1873179D01*
X+2340115Y+1873179D01*
X+2084915Y+1617979D01*
X+2013073Y+1617979D01*
X+1962273Y+1567179D01*
X+1561885Y+1567179D01*
X+1383979Y+1745085D01*
X+1383979Y+1816927D01*
X+1328927Y+1871979D01*
X+1251073Y+1871979D01*
X+1196021Y+1816927D01*
X+1196021Y+1739073D01*
X+1251073Y+1684021D01*
X+1322915Y+1684021D01*
X+1526115Y+1480821D01*
X+1962273Y+1480821D01*
X+2013073Y+1430021D01*
X+2090927Y+1430021D01*
X+2145979Y+1485073D01*
X+2145979Y+1556915D01*
X+2375885Y+1786821D01*
X+2415915Y+1786821D01*
X+2406021Y+1776927D01*
X+2406021Y+1699073D01*
X+2461073Y+1644021D01*
X+2538927Y+1644021D01*
X+2593979Y+1699073D01*
X+2593979Y+1776927D01*
X+2584085Y+1786821D01*
X+2817040Y+1786821D01*
X+3170615Y+2140396D01*
X+3204189Y+2106822D01*
X+3327886Y+2106822D01*
X+3507138Y+2286074D01*
X+3515291Y+2277921D01*
X+3624709Y+2277921D01*
X+3702079Y+2355291D01*
X+3702079Y+2464709D01*
X+3693926Y+2472862D01*
X+3728373Y+2507309D01*
X+3900521Y+2507309D01*
X+3867921Y+2474709D01*
X+3867921Y+2365291D01*
X+3945291Y+2287921D01*
X+3956821Y+2287921D01*
X+3956821Y+2122079D01*
X+3945291Y+2122079D01*
X+3867921Y+2044709D01*
X+3867921Y+1935291D01*
X+3945291Y+1857921D01*
X+4054709Y+1857921D01*
X+4132079Y+1935291D01*
X+4132079Y+2044709D01*
X+4054709Y+2122079D01*
X+4043179Y+2122079D01*
X+4043179Y+2287921D01*
X+4054709Y+2287921D01*
X+4132079Y+2365291D01*
X+4132079Y+2474709D01*
X+4099479Y+2507309D01*
X+4178373Y+2507309D01*
X+4244221Y+2573157D01*
X+4244221Y+2521833D01*
X+4273431Y+2492623D01*
X+4273431Y+2450067D01*
X+4177931Y+2354567D01*
X+4177931Y+1130959D01*
X+4169041Y+1130959D01*
X+4169041Y+1122069D01*
X+4120329Y+1122069D01*
X+4120329Y+1161558D01*
X+4061558Y+1220329D01*
X+3978442Y+1220329D01*
X+3963179Y+1205066D01*
X+3963179Y+1407921D01*
X+4064709Y+1407921D01*
X+4142079Y+1485291D01*
X+4142079Y+1594709D01*
X+4064709Y+1672079D01*
X+3955291Y+1672079D01*
X+3877921Y+1594709D01*
X+3877921Y+1583179D01*
X+3708385Y+1583179D01*
X+3623179Y+1668385D01*
X+3623179Y+1837921D01*
X+3634709Y+1837921D01*
X+3712079Y+1915291D01*
X+3712079Y+2024709D01*
X+3634709Y+2102079D01*
X+3525291Y+2102079D01*
X+3447921Y+2024709D01*
X+3447921Y+1915291D01*
X+3525291Y+1837921D01*
X+3536821Y+1837921D01*
X+3536821Y+1632615D01*
X+3672615Y+1496821D01*
X+3877921Y+1496821D01*
X+3877921Y+1485291D01*
X+3896066Y+1467146D01*
X+3896013Y+1467077D01*
X+3876821Y+1447885D01*
X+3876821Y+802115D01*
X+3919671Y+759265D01*
X+3919671Y+678442D01*
X+3978113Y+620000D01*
X+3919671Y+561558D01*
X+3919671Y+478442D01*
X+3978442Y+419671D01*
X+4061558Y+419671D01*
X+4120329Y+478442D01*
X+4120329Y+561558D01*
X+4061887Y+620000D01*
X+4120329Y+678442D01*
X+4120329Y+761558D01*
X+4061887Y+820000D01*
X+4084265Y+842378D01*
X+4410047Y+842378D01*
X+4478685Y+911016D01*
X+4478685Y+1206472D01*
X+4694585Y+1206472D01*
X+4639671Y+1151558D01*
X+4639671Y+1068442D01*
X+4698113Y+1010000D01*
X+4639671Y+951558D01*
X+4639671Y+868442D01*
X+4698113Y+810000D01*
X+4639671Y+751558D01*
X+4639671Y+668442D01*
X+4698113Y+610000D01*
X+4639671Y+551558D01*
X+4639671Y+468442D01*
X+4698442Y+409671D01*
X+4781558Y+409671D01*
X+4840329Y+468442D01*
X+4840329Y+551558D01*
X+4781887Y+610000D01*
X+4840329Y+668442D01*
X+4840329Y+751558D01*
X+4781887Y+810000D01*
X+4792444Y+820556D01*
X+4847939Y+765061D01*
X+5333174Y+765061D01*
X+5319671Y+751558D01*
X+5319671Y+668442D01*
X+5378113Y+610000D01*
X+5319671Y+551558D01*
X+5319671Y+468442D01*
X+5378442Y+409671D01*
X+5461558Y+409671D01*
X+5520329Y+468442D01*
X+5520329Y+551558D01*
X+5461887Y+610000D01*
X+5518708Y+666821D01*
X+6309954Y+666821D01*
X+6249321Y+606188D01*
X+6249321Y+517812D01*
X+6311812Y+455321D01*
X+6400188Y+455321D01*
X+6462679Y+517812D01*
X+6462679Y+606188D01*
X+6402046Y+666821D01*
X+6648885Y+666821D01*
X+6692098Y+710034D01*
X+6692812Y+709321D01*
X+6781188Y+709321D01*
X+6822321Y+750454D01*
X+6822321Y+627546D01*
X+6781188Y+668679D01*
X+6692812Y+668679D01*
X+6630321Y+606188D01*
X+6630321Y+517812D01*
X+6692812Y+455321D01*
X+6781188Y+455321D01*
X+6822321Y+496454D01*
X+6822321Y+373546D01*
X+6781188Y+414679D01*
X+6692812Y+414679D01*
X+6630321Y+352188D01*
X+6630321Y+263812D01*
X+6692812Y+201321D01*
X+6781188Y+201321D01*
X+6822321Y+242454D01*
X+6822321Y+223885D01*
X+6784115Y+185679D01*
X+5549885Y+185679D01*
X+5422885Y+312679D01*
X+3418615Y+312679D01*
X+3291615Y+185679D01*
X+2116585Y+185679D01*
X+2145979Y+215073D01*
X+2145979Y+292927D01*
X+2090927Y+347979D01*
X+2013073Y+347979D01*
X+1958021Y+292927D01*
X+1958021Y+215073D01*
X+1987415Y+185679D01*
X+1354585Y+185679D01*
X+1383979Y+215073D01*
X+1383979Y+292927D01*
X+1328927Y+347979D01*
X+1251073Y+347979D01*
X+1196021Y+292927D01*
X+1196021Y+215073D01*
X+1225415Y+185679D01*
X+596885Y+185679D01*
X+558679Y+223885D01*
X+558679Y+235454D01*
X+596812Y+197321D01*
X+685188Y+197321D01*
X+747679Y+259812D01*
X+747679Y+348188D01*
X+685188Y+410679D01*
X+596812Y+410679D01*
X+558679Y+372546D01*
X+558679Y+489454D01*
X+596812Y+451321D01*
X+685188Y+451321D01*
X+747679Y+513812D01*
X+747679Y+602188D01*
X+685188Y+664679D01*
X+596812Y+664679D01*
X+558679Y+626546D01*
X+558679Y+743454D01*
X+596812Y+705321D01*
X+685188Y+705321D01*
X+747679Y+767812D01*
X+747679Y+856188D01*
X+685188Y+918679D01*
X+596812Y+918679D01*
X+558679Y+880546D01*
X+558679Y+997454D01*
X+596812Y+959321D01*
X+685188Y+959321D01*
X+747679Y+1021812D01*
X+747679Y+1110188D01*
X+685188Y+1172679D01*
X+596812Y+1172679D01*
X+558679Y+1134546D01*
X+558679Y+1176615D01*
X+596098Y+1214034D01*
X+596812Y+1213321D01*
X+685188Y+1213321D01*
X+747679Y+1275812D01*
X+747679Y+1325615D01*
X+881751Y+1459687D01*
X+881751Y+1562687D01*
X+1257085Y+1938021D01*
X+1322915Y+1938021D01*
X+1526115Y+1734821D01*
X+1962273Y+1734821D01*
X+2013073Y+1684021D01*
X+2090927Y+1684021D01*
X+2145979Y+1739073D01*
X+2145979Y+1810915D01*
X+2400179Y+2065115D01*
X+2400179Y+2283615D01*
X+2438385Y+2321821D01*
X+2442915Y+2321821D01*
X+2406021Y+2284927D01*
X+2406021Y+2207073D01*
X+2456821Y+2156273D01*
X+2456821Y+2081727D01*
X+2406021Y+2030927D01*
X+2406021Y+1953073D01*
X+2461073Y+1898021D01*
X+2538927Y+1898021D01*
X+2593979Y+1953073D01*
X+2593979Y+2030927D01*
X+2543179Y+2081727D01*
X+2543179Y+2156273D01*
X+2593979Y+2207073D01*
X+2593979Y+2284927D01*
X+2557085Y+2321821D01*
X+2628885Y+2321821D01*
X+2773179Y+2466115D01*
X+2773179Y+3167921D01*
X+2784709Y+3167921D01*
X+2862079Y+3245291D01*
X+2862079Y+3354709D01*
X+2784709Y+3432079D01*
X+2675291Y+3432079D01*
X+2597921Y+3354709D01*
X+2597921Y+3245291D01*
X+2675291Y+3167921D01*
X+2686821Y+3167921D01*
X+2686821Y+2501885D01*
X+2593979Y+2409043D01*
X+2593979Y+2593979D01*
X+2406021Y+2593979D01*
X+2406021Y+2408179D01*
X+2402615Y+2408179D01*
X+2343179Y+2348743D01*
X+2343179Y+3177921D01*
X+2354709Y+3177921D01*
X+2432079Y+3255291D01*
X+2432079Y+3364709D01*
X+2357748Y+3439040D01*
X+3082252Y+3439040D01*
X+3007921Y+3364709D01*
X+3007921Y+3255291D01*
X+3085291Y+3177921D01*
X+3096821Y+3177921D01*
X+3096821Y+2420879D01*
X+3095854Y+2420879D01*
X+3063121Y+2388146D01*
X+3063121Y+2341854D01*
X+3095854Y+2309121D01*
X+3142146Y+2309121D01*
X+3174879Y+2341854D01*
X+3174879Y+2359815D01*
X+3183179Y+2368115D01*
X+3183179Y+2445915D01*
X+3223073Y+2406021D01*
X+3300927Y+2406021D01*
X+3355979Y+2461073D01*
X+3355979Y+2538927D01*
X+3300927Y+2593979D01*
X+3223073Y+2593979D01*
X+3183179Y+2554085D01*
X+3183179Y+3177921D01*
X+3194709Y+3177921D01*
X+3272079Y+3255291D01*
X+3272079Y+3364709D01*
X+3197748Y+3439040D01*
X+3502252Y+3439040D01*
X+3427921Y+3364709D01*
X+3427921Y+3255291D01*
X+3505291Y+3177921D01*
X+3614709Y+3177921D01*
X+3692079Y+3255291D01*
X+3692079Y+3364709D01*
X+3617748Y+3439040D01*
X+4825250Y+3439040D01*
X+5060960Y+3674750D01*
X+5060960Y+4929181D01*
X+5245249Y+4929181D01*
X+5245249Y+5350819D01*
X+5060960Y+5350819D01*
X+5060960Y+5939040D01*
X+6939040Y+5939040D01*
X+6939040Y+60960D01*
X+5920718Y+5351514D02*
X+5969024Y+5345348D01*
X+5976368Y+5342369D01*
X+6023185Y+5323374D01*
X+6029745Y+5318334D01*
X+6071941Y+5285912D01*
X+6112556Y+5229825D01*
X+6136772Y+5130000D01*
X+6133286Y+5115629D01*
X+6112556Y+5030175D01*
X+6105517Y+5020454D01*
X+6071941Y+4974088D01*
X+6059182Y+4964284D01*
X+6023185Y+4936626D01*
X+5969024Y+4914652D01*
X+5961168Y+4913649D01*
X+5913000Y+4907501D01*
X+5856976Y+4914652D01*
X+5849632Y+4917631D01*
X+5802815Y+4936626D01*
X+5796255Y+4941666D01*
X+5754059Y+4974088D01*
X+5713444Y+5030175D01*
X+5689228Y+5130000D01*
X+5692714Y+5144371D01*
X+5713444Y+5229825D01*
X+5720483Y+5239546D01*
X+5754059Y+5285912D01*
X+5766818Y+5295716D01*
X+5802815Y+5323374D01*
X+5856976Y+5345348D01*
X+5864832Y+5346351D01*
X+5913000Y+5352499D01*
X+5920718Y+5351514D01*
X+6327594Y+4948579D02*
X+6384406Y+4948579D01*
X+6424579Y+4908406D01*
X+6424579Y+4851594D01*
X+6384406Y+4811421D01*
X+6327594Y+4811421D01*
X+6287421Y+4851594D01*
X+6287421Y+4908406D01*
X+6327594Y+4948579D01*
X+6311812Y+4732679D02*
X+6400188Y+4732679D01*
X+6462679Y+4670188D01*
X+6462679Y+4581812D01*
X+6400188Y+4519321D01*
X+6311812Y+4519321D01*
X+6249321Y+4581812D01*
X+6249321Y+4670188D01*
X+6311812Y+4732679D01*
X+6311812Y+4478679D02*
X+6400188Y+4478679D01*
X+6462679Y+4416188D01*
X+6462679Y+4327812D01*
X+6400188Y+4265321D01*
X+6311812Y+4265321D01*
X+6249321Y+4327812D01*
X+6249321Y+4416188D01*
X+6311812Y+4478679D01*
X+6311812Y+4224679D02*
X+6400188Y+4224679D01*
X+6462679Y+4162188D01*
X+6462679Y+4073812D01*
X+6400188Y+4011321D01*
X+6311812Y+4011321D01*
X+6249321Y+4073812D01*
X+6249321Y+4162188D01*
X+6311812Y+4224679D01*
X+6311812Y+3970679D02*
X+6400188Y+3970679D01*
X+6462679Y+3908188D01*
X+6462679Y+3819812D01*
X+6400188Y+3757321D01*
X+6311812Y+3757321D01*
X+6249321Y+3819812D01*
X+6249321Y+3908188D01*
X+6311812Y+3970679D01*
X+6311812Y+3716679D02*
X+6400188Y+3716679D01*
X+6462679Y+3654188D01*
X+6462679Y+3565812D01*
X+6400188Y+3503321D01*
X+6311812Y+3503321D01*
X+6249321Y+3565812D01*
X+6249321Y+3654188D01*
X+6311812Y+3716679D01*
X+6311812Y+3462679D02*
X+6400188Y+3462679D01*
X+6462679Y+3400188D01*
X+6462679Y+3311812D01*
X+6400188Y+3249321D01*
X+6311812Y+3249321D01*
X+6249321Y+3311812D01*
X+6249321Y+3400188D01*
X+6311812Y+3462679D01*
X+6311812Y+3208679D02*
X+6400188Y+3208679D01*
X+6462679Y+3146188D01*
X+6462679Y+3057812D01*
X+6400188Y+2995321D01*
X+6311812Y+2995321D01*
X+6249321Y+3057812D01*
X+6249321Y+3146188D01*
X+6311812Y+3208679D01*
X+6311812Y+2954679D02*
X+6400188Y+2954679D01*
X+6462679Y+2892188D01*
X+6462679Y+2803812D01*
X+6400188Y+2741321D01*
X+6311812Y+2741321D01*
X+6249321Y+2803812D01*
X+6249321Y+2892188D01*
X+6311812Y+2954679D01*
X+6311812Y+414679D02*
X+6400188Y+414679D01*
X+6462679Y+352188D01*
X+6462679Y+263812D01*
X+6400188Y+201321D01*
X+6311812Y+201321D01*
X+6249321Y+263812D01*
X+6249321Y+352188D01*
X+6311812Y+414679D01*
X+1251073Y+1617979D02*
X+1328927Y+1617979D01*
X+1383979Y+1562927D01*
X+1383979Y+1485073D01*
X+1328927Y+1430021D01*
X+1251073Y+1430021D01*
X+1196021Y+1485073D01*
X+1196021Y+1562927D01*
X+1251073Y+1617979D01*
X+1251073Y+1363979D02*
X+1328927Y+1363979D01*
X+1383979Y+1308927D01*
X+1383979Y+1231073D01*
X+1328927Y+1176021D01*
X+1251073Y+1176021D01*
X+1196021Y+1231073D01*
X+1196021Y+1308927D01*
X+1251073Y+1363979D01*
X+1251073Y+1109979D02*
X+1328927Y+1109979D01*
X+1383979Y+1054927D01*
X+1383979Y+977073D01*
X+1328927Y+922021D01*
X+1251073Y+922021D01*
X+1196021Y+977073D01*
X+1196021Y+1054927D01*
X+1251073Y+1109979D01*
X+1251073Y+855979D02*
X+1328927Y+855979D01*
X+1383979Y+800927D01*
X+1383979Y+723073D01*
X+1328927Y+668021D01*
X+1251073Y+668021D01*
X+1196021Y+723073D01*
X+1196021Y+800927D01*
X+1251073Y+855979D01*
X+1251073Y+601979D02*
X+1328927Y+601979D01*
X+1383979Y+546927D01*
X+1383979Y+469073D01*
X+1328927Y+414021D01*
X+1251073Y+414021D01*
X+1196021Y+469073D01*
X+1196021Y+546927D01*
X+1251073Y+601979D01*
X+2013073Y+601979D02*
X+2090927Y+601979D01*
X+2145979Y+546927D01*
X+2145979Y+469073D01*
X+2090927Y+414021D01*
X+2013073Y+414021D01*
X+1958021Y+469073D01*
X+1958021Y+546927D01*
X+2013073Y+601979D01*
X+2013073Y+855979D02*
X+2090927Y+855979D01*
X+2145979Y+800927D01*
X+2145979Y+723073D01*
X+2090927Y+668021D01*
X+2013073Y+668021D01*
X+1958021Y+723073D01*
X+1958021Y+800927D01*
X+2013073Y+855979D01*
X+2013073Y+1109979D02*
X+2090927Y+1109979D01*
X+2145979Y+1054927D01*
X+2145979Y+977073D01*
X+2090927Y+922021D01*
X+2013073Y+922021D01*
X+1958021Y+977073D01*
X+1958021Y+1054927D01*
X+2013073Y+1109979D01*
X+2013073Y+1363979D02*
X+2090927Y+1363979D01*
X+2145979Y+1308927D01*
X+2145979Y+1231073D01*
X+2090927Y+1176021D01*
X+2013073Y+1176021D01*
X+1958021Y+1231073D01*
X+1958021Y+1308927D01*
X+2013073Y+1363979D01*
X+2461073Y+1577979D02*
X+2538927Y+1577979D01*
X+2593979Y+1522927D01*
X+2593979Y+1445073D01*
X+2538927Y+1390021D01*
X+2461073Y+1390021D01*
X+2406021Y+1445073D01*
X+2406021Y+1522927D01*
X+2461073Y+1577979D01*
X+2461073Y+1323979D02*
X+2538927Y+1323979D01*
X+2593979Y+1268927D01*
X+2593979Y+1191073D01*
X+2538927Y+1136021D01*
X+2461073Y+1136021D01*
X+2406021Y+1191073D01*
X+2406021Y+1268927D01*
X+2461073Y+1323979D01*
X+2461073Y+1069979D02*
X+2538927Y+1069979D01*
X+2593979Y+1014927D01*
X+2593979Y+937073D01*
X+2538927Y+882021D01*
X+2461073Y+882021D01*
X+2406021Y+937073D01*
X+2406021Y+1014927D01*
X+2461073Y+1069979D01*
X+2461073Y+815979D02*
X+2538927Y+815979D01*
X+2593979Y+760927D01*
X+2593979Y+683073D01*
X+2538927Y+628021D01*
X+2461073Y+628021D01*
X+2406021Y+683073D01*
X+2406021Y+760927D01*
X+2461073Y+815979D01*
X+3223073Y+815979D02*
X+3300927Y+815979D01*
X+3355979Y+760927D01*
X+3355979Y+683073D01*
X+3300927Y+628021D01*
X+3223073Y+628021D01*
X+3168021Y+683073D01*
X+3168021Y+760927D01*
X+3223073Y+815979D01*
X+3223073Y+1069979D02*
X+3300927Y+1069979D01*
X+3355979Y+1014927D01*
X+3355979Y+937073D01*
X+3300927Y+882021D01*
X+3223073Y+882021D01*
X+3168021Y+937073D01*
X+3168021Y+1014927D01*
X+3223073Y+1069979D01*
X+3223073Y+1323979D02*
X+3300927Y+1323979D01*
X+3355979Y+1268927D01*
X+3355979Y+1191073D01*
X+3300927Y+1136021D01*
X+3223073Y+1136021D01*
X+3168021Y+1191073D01*
X+3168021Y+1268927D01*
X+3223073Y+1323979D01*
X+3223073Y+1577979D02*
X+3300927Y+1577979D01*
X+3355979Y+1522927D01*
X+3355979Y+1445073D01*
X+3300927Y+1390021D01*
X+3223073Y+1390021D01*
X+3168021Y+1445073D01*
X+3168021Y+1522927D01*
X+3223073Y+1577979D01*
X+3223073Y+1831979D02*
X+3300927Y+1831979D01*
X+3355979Y+1776927D01*
X+3355979Y+1699073D01*
X+3300927Y+1644021D01*
X+3223073Y+1644021D01*
X+3168021Y+1699073D01*
X+3168021Y+1776927D01*
X+3223073Y+1831979D01*
X+3223073Y+2085979D02*
X+3300927Y+2085979D01*
X+3355979Y+2030927D01*
X+3355979Y+1953073D01*
X+3300927Y+1898021D01*
X+3223073Y+1898021D01*
X+3168021Y+1953073D01*
X+3168021Y+2030927D01*
X+3223073Y+2085979D01*
X+3060959Y+1689041D02*
X+3060959Y+1599041D01*
X+3012677Y+1599041D01*
X+2899199Y+1485563D01*
X+2899199Y+1330810D01*
X+2758088Y+1189699D01*
X+2758088Y+1180069D01*
X+2787298Y+1150859D01*
X+2787298Y+1083525D01*
X+2739686Y+1035913D01*
X+2672352Y+1035913D01*
X+2624740Y+1083525D01*
X+2624740Y+1150859D01*
X+2653950Y+1180069D01*
X+2653950Y+1232833D01*
X+2795061Y+1373944D01*
X+2795061Y+1528697D01*
X+2939041Y+1672677D01*
X+2939041Y+1810959D01*
X+3060959Y+1810959D01*
X+3060959Y+1689041D01*
X+5325249Y+2729181D02*
X+5134751Y+2729181D01*
X+5134751Y+3150819D01*
X+5325249Y+3150819D01*
X+5325249Y+2729181D01*
X+4700329Y+2451558D02*
X+4700329Y+2368442D01*
X+4641887Y+2310000D01*
X+4700329Y+2251558D01*
X+4700329Y+2168442D01*
X+4641887Y+2110000D01*
X+4700329Y+2051558D01*
X+4700329Y+1968442D01*
X+4641887Y+1910000D01*
X+4700329Y+1851558D01*
X+4700329Y+1768442D01*
X+4641558Y+1709671D01*
X+4558442Y+1709671D01*
X+4499671Y+1768442D01*
X+4499671Y+1851558D01*
X+4558113Y+1910000D01*
X+4499671Y+1968442D01*
X+4499671Y+2051558D01*
X+4558113Y+2110000D01*
X+4499671Y+2168442D01*
X+4499671Y+2251558D01*
X+4558113Y+2310000D01*
X+4499671Y+2368442D01*
X+4499671Y+2451558D01*
X+4558442Y+2510329D01*
X+4641558Y+2510329D01*
X+4700329Y+2451558D01*
X+5206879Y+4229646D02*
X+5206879Y+4183354D01*
X+5194179Y+4170654D01*
X+5194179Y+3426615D01*
X+5105385Y+3337821D01*
X+4216385Y+3337821D01*
X+4178179Y+3299615D01*
X+4178179Y+3007115D01*
X+4093926Y+2922862D01*
X+4102079Y+2914709D01*
X+4102079Y+2805291D01*
X+4024709Y+2727921D01*
X+3915291Y+2727921D01*
X+3837921Y+2805291D01*
X+3837921Y+2914709D01*
X+3915291Y+2992079D01*
X+4024709Y+2992079D01*
X+4032862Y+2983926D01*
X+4091821Y+3042885D01*
X+4091821Y+3225033D01*
X+4034709Y+3167921D01*
X+3925291Y+3167921D01*
X+3847921Y+3245291D01*
X+3847921Y+3354709D01*
X+3925291Y+3432079D01*
X+4034709Y+3432079D01*
X+4111612Y+3355176D01*
X+4180615Y+3424179D01*
X+5069615Y+3424179D01*
X+5107821Y+3462385D01*
X+5107821Y+4170654D01*
X+5095121Y+4183354D01*
X+5095121Y+4229646D01*
X+5127854Y+4262379D01*
X+5174146Y+4262379D01*
X+5206879Y+4229646D01*
X+3692079Y+2914709D02*
X+3692079Y+2805291D01*
X+3614709Y+2727921D01*
X+3505291Y+2727921D01*
X+3427921Y+2805291D01*
X+3427921Y+2816822D01*
X+3368114Y+2816822D01*
X+3367815Y+2817121D01*
X+3349854Y+2817121D01*
X+3317121Y+2849854D01*
X+3317121Y+2896146D01*
X+3349854Y+2928879D01*
X+3396146Y+2928879D01*
X+3421847Y+2903178D01*
X+3427921Y+2903178D01*
X+3427921Y+2914709D01*
X+3505291Y+2992079D01*
X+3614709Y+2992079D01*
X+3692079Y+2914709D01*
X+4482436Y+973377D02*
X+4482436Y+999679D01*
X+4501035Y+1018278D01*
X+4527337Y+1018278D01*
X+4545936Y+999679D01*
X+4545936Y+973377D01*
X+4527337Y+954778D01*
X+4501035Y+954778D01*
X+4482436Y+973377D01*
X+6249321Y+1368188D02*
X+6249321Y+1279812D01*
X+6302161Y+1226972D01*
X+6246945Y+1226972D01*
X+5973152Y+953179D01*
X+5760959Y+953179D01*
X+5760959Y+1120959D01*
X+5639041Y+1120959D01*
X+5639041Y+1112069D01*
X+5520329Y+1112069D01*
X+5520329Y+1151558D01*
X+5465415Y+1206472D01*
X+6082862Y+1206472D01*
X+6245584Y+1369194D01*
X+6250327Y+1369194D01*
X+6249321Y+1368188D01*
X+5912208Y+1026061D02*
X+5912208Y+1052363D01*
X+5930807Y+1070962D01*
X+5957109Y+1070962D01*
X+5975708Y+1052363D01*
X+5975708Y+1026061D01*
X+5957109Y+1007462D01*
X+5930807Y+1007462D01*
X+5912208Y+1026061D01*
X+5639041Y+999041D02*
X+5639041Y+953179D01*
X+5518708Y+953179D01*
X+5463956Y+1007931D01*
X+5639041Y+1007931D01*
X+5639041Y+999041D01*
X+4169041Y+1009041D02*
X+4169041Y+928736D01*
X+4120329Y+928736D01*
X+4120329Y+961558D01*
X+4063956Y+1017931D01*
X+4169041Y+1017931D01*
X+4169041Y+1009041D01*
X+641000Y+4220679D02*
X+641000Y+4114000D01*
X+641000Y+4007321D02*
X+641000Y+4114000D01*
X+534321Y+4114000D02*
X+641000Y+4114000D01*
X+747679Y+4114000D02*
X+641000Y+4114000D01*
X+260000Y+2696679D02*
X+260000Y+2590000D01*
X+260000Y+2483321D02*
X+260000Y+2590000D01*
X+153321Y+2590000D02*
X+260000Y+2590000D01*
X+366679Y+2590000D02*
X+260000Y+2590000D01*
X+641000Y+2696679D02*
X+641000Y+2590000D01*
X+641000Y+2483321D02*
X+641000Y+2590000D01*
X+534321Y+2590000D02*
X+641000Y+2590000D01*
X+747679Y+2590000D02*
X+641000Y+2590000D01*
X+641000Y+2442679D02*
X+641000Y+2336000D01*
X+641000Y+2229321D02*
X+641000Y+2336000D01*
X+534321Y+2336000D02*
X+641000Y+2336000D01*
X+747679Y+2336000D02*
X+641000Y+2336000D01*
X+6356000Y+3970679D02*
X+6356000Y+3864000D01*
X+6356000Y+3757321D02*
X+6356000Y+3864000D01*
X+6249321Y+3864000D02*
X+6356000Y+3864000D01*
X+6462679Y+3864000D02*
X+6356000Y+3864000D01*
X+1290000Y+2633979D02*
X+1290000Y+2540000D01*
X+1290000Y+2446021D02*
X+1290000Y+2540000D01*
X+1196021Y+2540000D02*
X+1290000Y+2540000D01*
X+1383979Y+2540000D02*
X+1290000Y+2540000D01*
X+1290000Y+1617979D02*
X+1290000Y+1524000D01*
X+1290000Y+1430021D02*
X+1290000Y+1524000D01*
X+1196021Y+1524000D02*
X+1290000Y+1524000D01*
X+1383979Y+1524000D02*
X+1290000Y+1524000D01*
X+1290000Y+1363979D02*
X+1290000Y+1270000D01*
X+1290000Y+1176021D02*
X+1290000Y+1270000D01*
X+1196021Y+1270000D02*
X+1290000Y+1270000D01*
X+1383979Y+1270000D02*
X+1290000Y+1270000D01*
X+1290000Y+1109979D02*
X+1290000Y+1016000D01*
X+1290000Y+922021D02*
X+1290000Y+1016000D01*
X+1196021Y+1016000D02*
X+1290000Y+1016000D01*
X+1383979Y+1016000D02*
X+1290000Y+1016000D01*
X+1290000Y+855979D02*
X+1290000Y+762000D01*
X+1290000Y+668021D02*
X+1290000Y+762000D01*
X+1196021Y+762000D02*
X+1290000Y+762000D01*
X+1383979Y+762000D02*
X+1290000Y+762000D01*
X+1290000Y+601979D02*
X+1290000Y+508000D01*
X+1290000Y+414021D02*
X+1290000Y+508000D01*
X+1196021Y+508000D02*
X+1290000Y+508000D01*
X+1383979Y+508000D02*
X+1290000Y+508000D01*
X+1290000Y+347979D02*
X+1290000Y+254000D01*
X+1196021Y+254000D02*
X+1290000Y+254000D01*
X+1383979Y+254000D02*
X+1290000Y+254000D01*
X+2052000Y+2379979D02*
X+2052000Y+2286000D01*
X+2052000Y+2192021D02*
X+2052000Y+2286000D01*
X+1958021Y+2286000D02*
X+2052000Y+2286000D01*
X+2145979Y+2286000D02*
X+2052000Y+2286000D01*
X+2500000Y+1577979D02*
X+2500000Y+1484000D01*
X+2500000Y+1390021D02*
X+2500000Y+1484000D01*
X+2406021Y+1484000D02*
X+2500000Y+1484000D01*
X+2593979Y+1484000D02*
X+2500000Y+1484000D01*
X+2500000Y+1069979D02*
X+2500000Y+976000D01*
X+2500000Y+882021D02*
X+2500000Y+976000D01*
X+2406021Y+976000D02*
X+2500000Y+976000D01*
X+2593979Y+976000D02*
X+2500000Y+976000D01*
X+3262000Y+815979D02*
X+3262000Y+722000D01*
X+3262000Y+628021D02*
X+3262000Y+722000D01*
X+3168021Y+722000D02*
X+3262000Y+722000D01*
X+3355979Y+722000D02*
X+3262000Y+722000D01*
X+3262000Y+1323979D02*
X+3262000Y+1230000D01*
X+3262000Y+1136021D02*
X+3262000Y+1230000D01*
X+3168021Y+1230000D02*
X+3262000Y+1230000D01*
X+3355979Y+1230000D02*
X+3262000Y+1230000D01*
X+3262000Y+2085979D02*
X+3262000Y+1992000D01*
X+3262000Y+1898021D02*
X+3262000Y+1992000D01*
X+3168021Y+1992000D02*
X+3262000Y+1992000D01*
X+3355979Y+1992000D02*
X+3262000Y+1992000D01*
X+2939041Y+1750000D02*
X+3000000Y+1750000D01*
X+3060959Y+1750000D02*
X+3000000Y+1750000D01*
X+3000000Y+1810959D02*
X+3000000Y+1750000D01*
X+1342879Y+4530000D02*
X+1160000Y+4530000D01*
X+977121Y+4530000D02*
X+1160000Y+4530000D01*
X+1160000Y+4712879D02*
X+1160000Y+4530000D01*
X+1160000Y+4347121D02*
X+1160000Y+4530000D01*
X+5209921Y+4520000D02*
X+5342000Y+4520000D01*
X+5342000Y+4652079D02*
X+5342000Y+4520000D01*
X+5342000Y+4387921D02*
X+5342000Y+4520000D01*
X+5209921Y+3440000D02*
X+5342000Y+3440000D01*
X+5342000Y+3572079D02*
X+5342000Y+3440000D01*
X+5342000Y+3307921D02*
X+5342000Y+3440000D01*
X+5420000Y+409671D02*
X+5420000Y+510000D01*
X+5520329Y+510000D02*
X+5420000Y+510000D01*
X+5319671Y+510000D02*
X+5420000Y+510000D01*
X+1285249Y+4070000D02*
X+1190000Y+4070000D01*
X+1094751Y+4070000D02*
X+1190000Y+4070000D01*
X+1190000Y+4280819D02*
X+1190000Y+4070000D01*
X+1190000Y+3859181D02*
X+1190000Y+4070000D01*
X+5245249Y+5140000D02*
X+5150000Y+5140000D01*
X+5150000Y+5350819D02*
X+5150000Y+5140000D01*
X+5150000Y+4929181D02*
X+5150000Y+5140000D01*
X+5325249Y+2940000D02*
X+5230000Y+2940000D01*
X+5134751Y+2940000D02*
X+5230000Y+2940000D01*
X+5230000Y+3150819D02*
X+5230000Y+2940000D01*
X+5230000Y+2729181D02*
X+5230000Y+2940000D01*
X+5760959Y+970000D02*
X+5700000Y+970000D01*
X+5639041Y+970000D02*
X+5700000Y+970000D01*
X+4840329Y+710000D02*
X+4740000Y+710000D01*
X+4639671Y+710000D02*
X+4740000Y+710000D01*
X+4020000Y+419671D02*
X+4020000Y+520000D01*
X+4120329Y+520000D02*
X+4020000Y+520000D01*
X+3919671Y+520000D02*
X+4020000Y+520000D01*
X+4290959Y+980000D02*
X+4230000Y+980000D01*
X+4169041Y+980000D02*
X+4230000Y+980000D01*
X+1437921Y+5470000D02*
X+1570000Y+5470000D01*
X+1702079Y+5470000D02*
X+1570000Y+5470000D01*
X+1570000Y+5337921D02*
X+1570000Y+5470000D01*
X+1570000Y+5602079D02*
X+1570000Y+5470000D01*
X+4540000Y+3316079D02*
X+4540000Y+3184000D01*
X+4672079Y+3184000D02*
X+4540000Y+3184000D01*
X+4407921Y+3184000D02*
X+4540000Y+3184000D01*
X+4700329Y+2010000D02*
X+4600000Y+2010000D01*
X+4499671Y+2010000D02*
X+4600000Y+2010000D01*
X+1565249Y+3530000D02*
X+1470000Y+3530000D01*
X+1374751Y+3530000D02*
X+1470000Y+3530000D01*
X+1470000Y+3740819D02*
X+1470000Y+3530000D01*
X+1470000Y+3319181D02*
X+1470000Y+3530000D01*
X+1810000Y+3125249D02*
X+1810000Y+3030000D01*
X+1810000Y+2934751D02*
X+1810000Y+3030000D01*
X+1599181Y+3030000D02*
X+1810000Y+3030000D01*
X+1294751Y+2840000D02*
X+1390000Y+2840000D01*
X+1485249Y+2840000D02*
X+1390000Y+2840000D01*
X+1390000Y+2629181D02*
X+1390000Y+2840000D01*
X+1390000Y+3050819D02*
X+1390000Y+2840000D01*
X+1620000Y+2379041D02*
X+1620000Y+2440000D01*
X+1620000Y+2500959D02*
X+1620000Y+2440000D01*
X+1559041Y+2440000D02*
X+1620000Y+2440000D01*
D15*
X+641000Y+4876000D03*
X+260000Y+4622000D03*
X+641000Y+4622000D03*
X+260000Y+4368000D03*
X+641000Y+4368000D03*
X+260000Y+4114000D03*
X+641000Y+4114000D03*
X+260000Y+3860000D03*
X+641000Y+3860000D03*
X+260000Y+3606000D03*
X+641000Y+3606000D03*
X+260000Y+3352000D03*
X+641000Y+3352000D03*
X+260000Y+3098000D03*
X+641000Y+3098000D03*
X+260000Y+2844000D03*
X+641000Y+2844000D03*
X+260000Y+2590000D03*
X+641000Y+2590000D03*
X+260000Y+2336000D03*
X+641000Y+2336000D03*
X+260000Y+2082000D03*
X+641000Y+2082000D03*
X+260000Y+1828000D03*
X+641000Y+1828000D03*
X+260000Y+1574000D03*
X+641000Y+1574000D03*
X+260000Y+1320000D03*
X+641000Y+1320000D03*
X+260000Y+1066000D03*
X+641000Y+1066000D03*
X+260000Y+812000D03*
X+641000Y+812000D03*
X+260000Y+558000D03*
X+641000Y+558000D03*
X+260000Y+304000D03*
X+641000Y+304000D03*
X+6737000Y+4880000D03*
X+6356000Y+4626000D03*
X+6737000Y+4626000D03*
X+6356000Y+4372000D03*
X+6737000Y+4372000D03*
X+6356000Y+4118000D03*
X+6737000Y+4118000D03*
X+6356000Y+3864000D03*
X+6737000Y+3864000D03*
X+6356000Y+3610000D03*
X+6737000Y+3610000D03*
X+6356000Y+3356000D03*
X+6737000Y+3356000D03*
X+6356000Y+3102000D03*
X+6737000Y+3102000D03*
X+6356000Y+2848000D03*
X+6737000Y+2848000D03*
X+6356000Y+2594000D03*
X+6737000Y+2594000D03*
X+6356000Y+2340000D03*
X+6737000Y+2340000D03*
X+6356000Y+2086000D03*
X+6737000Y+2086000D03*
X+6356000Y+1832000D03*
X+6737000Y+1832000D03*
X+6356000Y+1578000D03*
X+6737000Y+1578000D03*
X+6356000Y+1324000D03*
X+6737000Y+1324000D03*
X+6356000Y+1070000D03*
X+6737000Y+1070000D03*
X+6356000Y+816000D03*
X+6737000Y+816000D03*
X+6356000Y+562000D03*
X+6737000Y+562000D03*
X+6356000Y+308000D03*
X+6737000Y+308000D03*
D14*
X+1290000Y+2540000D03*
D16*
X+1290000Y+2286000D03*
X+1290000Y+2032000D03*
X+1290000Y+1778000D03*
X+1290000Y+1524000D03*
X+1290000Y+1270000D03*
X+1290000Y+1016000D03*
X+1290000Y+762000D03*
X+1290000Y+508000D03*
X+1290000Y+254000D03*
X+2052000Y+254000D03*
X+2052000Y+508000D03*
X+2052000Y+762000D03*
X+2052000Y+1016000D03*
X+2052000Y+1270000D03*
X+2052000Y+1524000D03*
X+2052000Y+1778000D03*
X+2052000Y+2032000D03*
X+2052000Y+2286000D03*
X+2052000Y+2540000D03*
D14*
X+2500000Y+2500000D03*
D16*
X+2500000Y+2246000D03*
X+2500000Y+1992000D03*
X+2500000Y+1738000D03*
X+2500000Y+1484000D03*
X+2500000Y+1230000D03*
X+2500000Y+976000D03*
X+2500000Y+722000D03*
X+3262000Y+722000D03*
X+3262000Y+976000D03*
X+3262000Y+1230000D03*
X+3262000Y+1484000D03*
X+3262000Y+1738000D03*
X+3262000Y+1992000D03*
X+3262000Y+2246000D03*
X+3262000Y+2500000D03*
D23*
X+3000000Y+1750000D03*
X+3000000Y+1660000D03*
D17*
X+1668000Y+4530000D03*
X+1160000Y+4530000D03*
D18*
X+5850000Y+4520000D03*
X+5596000Y+4520000D03*
X+5342000Y+4520000D03*
X+5850000Y+3440000D03*
X+5596000Y+3440000D03*
X+5342000Y+3440000D03*
D19*
X+5420000Y+1110000D03*
X+5420000Y+910000D03*
X+5420000Y+710000D03*
X+5420000Y+510000D03*
D24*
X+1190000Y+4070000D03*
X+1620000Y+4070000D03*
X+5150000Y+5140000D03*
X+5580000Y+5140000D03*
X+5230000Y+2940000D03*
X+5660000Y+2940000D03*
D23*
X+5700000Y+970000D03*
X+5700000Y+1060000D03*
D19*
X+4740000Y+1110000D03*
X+4740000Y+910000D03*
X+4740000Y+710000D03*
X+4740000Y+510000D03*
X+4020000Y+1120000D03*
X+4020000Y+920000D03*
X+4020000Y+720000D03*
X+4020000Y+520000D03*
D23*
X+4230000Y+980000D03*
X+4230000Y+1070000D03*
D18*
X+1570000Y+5470000D03*
D70*
X+4540000Y+2930000D03*
X+4540000Y+3184000D03*
D19*
X+4600000Y+2410000D03*
X+4600000Y+2210000D03*
X+4600000Y+2010000D03*
X+4600000Y+1810000D03*
D18*
X+2300000Y+3310000D03*
X+2730000Y+3300000D03*
X+3140000Y+3310000D03*
X+3560000Y+3310000D03*
X+3980000Y+3300000D03*
X+3560000Y+2860000D03*
X+3970000Y+2860000D03*
X+3570000Y+2410000D03*
X+4000000Y+2420000D03*
X+3580000Y+1970000D03*
X+4000000Y+1990000D03*
X+4010000Y+1540000D03*
D24*
X+1040000Y+3530000D03*
X+1470000Y+3530000D03*
D25*
X+1810000Y+3030000D03*
X+1810000Y+3460000D03*
D24*
X+1390000Y+2840000D03*
X+960000Y+2840000D03*
D23*
X+1620000Y+2440000D03*
X+1710000Y+2440000D03*
D20*
X+0Y+0D02*
X+1650000Y+0D01*
X+7000000Y+0D02*
X+7000000Y+6000000D01*
X+5000000Y+6000000D01*
X+5000000Y+3700000D01*
X+4800000Y+3500000D01*
X+2200000Y+3500000D01*
X+2000000Y+3700000D02*
X+2000000Y+6000000D01*
X+0Y+6000000D01*
X+0Y+0D01*
X+2000000Y+3700000D02*
X+2200000Y+3500000D01*
X+5160000Y+0D02*
X+7000000Y+0D01*
X+1750000Y-200000D02*
X+5050000Y-200000D01*
X+1650000Y+0D02*
X+1750000Y-200000D01*
X+5160000Y+0D02*
X+5050000Y-200000D01*
X+4550045Y+50000D02*
X+4549508Y+63142D01*
X+4545144Y+89427D01*
X+4536029Y+115712D01*
X+4521182Y+141997D01*
X+4498470Y+168118D01*
X+4472185Y+187898D01*
X+4445900Y+200658D01*
X+4419615Y+208108D01*
X+4393330Y+210987D01*
X+4389000Y+211045D01*
X+4227955Y+50000D02*
X+4228492Y+63142D01*
X+4232856Y+89427D01*
X+4241971Y+115712D01*
X+4256818Y+141997D01*
X+4279530Y+168118D01*
X+4305815Y+187898D01*
X+4332100Y+200658D01*
X+4358385Y+208108D01*
X+4384670Y+210987D01*
X+4389000Y+211045D01*
X+4227955Y+50000D02*
X+4228492Y+36858D01*
X+4232856Y+10573D01*
X+4241971Y-15712D01*
X+4256818Y-41997D01*
X+4279530Y-68118D01*
X+4305815Y-87898D01*
X+4332100Y-100658D01*
X+4358385Y-108108D01*
X+4384670Y-110987D01*
X+4389000Y-111045D01*
X+4550045Y+50000D02*
X+4549508Y+36858D01*
X+4545144Y+10573D01*
X+4536029Y-15712D01*
X+4521182Y-41997D01*
X+4498470Y-68118D01*
X+4472185Y-87898D01*
X+4445900Y-100658D01*
X+4419615Y-108108D01*
X+4393330Y-110987D01*
X+4389000Y-111045D01*
X+6074045Y+5130000D02*
X+6073508Y+5143142D01*
X+6069144Y+5169427D01*
X+6060029Y+5195712D01*
X+6045182Y+5221997D01*
X+6022470Y+5248118D01*
X+5996185Y+5267898D01*
X+5969900Y+5280658D01*
X+5943615Y+5288108D01*
X+5917330Y+5290987D01*
X+5913000Y+5291045D01*
X+5751955Y+5130000D02*
X+5752492Y+5143142D01*
X+5756856Y+5169427D01*
X+5765971Y+5195712D01*
X+5780818Y+5221997D01*
X+5803530Y+5248118D01*
X+5829815Y+5267898D01*
X+5856100Y+5280658D01*
X+5882385Y+5288108D01*
X+5908670Y+5290987D01*
X+5913000Y+5291045D01*
X+5751955Y+5130000D02*
X+5752492Y+5116858D01*
X+5756856Y+5090573D01*
X+5765971Y+5064288D01*
X+5780818Y+5038003D01*
X+5803530Y+5011882D01*
X+5829815Y+4992102D01*
X+5856100Y+4979342D01*
X+5882385Y+4971892D01*
X+5908670Y+4969013D01*
X+5913000Y+4968955D01*
X+6074045Y+5130000D02*
X+6073508Y+5116858D01*
X+6069144Y+5090573D01*
X+6060029Y+5064288D01*
X+6045182Y+5038003D01*
X+6022470Y+5011882D01*
X+5996185Y+4992102D01*
X+5969900Y+4979342D01*
X+5943615Y+4971892D01*
X+5917330Y+4969013D01*
X+5913000Y+4968955D01*
X+1248045Y+5257000D02*
X+1247508Y+5270142D01*
X+1243144Y+5296427D01*
X+1234029Y+5322712D01*
X+1219182Y+5348997D01*
X+1196470Y+5375118D01*
X+1170185Y+5394898D01*
X+1143900Y+5407658D01*
X+1117615Y+5415108D01*
X+1091330Y+5417987D01*
X+1087000Y+5418045D01*
X+925955Y+5257000D02*
X+926492Y+5270142D01*
X+930856Y+5296427D01*
X+939971Y+5322712D01*
X+954818Y+5348997D01*
X+977530Y+5375118D01*
X+1003815Y+5394898D01*
X+1030100Y+5407658D01*
X+1056385Y+5415108D01*
X+1082670Y+5417987D01*
X+1087000Y+5418045D01*
X+925955Y+5257000D02*
X+926492Y+5243858D01*
X+930856Y+5217573D01*
X+939971Y+5191288D01*
X+954818Y+5165003D01*
X+977530Y+5138882D01*
X+1003815Y+5119102D01*
X+1030100Y+5106342D01*
X+1056385Y+5098892D01*
X+1082670Y+5096013D01*
X+1087000Y+5095955D01*
X+1248045Y+5257000D02*
X+1247508Y+5243858D01*
X+1243144Y+5217573D01*
X+1234029Y+5191288D01*
X+1219182Y+5165003D01*
X+1196470Y+5138882D01*
X+1170185Y+5119102D01*
X+1143900Y+5106342D01*
X+1117615Y+5098892D01*
X+1091330Y+5096013D01*
X+1087000Y+5095955D01*
M02*
