G04 PROTEUS GERBER X2 FILE*
%TF.GenerationSoftware,Labcenter,Proteus,8.12-SP2-Build31155*%
%TF.CreationDate,2022-12-03T19:28:30+00:00*%
%TF.FileFunction,AssemblyDrawing,Bot*%
%TF.FilePolarity,Positive*%
%TF.Part,Single*%
%TF.SameCoordinates,{ab386329-c5d6-4b76-aca3-cb6d5b16447b}*%
%FSLAX45Y45*%
%MOMM*%
G01*
%TA.AperFunction,Profile*%
%ADD20C,0.203200*%
%TA.AperFunction,Material*%
%ADD26C,0.203200*%
%ADD27C,0.508000*%
%ADD59C,0.461430*%
%ADD60C,0.473190*%
%ADD56C,0.050000*%
%ADD61C,0.243840*%
%ADD62C,0.034990*%
%ADD63C,1.165860*%
%ADD64C,0.147960*%
%TD.AperFunction*%
D20*
X+0Y+0D02*
X+1650000Y+0D01*
X+7000000Y+0D02*
X+7000000Y+6000000D01*
X+5000000Y+6000000D01*
X+5000000Y+3700000D01*
X+4800000Y+3500000D01*
X+2200000Y+3500000D01*
X+2000000Y+3700000D02*
X+2000000Y+6000000D01*
X+0Y+6000000D01*
X+0Y+0D01*
X+2000000Y+3700000D02*
X+2200000Y+3500000D01*
X+5160000Y+0D02*
X+7000000Y+0D01*
X+1750000Y-200000D02*
X+5050000Y-200000D01*
X+1650000Y+0D02*
X+1750000Y-200000D01*
X+5160000Y+0D02*
X+5050000Y-200000D01*
X+4550045Y+50000D02*
X+4549508Y+63142D01*
X+4545144Y+89427D01*
X+4536029Y+115712D01*
X+4521182Y+141997D01*
X+4498470Y+168118D01*
X+4472185Y+187898D01*
X+4445900Y+200658D01*
X+4419615Y+208108D01*
X+4393330Y+210987D01*
X+4389000Y+211045D01*
X+4227955Y+50000D02*
X+4228492Y+63142D01*
X+4232856Y+89427D01*
X+4241971Y+115712D01*
X+4256818Y+141997D01*
X+4279530Y+168118D01*
X+4305815Y+187898D01*
X+4332100Y+200658D01*
X+4358385Y+208108D01*
X+4384670Y+210987D01*
X+4389000Y+211045D01*
X+4227955Y+50000D02*
X+4228492Y+36858D01*
X+4232856Y+10573D01*
X+4241971Y-15712D01*
X+4256818Y-41997D01*
X+4279530Y-68118D01*
X+4305815Y-87898D01*
X+4332100Y-100658D01*
X+4358385Y-108108D01*
X+4384670Y-110987D01*
X+4389000Y-111045D01*
X+4550045Y+50000D02*
X+4549508Y+36858D01*
X+4545144Y+10573D01*
X+4536029Y-15712D01*
X+4521182Y-41997D01*
X+4498470Y-68118D01*
X+4472185Y-87898D01*
X+4445900Y-100658D01*
X+4419615Y-108108D01*
X+4393330Y-110987D01*
X+4389000Y-111045D01*
X+6074045Y+5130000D02*
X+6073508Y+5143142D01*
X+6069144Y+5169427D01*
X+6060029Y+5195712D01*
X+6045182Y+5221997D01*
X+6022470Y+5248118D01*
X+5996185Y+5267898D01*
X+5969900Y+5280658D01*
X+5943615Y+5288108D01*
X+5917330Y+5290987D01*
X+5913000Y+5291045D01*
X+5751955Y+5130000D02*
X+5752492Y+5143142D01*
X+5756856Y+5169427D01*
X+5765971Y+5195712D01*
X+5780818Y+5221997D01*
X+5803530Y+5248118D01*
X+5829815Y+5267898D01*
X+5856100Y+5280658D01*
X+5882385Y+5288108D01*
X+5908670Y+5290987D01*
X+5913000Y+5291045D01*
X+5751955Y+5130000D02*
X+5752492Y+5116858D01*
X+5756856Y+5090573D01*
X+5765971Y+5064288D01*
X+5780818Y+5038003D01*
X+5803530Y+5011882D01*
X+5829815Y+4992102D01*
X+5856100Y+4979342D01*
X+5882385Y+4971892D01*
X+5908670Y+4969013D01*
X+5913000Y+4968955D01*
X+6074045Y+5130000D02*
X+6073508Y+5116858D01*
X+6069144Y+5090573D01*
X+6060029Y+5064288D01*
X+6045182Y+5038003D01*
X+6022470Y+5011882D01*
X+5996185Y+4992102D01*
X+5969900Y+4979342D01*
X+5943615Y+4971892D01*
X+5917330Y+4969013D01*
X+5913000Y+4968955D01*
X+1248045Y+5257000D02*
X+1247508Y+5270142D01*
X+1243144Y+5296427D01*
X+1234029Y+5322712D01*
X+1219182Y+5348997D01*
X+1196470Y+5375118D01*
X+1170185Y+5394898D01*
X+1143900Y+5407658D01*
X+1117615Y+5415108D01*
X+1091330Y+5417987D01*
X+1087000Y+5418045D01*
X+925955Y+5257000D02*
X+926492Y+5270142D01*
X+930856Y+5296427D01*
X+939971Y+5322712D01*
X+954818Y+5348997D01*
X+977530Y+5375118D01*
X+1003815Y+5394898D01*
X+1030100Y+5407658D01*
X+1056385Y+5415108D01*
X+1082670Y+5417987D01*
X+1087000Y+5418045D01*
X+925955Y+5257000D02*
X+926492Y+5243858D01*
X+930856Y+5217573D01*
X+939971Y+5191288D01*
X+954818Y+5165003D01*
X+977530Y+5138882D01*
X+1003815Y+5119102D01*
X+1030100Y+5106342D01*
X+1056385Y+5098892D01*
X+1082670Y+5096013D01*
X+1087000Y+5095955D01*
X+1248045Y+5257000D02*
X+1247508Y+5243858D01*
X+1243144Y+5217573D01*
X+1234029Y+5191288D01*
X+1219182Y+5165003D01*
X+1196470Y+5138882D01*
X+1170185Y+5119102D01*
X+1143900Y+5106342D01*
X+1117615Y+5098892D01*
X+1091330Y+5096013D01*
X+1087000Y+5095955D01*
D26*
X+59840Y+35840D02*
X+840160Y+35840D01*
X+840160Y+5136160D01*
X+59840Y+5136160D01*
X+59840Y+35840D01*
D27*
X+260000Y+4876000D02*
X+260000Y+4876000D01*
D59*
X+542288Y+2754691D02*
X+588432Y+2806603D01*
X+588432Y+2962339D01*
X+496144Y+3066162D01*
X+403856Y+3066162D01*
X+311568Y+2962339D01*
X+311568Y+2806603D01*
X+357712Y+2754691D01*
X+588432Y+2650867D02*
X+311568Y+2650867D01*
X+588432Y+2339396D01*
X+311568Y+2339396D01*
X+311568Y+2183661D02*
X+311568Y+1924101D01*
X+357712Y+1924101D01*
X+588432Y+2183661D01*
D26*
X+6155840Y+39840D02*
X+6936160Y+39840D01*
X+6936160Y+5140160D01*
X+6155840Y+5140160D01*
X+6155840Y+39840D01*
D27*
X+6356000Y+4880000D02*
X+6356000Y+4880000D01*
D60*
X+6640640Y+2979569D02*
X+6687960Y+3032804D01*
X+6687960Y+3192509D01*
X+6593320Y+3298978D01*
X+6498680Y+3298978D01*
X+6404040Y+3192509D01*
X+6404040Y+3032804D01*
X+6451360Y+2979569D01*
X+6687960Y+2873099D02*
X+6404040Y+2873099D01*
X+6687960Y+2553690D01*
X+6404040Y+2553690D01*
X+6498680Y+2340751D02*
X+6404040Y+2234281D01*
X+6687960Y+2234281D01*
X+6640640Y+2021341D02*
X+6451360Y+2021341D01*
X+6404040Y+1968107D01*
X+6404040Y+1755167D01*
X+6451360Y+1701932D01*
X+6640640Y+1701932D01*
X+6687960Y+1755167D01*
X+6687960Y+1968107D01*
X+6640640Y+2021341D01*
X+6687960Y+2021341D02*
X+6404040Y+1701932D01*
D56*
X+3045000Y+1795000D02*
X+3045000Y+1615000D01*
X+2955000Y+1615000D01*
X+2955000Y+1795000D01*
X+3045000Y+1795000D01*
X+2975000Y+1705000D02*
X+3025000Y+1705000D01*
X+3000000Y+1680000D02*
X+3000000Y+1730000D01*
D61*
X+3000000Y+1750000D02*
X+3000000Y+1750000D01*
D62*
X+3007000Y+1683028D02*
X+3010499Y+1686965D01*
X+3010499Y+1698776D01*
X+3003500Y+1706650D01*
X+2996501Y+1706650D01*
X+2989502Y+1698776D01*
X+2989502Y+1686965D01*
X+2993001Y+1683028D01*
X+2996501Y+1651532D02*
X+3000000Y+1655469D01*
X+3000000Y+1667280D01*
X+2996501Y+1671217D01*
X+2993001Y+1671217D01*
X+2989502Y+1667280D01*
X+2989502Y+1655469D01*
X+2993001Y+1651532D01*
X+3007000Y+1651532D01*
X+3010499Y+1655469D01*
X+3010499Y+1667280D01*
D56*
X+1100000Y+4275000D02*
X+1710000Y+4275000D01*
X+1710000Y+3865000D01*
X+1100000Y+3865000D01*
X+1100000Y+4275000D01*
X+1405000Y+4020000D02*
X+1405000Y+4120000D01*
X+1455000Y+4070000D02*
X+1355000Y+4070000D01*
D63*
X+1190000Y+4070000D02*
X+1190000Y+4070000D01*
D64*
X+1513688Y+4040407D02*
X+1530333Y+4025611D01*
X+1580270Y+4025611D01*
X+1613561Y+4055203D01*
X+1613561Y+4084796D01*
X+1580270Y+4114388D01*
X+1530333Y+4114388D01*
X+1513688Y+4099592D01*
X+1380523Y+4055203D02*
X+1480396Y+4055203D01*
X+1413814Y+4114388D01*
X+1413814Y+4025611D01*
D56*
X+5060000Y+5345000D02*
X+5670000Y+5345000D01*
X+5670000Y+4935000D01*
X+5060000Y+4935000D01*
X+5060000Y+5345000D01*
X+5365000Y+5090000D02*
X+5365000Y+5190000D01*
X+5415000Y+5140000D02*
X+5315000Y+5140000D01*
D63*
X+5150000Y+5140000D02*
X+5150000Y+5140000D01*
D64*
X+5473688Y+5110407D02*
X+5490333Y+5095611D01*
X+5540270Y+5095611D01*
X+5573561Y+5125203D01*
X+5573561Y+5154796D01*
X+5540270Y+5184388D01*
X+5490333Y+5184388D01*
X+5473688Y+5169592D01*
X+5340523Y+5169592D02*
X+5357168Y+5184388D01*
X+5407105Y+5184388D01*
X+5423751Y+5169592D01*
X+5423751Y+5110407D01*
X+5407105Y+5095611D01*
X+5357168Y+5095611D01*
X+5340523Y+5110407D01*
X+5340523Y+5125203D01*
X+5357168Y+5140000D01*
X+5423751Y+5140000D01*
D56*
X+5140000Y+3145000D02*
X+5750000Y+3145000D01*
X+5750000Y+2735000D01*
X+5140000Y+2735000D01*
X+5140000Y+3145000D01*
X+5445000Y+2890000D02*
X+5445000Y+2990000D01*
X+5495000Y+2940000D02*
X+5395000Y+2940000D01*
D63*
X+5230000Y+2940000D02*
X+5230000Y+2940000D01*
D64*
X+5553688Y+2910407D02*
X+5570333Y+2895611D01*
X+5620270Y+2895611D01*
X+5653561Y+2925203D01*
X+5653561Y+2954796D01*
X+5620270Y+2984388D01*
X+5570333Y+2984388D01*
X+5553688Y+2969592D01*
X+5503751Y+2984388D02*
X+5420523Y+2984388D01*
X+5420523Y+2969592D01*
X+5503751Y+2895611D01*
D56*
X+5655000Y+925000D02*
X+5655000Y+1105000D01*
X+5745000Y+1105000D01*
X+5745000Y+925000D01*
X+5655000Y+925000D01*
X+5725000Y+1015000D02*
X+5675000Y+1015000D01*
X+5700000Y+1040000D02*
X+5700000Y+990000D01*
D61*
X+5700000Y+970000D02*
X+5700000Y+970000D01*
D62*
X+5707000Y+1052720D02*
X+5710499Y+1056657D01*
X+5710499Y+1068468D01*
X+5703500Y+1076342D01*
X+5696501Y+1076342D01*
X+5689502Y+1068468D01*
X+5689502Y+1056657D01*
X+5693001Y+1052720D01*
X+5700000Y+1036972D02*
X+5696501Y+1040909D01*
X+5693001Y+1040909D01*
X+5689502Y+1036972D01*
X+5689502Y+1025161D01*
X+5693001Y+1021224D01*
X+5696501Y+1021224D01*
X+5700000Y+1025161D01*
X+5700000Y+1036972D01*
X+5703500Y+1040909D01*
X+5707000Y+1040909D01*
X+5710499Y+1036972D01*
X+5710499Y+1025161D01*
X+5707000Y+1021224D01*
X+5703500Y+1021224D01*
X+5700000Y+1025161D01*
D56*
X+4185000Y+935000D02*
X+4185000Y+1115000D01*
X+4275000Y+1115000D01*
X+4275000Y+935000D01*
X+4185000Y+935000D01*
X+4255000Y+1025000D02*
X+4205000Y+1025000D01*
X+4230000Y+1050000D02*
X+4230000Y+1000000D01*
D61*
X+4230000Y+980000D02*
X+4230000Y+980000D01*
D62*
X+4237000Y+1078468D02*
X+4240499Y+1082405D01*
X+4240499Y+1094216D01*
X+4233500Y+1102090D01*
X+4226501Y+1102090D01*
X+4219502Y+1094216D01*
X+4219502Y+1082405D01*
X+4223001Y+1078468D01*
X+4226501Y+1062720D02*
X+4219502Y+1054846D01*
X+4240499Y+1054846D01*
X+4237000Y+1039098D02*
X+4223001Y+1039098D01*
X+4219502Y+1035161D01*
X+4219502Y+1019413D01*
X+4223001Y+1015476D01*
X+4237000Y+1015476D01*
X+4240499Y+1019413D01*
X+4240499Y+1035161D01*
X+4237000Y+1039098D01*
X+4240499Y+1039098D02*
X+4219502Y+1015476D01*
D56*
X+950000Y+3735000D02*
X+1560000Y+3735000D01*
X+1560000Y+3325000D01*
X+950000Y+3325000D01*
X+950000Y+3735000D01*
X+1255000Y+3480000D02*
X+1255000Y+3580000D01*
X+1305000Y+3530000D02*
X+1205000Y+3530000D01*
D63*
X+1040000Y+3530000D02*
X+1040000Y+3530000D01*
D64*
X+1363688Y+3500407D02*
X+1380333Y+3485611D01*
X+1430270Y+3485611D01*
X+1463561Y+3515203D01*
X+1463561Y+3544796D01*
X+1430270Y+3574388D01*
X+1380333Y+3574388D01*
X+1363688Y+3559592D01*
X+1297105Y+3544796D02*
X+1263814Y+3574388D01*
X+1263814Y+3485611D01*
D56*
X+1605000Y+2940000D02*
X+1605000Y+3550000D01*
X+2015000Y+3550000D01*
X+2015000Y+2940000D01*
X+1605000Y+2940000D01*
X+1860000Y+3245000D02*
X+1760000Y+3245000D01*
X+1810000Y+3295000D02*
X+1810000Y+3195000D01*
D63*
X+1810000Y+3030000D02*
X+1810000Y+3030000D01*
D64*
X+1839593Y+3353688D02*
X+1854389Y+3370333D01*
X+1854389Y+3420270D01*
X+1824797Y+3453561D01*
X+1795204Y+3453561D01*
X+1765612Y+3420270D01*
X+1765612Y+3370333D01*
X+1780408Y+3353688D01*
X+1780408Y+3303751D02*
X+1765612Y+3287105D01*
X+1765612Y+3237168D01*
X+1780408Y+3220523D01*
X+1795204Y+3220523D01*
X+1810000Y+3237168D01*
X+1810000Y+3287105D01*
X+1824797Y+3303751D01*
X+1854389Y+3303751D01*
X+1854389Y+3220523D01*
D56*
X+1480000Y+2635000D02*
X+870000Y+2635000D01*
X+870000Y+3045000D01*
X+1480000Y+3045000D01*
X+1480000Y+2635000D01*
X+1175000Y+2890000D02*
X+1175000Y+2790000D01*
X+1125000Y+2840000D02*
X+1225000Y+2840000D01*
D63*
X+1390000Y+2840000D02*
X+1390000Y+2840000D01*
D64*
X+1132896Y+2810407D02*
X+1149541Y+2795611D01*
X+1199478Y+2795611D01*
X+1232769Y+2825203D01*
X+1232769Y+2854796D01*
X+1199478Y+2884388D01*
X+1149541Y+2884388D01*
X+1132896Y+2869592D01*
X+1082959Y+2869592D02*
X+1066313Y+2884388D01*
X+1016376Y+2884388D01*
X+999731Y+2869592D01*
X+999731Y+2854796D01*
X+1016376Y+2840000D01*
X+999731Y+2825203D01*
X+999731Y+2810407D01*
X+1016376Y+2795611D01*
X+1066313Y+2795611D01*
X+1082959Y+2810407D01*
X+1049668Y+2840000D02*
X+1016376Y+2840000D01*
D56*
X+1575000Y+2485000D02*
X+1755000Y+2485000D01*
X+1755000Y+2395000D01*
X+1575000Y+2395000D01*
X+1575000Y+2485000D01*
X+1665000Y+2415000D02*
X+1665000Y+2465000D01*
X+1690000Y+2440000D02*
X+1640000Y+2440000D01*
D61*
X+1620000Y+2440000D02*
X+1620000Y+2440000D01*
D62*
X+1702720Y+2433000D02*
X+1706657Y+2429501D01*
X+1718468Y+2429501D01*
X+1726342Y+2436500D01*
X+1726342Y+2443499D01*
X+1718468Y+2450498D01*
X+1706657Y+2450498D01*
X+1702720Y+2446999D01*
X+1671224Y+2450498D02*
X+1690909Y+2450498D01*
X+1690909Y+2443499D01*
X+1675161Y+2443499D01*
X+1671224Y+2440000D01*
X+1671224Y+2433000D01*
X+1675161Y+2429501D01*
X+1686972Y+2429501D01*
X+1690909Y+2433000D01*
M02*
